<svg width="240" height="204" viewBox="0 0 240 204" fill="none" xmlns="http://www.w3.org/2000/svg">
<g clip-path="url(#clip0_0_564)">
<g opacity="0.848005" filter="url(#filter0_f_0_564)">
<rect y="25" width="50" height="25" rx="12.5" fill="#4DADF7"/>
</g>
<rect width="50" height="50" rx="19" fill="#4DADF7"/>
<path d="M30.5714 19.4286H31.4286C31.5893 19.4286 31.7143 19.3036 31.7143 19.1429V18.5714C31.7143 18.4107 31.5893 18.2857 31.4286 18.2857H18.2857C18.125 18.2857 18 18.4107 18 18.5714V19.1429C18 19.3036 18.125 19.4286 18.2857 19.4286H19.1429C19.1429 22.7321 20.7232 25.125 22.4732 26.2857C20.7232 27.4464 19.1429 29.8393 19.1429 33.1429H18.2857C18.125 33.1429 18 33.2679 18 33.4286V34C18 34.1607 18.125 34.2857 18.2857 34.2857H31.4286C31.5893 34.2857 31.7143 34.1607 31.7143 34V33.4286C31.7143 33.2679 31.5893 33.1429 31.4286 33.1429H30.5714C30.5714 29.8393 28.9911 27.4464 27.2411 26.2857C28.9911 25.125 30.5714 22.7321 30.5714 19.4286ZM29.4286 19.4286C29.4286 20.7321 29.1339 21.8839 28.6696 22.8571H21.0446C20.5804 21.8839 20.2857 20.7321 20.2857 19.4286H29.4286ZM28.9196 30.2857H20.7946C21.4554 28.5625 22.6429 27.3393 23.8304 26.8571H25.8839C27.0714 27.3393 28.2589 28.5625 28.9196 30.2857Z" fill="white"/>
</g>
<g clip-path="url(#clip1_0_564)">
<path d="M8.976 137.192C8.976 137.757 8.84267 138.291 8.576 138.792C8.30933 139.293 7.88267 139.704 7.296 140.024C6.70933 140.333 5.95733 140.488 5.04 140.488H3.024V145H1.2V133.88H5.04C5.89333 133.88 6.61333 134.029 7.2 134.328C7.79733 134.616 8.24 135.011 8.528 135.512C8.82667 136.013 8.976 136.573 8.976 137.192ZM5.04 139C5.73333 139 6.25067 138.845 6.592 138.536C6.93333 138.216 7.104 137.768 7.104 137.192C7.104 135.976 6.416 135.368 5.04 135.368H3.024V139H5.04ZM18.7956 140.376C18.7956 140.707 18.7743 141.005 18.7316 141.272H11.9956C12.049 141.976 12.3103 142.541 12.7796 142.968C13.249 143.395 13.825 143.608 14.5076 143.608C15.489 143.608 16.1823 143.197 16.5876 142.376H18.5556C18.289 143.187 17.8036 143.853 17.0996 144.376C16.4063 144.888 15.5423 145.144 14.5076 145.144C13.665 145.144 12.9076 144.957 12.2356 144.584C11.5743 144.2 11.0516 143.667 10.6676 142.984C10.2943 142.291 10.1076 141.491 10.1076 140.584C10.1076 139.677 10.289 138.883 10.6516 138.2C11.025 137.507 11.5423 136.973 12.2036 136.6C12.8756 136.227 13.6436 136.04 14.5076 136.04C15.3396 136.04 16.081 136.221 16.7316 136.584C17.3823 136.947 17.889 137.459 18.2516 138.12C18.6143 138.771 18.7956 139.523 18.7956 140.376ZM16.8916 139.8C16.881 139.128 16.641 138.589 16.1716 138.184C15.7023 137.779 15.121 137.576 14.4276 137.576C13.7983 137.576 13.2596 137.779 12.8116 138.184C12.3636 138.579 12.097 139.117 12.0116 139.8H16.8916ZM22.4146 137.464C22.6813 137.016 23.0333 136.669 23.4706 136.424C23.9186 136.168 24.4466 136.04 25.0546 136.04V137.928H24.5906C23.876 137.928 23.332 138.109 22.9586 138.472C22.596 138.835 22.4146 139.464 22.4146 140.36V145H20.5906V136.184H22.4146V137.464ZM29.9313 145.144C29.2379 145.144 28.6139 145.021 28.0593 144.776C27.5153 144.52 27.0833 144.179 26.7633 143.752C26.4433 143.315 26.2726 142.829 26.2513 142.296H28.1393C28.1713 142.669 28.3473 142.984 28.6673 143.24C28.9979 143.485 29.4086 143.608 29.8993 143.608C30.4113 143.608 30.8059 143.512 31.0833 143.32C31.3713 143.117 31.5153 142.861 31.5153 142.552C31.5153 142.221 31.3553 141.976 31.0353 141.816C30.7259 141.656 30.2299 141.48 29.5473 141.288C28.8859 141.107 28.3473 140.931 27.9313 140.76C27.5153 140.589 27.1526 140.328 26.8433 139.976C26.5446 139.624 26.3953 139.16 26.3953 138.584C26.3953 138.115 26.5339 137.688 26.8113 137.304C27.0886 136.909 27.4833 136.6 27.9953 136.376C28.5179 136.152 29.1153 136.04 29.7873 136.04C30.7899 136.04 31.5953 136.296 32.2033 136.808C32.8219 137.309 33.1526 137.997 33.1953 138.872H31.3713C31.3393 138.477 31.1793 138.163 30.8913 137.928C30.6033 137.693 30.2139 137.576 29.7233 137.576C29.2433 137.576 28.8753 137.667 28.6193 137.848C28.3633 138.029 28.2353 138.269 28.2353 138.568C28.2353 138.803 28.3206 139 28.4913 139.16C28.6619 139.32 28.8699 139.448 29.1153 139.544C29.3606 139.629 29.7233 139.741 30.2033 139.88C30.8433 140.051 31.3659 140.227 31.7713 140.408C32.1873 140.579 32.5446 140.835 32.8433 141.176C33.1419 141.517 33.2966 141.971 33.3073 142.536C33.3073 143.037 33.1686 143.485 32.8913 143.88C32.6139 144.275 32.2193 144.584 31.7073 144.808C31.2059 145.032 30.6139 145.144 29.9313 145.144ZM39.1021 145.144C38.2701 145.144 37.5181 144.957 36.8461 144.584C36.1741 144.2 35.6461 143.667 35.2621 142.984C34.8781 142.291 34.6861 141.491 34.6861 140.584C34.6861 139.688 34.8835 138.893 35.2781 138.2C35.6728 137.507 36.2115 136.973 36.8941 136.6C37.5768 136.227 38.3395 136.04 39.1821 136.04C40.0248 136.04 40.7875 136.227 41.4701 136.6C42.1528 136.973 42.6915 137.507 43.0861 138.2C43.4808 138.893 43.6781 139.688 43.6781 140.584C43.6781 141.48 43.4755 142.275 43.0701 142.968C42.6648 143.661 42.1101 144.2 41.4061 144.584C40.7128 144.957 39.9448 145.144 39.1021 145.144ZM39.1021 143.56C39.5715 143.56 40.0088 143.448 40.4141 143.224C40.8301 143 41.1661 142.664 41.4221 142.216C41.6781 141.768 41.8061 141.224 41.8061 140.584C41.8061 139.944 41.6835 139.405 41.4381 138.968C41.1928 138.52 40.8675 138.184 40.4621 137.96C40.0568 137.736 39.6195 137.624 39.1501 137.624C38.6808 137.624 38.2435 137.736 37.8381 137.96C37.4435 138.184 37.1288 138.52 36.8941 138.968C36.6595 139.405 36.5421 139.944 36.5421 140.584C36.5421 141.533 36.7821 142.269 37.2621 142.792C37.7528 143.304 38.3661 143.56 39.1021 143.56ZM49.9293 136.04C50.6226 136.04 51.2413 136.184 51.7853 136.472C52.3399 136.76 52.7719 137.187 53.0813 137.752C53.3906 138.317 53.5453 139 53.5453 139.8V145H51.7373V140.072C51.7373 139.283 51.5399 138.68 51.1453 138.264C50.7506 137.837 50.2119 137.624 49.5293 137.624C48.8466 137.624 48.3026 137.837 47.8973 138.264C47.5026 138.68 47.3053 139.283 47.3053 140.072V145H45.4813V136.184H47.3053V137.192C47.6039 136.829 47.9826 136.547 48.4413 136.344C48.9106 136.141 49.4066 136.04 49.9293 136.04ZM55.2639 140.552C55.2639 139.667 55.4452 138.883 55.8079 138.2C56.1812 137.517 56.6825 136.989 57.3119 136.616C57.9519 136.232 58.6559 136.04 59.4239 136.04C60.1172 136.04 60.7199 136.179 61.2319 136.456C61.7545 136.723 62.1705 137.059 62.4799 137.464V136.184H64.3199V145H62.4799V143.688C62.1705 144.104 61.7492 144.451 61.2159 144.728C60.6825 145.005 60.0745 145.144 59.3919 145.144C58.6345 145.144 57.9412 144.952 57.3119 144.568C56.6825 144.173 56.1812 143.629 55.8079 142.936C55.4452 142.232 55.2639 141.437 55.2639 140.552ZM62.4799 140.584C62.4799 139.976 62.3519 139.448 62.0959 139C61.8505 138.552 61.5252 138.211 61.1199 137.976C60.7145 137.741 60.2772 137.624 59.8079 137.624C59.3385 137.624 58.9012 137.741 58.4959 137.976C58.0905 138.2 57.7599 138.536 57.5039 138.984C57.2585 139.421 57.1359 139.944 57.1359 140.552C57.1359 141.16 57.2585 141.693 57.5039 142.152C57.7599 142.611 58.0905 142.963 58.4959 143.208C58.9119 143.443 59.3492 143.56 59.8079 143.56C60.2772 143.56 60.7145 143.443 61.1199 143.208C61.5252 142.973 61.8505 142.632 62.0959 142.184C62.3519 141.725 62.4799 141.192 62.4799 140.584ZM68.5396 133.16V145H66.7156V133.16H68.5396ZM74.4826 140.584C74.4826 139.677 74.664 138.883 75.0266 138.2C75.4 137.507 75.912 136.973 76.5626 136.6C77.2133 136.227 77.96 136.04 78.8026 136.04C79.8693 136.04 80.7493 136.296 81.4426 136.808C82.1466 137.309 82.6213 138.029 82.8666 138.968H80.8986C80.7386 138.531 80.4826 138.189 80.1306 137.944C79.7786 137.699 79.336 137.576 78.8026 137.576C78.056 137.576 77.4586 137.843 77.0106 138.376C76.5733 138.899 76.3546 139.635 76.3546 140.584C76.3546 141.533 76.5733 142.275 77.0106 142.808C77.4586 143.341 78.056 143.608 78.8026 143.608C79.8586 143.608 80.5573 143.144 80.8986 142.216H82.8666C82.6106 143.112 82.1306 143.827 81.4266 144.36C80.7226 144.883 79.848 145.144 78.8026 145.144C77.96 145.144 77.2133 144.957 76.5626 144.584C75.912 144.2 75.4 143.667 75.0266 142.984C74.664 142.291 74.4826 141.491 74.4826 140.584ZM89.2444 136.04C89.9164 136.04 90.5137 136.184 91.0364 136.472C91.5697 136.76 91.9857 137.187 92.2844 137.752C92.5937 138.317 92.7484 139 92.7484 139.8V145H90.9404V140.072C90.9404 139.283 90.743 138.68 90.3484 138.264C89.9537 137.837 89.415 137.624 88.7324 137.624C88.0497 137.624 87.5057 137.837 87.1004 138.264C86.7057 138.68 86.5084 139.283 86.5084 140.072V145H84.6844V133.16H86.5084V137.208C86.8177 136.835 87.207 136.547 87.6764 136.344C88.1564 136.141 88.679 136.04 89.2444 136.04ZM98.899 145.144C98.067 145.144 97.315 144.957 96.643 144.584C95.971 144.2 95.443 143.667 95.059 142.984C94.675 142.291 94.483 141.491 94.483 140.584C94.483 139.688 94.6803 138.893 95.075 138.2C95.4697 137.507 96.0083 136.973 96.691 136.6C97.3737 136.227 98.1363 136.04 98.979 136.04C99.8217 136.04 100.584 136.227 101.267 136.6C101.95 136.973 102.488 137.507 102.883 138.2C103.278 138.893 103.475 139.688 103.475 140.584C103.475 141.48 103.272 142.275 102.867 142.968C102.462 143.661 101.907 144.2 101.203 144.584C100.51 144.957 99.7417 145.144 98.899 145.144ZM98.899 143.56C99.3683 143.56 99.8057 143.448 100.211 143.224C100.627 143 100.963 142.664 101.219 142.216C101.475 141.768 101.603 141.224 101.603 140.584C101.603 139.944 101.48 139.405 101.235 138.968C100.99 138.52 100.664 138.184 100.259 137.96C99.8537 137.736 99.4163 137.624 98.947 137.624C98.4777 137.624 98.0403 137.736 97.635 137.96C97.2403 138.184 96.9257 138.52 96.691 138.968C96.4563 139.405 96.339 139.944 96.339 140.584C96.339 141.533 96.579 142.269 97.059 142.792C97.5497 143.304 98.163 143.56 98.899 143.56ZM106.206 135.016C105.875 135.016 105.598 134.904 105.374 134.68C105.15 134.456 105.038 134.179 105.038 133.848C105.038 133.517 105.15 133.24 105.374 133.016C105.598 132.792 105.875 132.68 106.206 132.68C106.526 132.68 106.798 132.792 107.022 133.016C107.246 133.24 107.358 133.517 107.358 133.848C107.358 134.179 107.246 134.456 107.022 134.68C106.798 134.904 106.526 135.016 106.206 135.016ZM107.102 136.184V145H105.278V136.184H107.102ZM108.889 140.584C108.889 139.677 109.07 138.883 109.433 138.2C109.806 137.507 110.318 136.973 110.969 136.6C111.62 136.227 112.366 136.04 113.209 136.04C114.276 136.04 115.156 136.296 115.849 136.808C116.553 137.309 117.028 138.029 117.273 138.968H115.305C115.145 138.531 114.889 138.189 114.537 137.944C114.185 137.699 113.742 137.576 113.209 137.576C112.462 137.576 111.865 137.843 111.417 138.376C110.98 138.899 110.761 139.635 110.761 140.584C110.761 141.533 110.98 142.275 111.417 142.808C111.865 143.341 112.462 143.608 113.209 143.608C114.265 143.608 114.964 143.144 115.305 142.216H117.273C117.017 143.112 116.537 143.827 115.833 144.36C115.129 144.883 114.254 145.144 113.209 145.144C112.366 145.144 111.62 144.957 110.969 144.584C110.318 144.2 109.806 143.667 109.433 142.984C109.07 142.291 108.889 141.491 108.889 140.584ZM127.171 140.376C127.171 140.707 127.149 141.005 127.107 141.272H120.371C120.424 141.976 120.685 142.541 121.155 142.968C121.624 143.395 122.2 143.608 122.883 143.608C123.864 143.608 124.557 143.197 124.963 142.376H126.931C126.664 143.187 126.179 143.853 125.475 144.376C124.781 144.888 123.917 145.144 122.883 145.144C122.04 145.144 121.283 144.957 120.611 144.584C119.949 144.2 119.427 143.667 119.043 142.984C118.669 142.291 118.483 141.491 118.483 140.584C118.483 139.677 118.664 138.883 119.027 138.2C119.4 137.507 119.917 136.973 120.579 136.6C121.251 136.227 122.019 136.04 122.883 136.04C123.715 136.04 124.456 136.221 125.107 136.584C125.757 136.947 126.264 137.459 126.627 138.12C126.989 138.771 127.171 139.523 127.171 140.376ZM125.267 139.8C125.256 139.128 125.016 138.589 124.547 138.184C124.077 137.779 123.496 137.576 122.803 137.576C122.173 137.576 121.635 137.779 121.187 138.184C120.739 138.579 120.472 139.117 120.387 139.8H125.267ZM132.166 145.144C131.472 145.144 130.848 145.021 130.294 144.776C129.75 144.52 129.318 144.179 128.998 143.752C128.678 143.315 128.507 142.829 128.486 142.296H130.374C130.406 142.669 130.582 142.984 130.902 143.24C131.232 143.485 131.643 143.608 132.134 143.608C132.646 143.608 133.04 143.512 133.318 143.32C133.606 143.117 133.75 142.861 133.75 142.552C133.75 142.221 133.59 141.976 133.27 141.816C132.96 141.656 132.464 141.48 131.782 141.288C131.12 141.107 130.582 140.931 130.166 140.76C129.75 140.589 129.387 140.328 129.078 139.976C128.779 139.624 128.63 139.16 128.63 138.584C128.63 138.115 128.768 137.688 129.046 137.304C129.323 136.909 129.718 136.6 130.23 136.376C130.752 136.152 131.35 136.04 132.022 136.04C133.024 136.04 133.83 136.296 134.438 136.808C135.056 137.309 135.387 137.997 135.43 138.872H133.606C133.574 138.477 133.414 138.163 133.126 137.928C132.838 137.693 132.448 137.576 131.958 137.576C131.478 137.576 131.11 137.667 130.854 137.848C130.598 138.029 130.47 138.269 130.47 138.568C130.47 138.803 130.555 139 130.726 139.16C130.896 139.32 131.104 139.448 131.35 139.544C131.595 139.629 131.958 139.741 132.438 139.88C133.078 140.051 133.6 140.227 134.006 140.408C134.422 140.579 134.779 140.835 135.078 141.176C135.376 141.517 135.531 141.971 135.542 142.536C135.542 143.037 135.403 143.485 135.126 143.88C134.848 144.275 134.454 144.584 133.942 144.808C133.44 145.032 132.848 145.144 132.166 145.144ZM141.061 140.552C141.061 139.667 141.242 138.883 141.605 138.2C141.978 137.517 142.479 136.989 143.109 136.616C143.749 136.232 144.453 136.04 145.221 136.04C145.914 136.04 146.517 136.179 147.029 136.456C147.551 136.723 147.967 137.059 148.277 137.464V136.184H150.117V145H148.277V143.688C147.967 144.104 147.546 144.451 147.013 144.728C146.479 145.005 145.871 145.144 145.189 145.144C144.431 145.144 143.738 144.952 143.109 144.568C142.479 144.173 141.978 143.629 141.605 142.936C141.242 142.232 141.061 141.437 141.061 140.552ZM148.277 140.584C148.277 139.976 148.149 139.448 147.893 139C147.647 138.552 147.322 138.211 146.917 137.976C146.511 137.741 146.074 137.624 145.605 137.624C145.135 137.624 144.698 137.741 144.293 137.976C143.887 138.2 143.557 138.536 143.301 138.984C143.055 139.421 142.933 139.944 142.933 140.552C142.933 141.16 143.055 141.693 143.301 142.152C143.557 142.611 143.887 142.963 144.293 143.208C144.709 143.443 145.146 143.56 145.605 143.56C146.074 143.56 146.511 143.443 146.917 143.208C147.322 142.973 147.647 142.632 147.893 142.184C148.149 141.725 148.277 141.192 148.277 140.584ZM156.961 136.04C157.654 136.04 158.273 136.184 158.817 136.472C159.371 136.76 159.803 137.187 160.113 137.752C160.422 138.317 160.577 139 160.577 139.8V145H158.769V140.072C158.769 139.283 158.571 138.68 158.177 138.264C157.782 137.837 157.243 137.624 156.561 137.624C155.878 137.624 155.334 137.837 154.929 138.264C154.534 138.68 154.337 139.283 154.337 140.072V145H152.513V136.184H154.337V137.192C154.635 136.829 155.014 136.547 155.473 136.344C155.942 136.141 156.438 136.04 156.961 136.04ZM162.295 140.552C162.295 139.667 162.476 138.883 162.839 138.2C163.212 137.517 163.714 136.989 164.343 136.616C164.983 136.232 165.692 136.04 166.471 136.04C167.047 136.04 167.612 136.168 168.167 136.424C168.732 136.669 169.18 137 169.511 137.416V133.16H171.351V145H169.511V143.672C169.212 144.099 168.796 144.451 168.263 144.728C167.74 145.005 167.138 145.144 166.455 145.144C165.687 145.144 164.983 144.952 164.343 144.568C163.714 144.173 163.212 143.629 162.839 142.936C162.476 142.232 162.295 141.437 162.295 140.552ZM169.511 140.584C169.511 139.976 169.383 139.448 169.127 139C168.882 138.552 168.556 138.211 168.151 137.976C167.746 137.741 167.308 137.624 166.839 137.624C166.37 137.624 165.932 137.741 165.527 137.976C165.122 138.2 164.791 138.536 164.535 138.984C164.29 139.421 164.167 139.944 164.167 140.552C164.167 141.16 164.29 141.693 164.535 142.152C164.791 142.611 165.122 142.963 165.527 143.208C165.943 143.443 166.38 143.56 166.839 143.56C167.308 143.56 167.746 143.443 168.151 143.208C168.556 142.973 168.882 142.632 169.127 142.184C169.383 141.725 169.511 141.192 169.511 140.584ZM180.031 137.672V142.552C180.031 142.883 180.106 143.123 180.255 143.272C180.415 143.411 180.682 143.48 181.055 143.48H182.175V145H180.735C179.914 145 179.284 144.808 178.847 144.424C178.41 144.04 178.191 143.416 178.191 142.552V137.672H177.151V136.184H178.191V133.992H180.031V136.184H182.175V137.672H180.031ZM188.416 136.04C189.088 136.04 189.686 136.184 190.208 136.472C190.742 136.76 191.158 137.187 191.456 137.752C191.766 138.317 191.92 139 191.92 139.8V145H190.112V140.072C190.112 139.283 189.915 138.68 189.52 138.264C189.126 137.837 188.587 137.624 187.904 137.624C187.222 137.624 186.678 137.837 186.272 138.264C185.878 138.68 185.68 139.283 185.68 140.072V145H183.856V133.16H185.68V137.208C185.99 136.835 186.379 136.547 186.848 136.344C187.328 136.141 187.851 136.04 188.416 136.04ZM202.327 140.376C202.327 140.707 202.306 141.005 202.263 141.272H195.527C195.58 141.976 195.842 142.541 196.311 142.968C196.78 143.395 197.356 143.608 198.039 143.608C199.02 143.608 199.714 143.197 200.119 142.376H202.087C201.82 143.187 201.335 143.853 200.631 144.376C199.938 144.888 199.074 145.144 198.039 145.144C197.196 145.144 196.439 144.957 195.767 144.584C195.106 144.2 194.583 143.667 194.199 142.984C193.826 142.291 193.639 141.491 193.639 140.584C193.639 139.677 193.82 138.883 194.183 138.2C194.556 137.507 195.074 136.973 195.735 136.6C196.407 136.227 197.175 136.04 198.039 136.04C198.871 136.04 199.612 136.221 200.263 136.584C200.914 136.947 201.42 137.459 201.783 138.12C202.146 138.771 202.327 139.523 202.327 140.376ZM200.423 139.8C200.412 139.128 200.172 138.589 199.703 138.184C199.234 137.779 198.652 137.576 197.959 137.576C197.33 137.576 196.791 137.779 196.343 138.184C195.895 138.579 195.628 139.117 195.543 139.8H200.423ZM5.024 171.144C4.192 171.144 3.44 170.957 2.768 170.584C2.096 170.2 1.568 169.667 1.184 168.984C0.8 168.291 0.608 167.491 0.608 166.584C0.608 165.688 0.805333 164.893 1.2 164.2C1.59467 163.507 2.13333 162.973 2.816 162.6C3.49867 162.227 4.26133 162.04 5.104 162.04C5.94667 162.04 6.70933 162.227 7.392 162.6C8.07467 162.973 8.61333 163.507 9.008 164.2C9.40267 164.893 9.6 165.688 9.6 166.584C9.6 167.48 9.39733 168.275 8.992 168.968C8.58667 169.661 8.032 170.2 7.328 170.584C6.63467 170.957 5.86667 171.144 5.024 171.144ZM5.024 169.56C5.49333 169.56 5.93067 169.448 6.336 169.224C6.752 169 7.088 168.664 7.344 168.216C7.6 167.768 7.728 167.224 7.728 166.584C7.728 165.944 7.60533 165.405 7.36 164.968C7.11467 164.52 6.78933 164.184 6.384 163.96C5.97867 163.736 5.54133 163.624 5.072 163.624C4.60267 163.624 4.16533 163.736 3.76 163.96C3.36533 164.184 3.05067 164.52 2.816 164.968C2.58133 165.405 2.464 165.944 2.464 166.584C2.464 167.533 2.704 168.269 3.184 168.792C3.67467 169.304 4.288 169.56 5.024 169.56ZM14.8111 169.368L17.3071 162.184H19.2431L15.8831 171H13.7071L10.3631 162.184H12.3151L14.8111 169.368ZM28.7019 166.376C28.7019 166.707 28.6805 167.005 28.6379 167.272H21.9019C21.9552 167.976 22.2165 168.541 22.6859 168.968C23.1552 169.395 23.7312 169.608 24.4139 169.608C25.3952 169.608 26.0885 169.197 26.4939 168.376H28.4619C28.1952 169.187 27.7099 169.853 27.0059 170.376C26.3125 170.888 25.4485 171.144 24.4139 171.144C23.5712 171.144 22.8139 170.957 22.1419 170.584C21.4805 170.2 20.9579 169.667 20.5739 168.984C20.2005 168.291 20.0139 167.491 20.0139 166.584C20.0139 165.677 20.1952 164.883 20.5579 164.2C20.9312 163.507 21.4485 162.973 22.1099 162.6C22.7819 162.227 23.5499 162.04 24.4139 162.04C25.2459 162.04 25.9872 162.221 26.6379 162.584C27.2885 162.947 27.7952 163.459 28.1579 164.12C28.5205 164.771 28.7019 165.523 28.7019 166.376ZM26.7979 165.8C26.7872 165.128 26.5472 164.589 26.0779 164.184C25.6085 163.779 25.0272 163.576 24.3339 163.576C23.7045 163.576 23.1659 163.779 22.7179 164.184C22.2699 164.579 22.0032 165.117 21.9179 165.8H26.7979ZM32.3209 163.464C32.5875 163.016 32.9395 162.669 33.3769 162.424C33.8249 162.168 34.3529 162.04 34.9609 162.04V163.928H34.4969C33.7822 163.928 33.2382 164.109 32.8649 164.472C32.5022 164.835 32.3209 165.464 32.3209 166.36V171H30.4969V162.184H32.3209V163.464ZM36.0295 166.552C36.0295 165.667 36.2108 164.883 36.5735 164.2C36.9468 163.517 37.4482 162.989 38.0775 162.616C38.7175 162.232 39.4215 162.04 40.1895 162.04C40.8828 162.04 41.4855 162.179 41.9975 162.456C42.5202 162.723 42.9362 163.059 43.2455 163.464V162.184H45.0855V171H43.2455V169.688C42.9362 170.104 42.5148 170.451 41.9815 170.728C41.4482 171.005 40.8402 171.144 40.1575 171.144C39.4002 171.144 38.7068 170.952 38.0775 170.568C37.4482 170.173 36.9468 169.629 36.5735 168.936C36.2108 168.232 36.0295 167.437 36.0295 166.552ZM43.2455 166.584C43.2455 165.976 43.1175 165.448 42.8615 165C42.6162 164.552 42.2908 164.211 41.8855 163.976C41.4802 163.741 41.0428 163.624 40.5735 163.624C40.1042 163.624 39.6668 163.741 39.2615 163.976C38.8562 164.2 38.5255 164.536 38.2695 164.984C38.0242 165.421 37.9015 165.944 37.9015 166.552C37.9015 167.16 38.0242 167.693 38.2695 168.152C38.5255 168.611 38.8562 168.963 39.2615 169.208C39.6775 169.443 40.1148 169.56 40.5735 169.56C41.0428 169.56 41.4802 169.443 41.8855 169.208C42.2908 168.973 42.6162 168.632 42.8615 168.184C43.1175 167.725 43.2455 167.192 43.2455 166.584ZM49.3053 159.16V171H47.4813V159.16H49.3053ZM53.524 159.16V171H51.7V159.16H53.524ZM61.899 163.48C62.2083 163.075 62.6297 162.733 63.163 162.456C63.6963 162.179 64.299 162.04 64.971 162.04C65.739 162.04 66.4377 162.232 67.067 162.616C67.707 162.989 68.2083 163.517 68.571 164.2C68.9337 164.883 69.115 165.667 69.115 166.552C69.115 167.437 68.9337 168.232 68.571 168.936C68.2083 169.629 67.707 170.173 67.067 170.568C66.4377 170.952 65.739 171.144 64.971 171.144C64.299 171.144 63.7017 171.011 63.179 170.744C62.6563 170.467 62.2297 170.125 61.899 169.72V175.192H60.075V162.184H61.899V163.48ZM67.259 166.552C67.259 165.944 67.131 165.421 66.875 164.984C66.6297 164.536 66.299 164.2 65.883 163.976C65.4777 163.741 65.0403 163.624 64.571 163.624C64.1123 163.624 63.675 163.741 63.259 163.976C62.8537 164.211 62.523 164.552 62.267 165C62.0217 165.448 61.899 165.976 61.899 166.584C61.899 167.192 62.0217 167.725 62.267 168.184C62.523 168.632 62.8537 168.973 63.259 169.208C63.675 169.443 64.1123 169.56 64.571 169.56C65.0403 169.56 65.4777 169.443 65.883 169.208C66.299 168.963 66.6297 168.611 66.875 168.152C67.131 167.693 67.259 167.16 67.259 166.552ZM78.9988 166.376C78.9988 166.707 78.9774 167.005 78.9348 167.272H72.1988C72.2521 167.976 72.5134 168.541 72.9828 168.968C73.4521 169.395 74.0281 169.608 74.7108 169.608C75.6921 169.608 76.3854 169.197 76.7908 168.376H78.7587C78.4921 169.187 78.0068 169.853 77.3028 170.376C76.6094 170.888 75.7454 171.144 74.7108 171.144C73.8681 171.144 73.1108 170.957 72.4388 170.584C71.7774 170.2 71.2548 169.667 70.8708 168.984C70.4974 168.291 70.3108 167.491 70.3108 166.584C70.3108 165.677 70.4921 164.883 70.8548 164.2C71.2281 163.507 71.7454 162.973 72.4068 162.6C73.0788 162.227 73.8468 162.04 74.7108 162.04C75.5428 162.04 76.2841 162.221 76.9348 162.584C77.5854 162.947 78.0921 163.459 78.4548 164.12C78.8174 164.771 78.9988 165.523 78.9988 166.376ZM77.0948 165.8C77.0841 165.128 76.8441 164.589 76.3748 164.184C75.9054 163.779 75.3241 163.576 74.6308 163.576C74.0014 163.576 73.4628 163.779 73.0148 164.184C72.5668 164.579 72.3001 165.117 72.2148 165.8H77.0948ZM82.6178 163.464C82.8844 163.016 83.2364 162.669 83.6738 162.424C84.1218 162.168 84.6498 162.04 85.2578 162.04V163.928H84.7938C84.0791 163.928 83.5351 164.109 83.1618 164.472C82.7991 164.835 82.6178 165.464 82.6178 166.36V171H80.7938V162.184H82.6178V163.464ZM90.1344 171.144C89.441 171.144 88.817 171.021 88.2624 170.776C87.7184 170.52 87.2864 170.179 86.9664 169.752C86.6464 169.315 86.4757 168.829 86.4544 168.296H88.3424C88.3744 168.669 88.5504 168.984 88.8704 169.24C89.201 169.485 89.6117 169.608 90.1024 169.608C90.6144 169.608 91.009 169.512 91.2864 169.32C91.5744 169.117 91.7184 168.861 91.7184 168.552C91.7184 168.221 91.5584 167.976 91.2384 167.816C90.929 167.656 90.433 167.48 89.7504 167.288C89.089 167.107 88.5504 166.931 88.1344 166.76C87.7184 166.589 87.3557 166.328 87.0464 165.976C86.7477 165.624 86.5984 165.16 86.5984 164.584C86.5984 164.115 86.737 163.688 87.0144 163.304C87.2917 162.909 87.6864 162.6 88.1984 162.376C88.721 162.152 89.3184 162.04 89.9904 162.04C90.993 162.04 91.7984 162.296 92.4064 162.808C93.025 163.309 93.3557 163.997 93.3984 164.872H91.5744C91.5424 164.477 91.3824 164.163 91.0944 163.928C90.8064 163.693 90.417 163.576 89.9264 163.576C89.4464 163.576 89.0784 163.667 88.8224 163.848C88.5664 164.029 88.4384 164.269 88.4384 164.568C88.4384 164.803 88.5237 165 88.6944 165.16C88.865 165.32 89.073 165.448 89.3184 165.544C89.5637 165.629 89.9264 165.741 90.4064 165.88C91.0464 166.051 91.569 166.227 91.9744 166.408C92.3904 166.579 92.7477 166.835 93.0464 167.176C93.345 167.517 93.4997 167.971 93.5104 168.536C93.5104 169.037 93.3717 169.485 93.0944 169.88C92.817 170.275 92.4224 170.584 91.9104 170.808C91.409 171.032 90.817 171.144 90.1344 171.144ZM99.3053 171.144C98.4733 171.144 97.7213 170.957 97.0493 170.584C96.3773 170.2 95.8493 169.667 95.4653 168.984C95.0813 168.291 94.8893 167.491 94.8893 166.584C94.8893 165.688 95.0866 164.893 95.4813 164.2C95.8759 163.507 96.4146 162.973 97.0973 162.6C97.7799 162.227 98.5426 162.04 99.3853 162.04C100.228 162.04 100.991 162.227 101.673 162.6C102.356 162.973 102.895 163.507 103.289 164.2C103.684 164.893 103.881 165.688 103.881 166.584C103.881 167.48 103.679 168.275 103.273 168.968C102.868 169.661 102.313 170.2 101.609 170.584C100.916 170.957 100.148 171.144 99.3053 171.144ZM99.3053 169.56C99.7746 169.56 100.212 169.448 100.617 169.224C101.033 169 101.369 168.664 101.625 168.216C101.881 167.768 102.009 167.224 102.009 166.584C102.009 165.944 101.887 165.405 101.641 164.968C101.396 164.52 101.071 164.184 100.665 163.96C100.26 163.736 99.8226 163.624 99.3533 163.624C98.8839 163.624 98.4466 163.736 98.0413 163.96C97.6466 164.184 97.3319 164.52 97.0973 164.968C96.8626 165.405 96.7453 165.944 96.7453 166.584C96.7453 167.533 96.9853 168.269 97.4653 168.792C97.9559 169.304 98.5693 169.56 99.3053 169.56ZM110.132 162.04C110.826 162.04 111.444 162.184 111.988 162.472C112.543 162.76 112.975 163.187 113.284 163.752C113.594 164.317 113.748 165 113.748 165.8V171H111.94V166.072C111.94 165.283 111.743 164.68 111.348 164.264C110.954 163.837 110.415 163.624 109.732 163.624C109.05 163.624 108.506 163.837 108.1 164.264C107.706 164.68 107.508 165.283 107.508 166.072V171H105.684V162.184H107.508V163.192C107.807 162.829 108.186 162.547 108.644 162.344C109.114 162.141 109.61 162.04 110.132 162.04ZM115.467 166.552C115.467 165.667 115.648 164.883 116.011 164.2C116.384 163.517 116.886 162.989 117.515 162.616C118.155 162.232 118.859 162.04 119.627 162.04C120.32 162.04 120.923 162.179 121.435 162.456C121.958 162.723 122.374 163.059 122.683 163.464V162.184H124.523V171H122.683V169.688C122.374 170.104 121.952 170.451 121.419 170.728C120.886 171.005 120.278 171.144 119.595 171.144C118.838 171.144 118.144 170.952 117.515 170.568C116.886 170.173 116.384 169.629 116.011 168.936C115.648 168.232 115.467 167.437 115.467 166.552ZM122.683 166.584C122.683 165.976 122.555 165.448 122.299 165C122.054 164.552 121.728 164.211 121.323 163.976C120.918 163.741 120.48 163.624 120.011 163.624C119.542 163.624 119.104 163.741 118.699 163.976C118.294 164.2 117.963 164.536 117.707 164.984C117.462 165.421 117.339 165.944 117.339 166.552C117.339 167.16 117.462 167.693 117.707 168.152C117.963 168.611 118.294 168.963 118.699 169.208C119.115 169.443 119.552 169.56 120.011 169.56C120.48 169.56 120.918 169.443 121.323 169.208C121.728 168.973 122.054 168.632 122.299 168.184C122.555 167.725 122.683 167.192 122.683 166.584ZM128.743 159.16V171H126.919V159.16H128.743ZM132.066 161.016C131.735 161.016 131.458 160.904 131.234 160.68C131.01 160.456 130.898 160.179 130.898 159.848C130.898 159.517 131.01 159.24 131.234 159.016C131.458 158.792 131.735 158.68 132.066 158.68C132.386 158.68 132.658 158.792 132.882 159.016C133.106 159.24 133.218 159.517 133.218 159.848C133.218 160.179 133.106 160.456 132.882 160.68C132.658 160.904 132.386 161.016 132.066 161.016ZM132.962 162.184V171H131.138V162.184H132.962ZM137.484 163.672V168.552C137.484 168.883 137.559 169.123 137.708 169.272C137.868 169.411 138.135 169.48 138.508 169.48H139.628V171H138.188C137.367 171 136.738 170.808 136.3 170.424C135.863 170.04 135.644 169.416 135.644 168.552V163.672H134.604V162.184H135.644V159.992H137.484V162.184H139.628V163.672H137.484ZM149.245 162.184L143.837 175.144H141.949L143.741 170.856L140.269 162.184H142.301L144.781 168.904L147.357 162.184H149.245ZM158.602 171.144C157.77 171.144 157.018 170.957 156.346 170.584C155.674 170.2 155.146 169.667 154.762 168.984C154.378 168.291 154.186 167.491 154.186 166.584C154.186 165.688 154.383 164.893 154.778 164.2C155.173 163.507 155.711 162.973 156.394 162.6C157.077 162.227 157.839 162.04 158.682 162.04C159.525 162.04 160.287 162.227 160.97 162.6C161.653 162.973 162.191 163.507 162.586 164.2C162.981 164.893 163.178 165.688 163.178 166.584C163.178 167.48 162.975 168.275 162.57 168.968C162.165 169.661 161.61 170.2 160.906 170.584C160.213 170.957 159.445 171.144 158.602 171.144ZM158.602 169.56C159.071 169.56 159.509 169.448 159.914 169.224C160.33 169 160.666 168.664 160.922 168.216C161.178 167.768 161.306 167.224 161.306 166.584C161.306 165.944 161.183 165.405 160.938 164.968C160.693 164.52 160.367 164.184 159.962 163.96C159.557 163.736 159.119 163.624 158.65 163.624C158.181 163.624 157.743 163.736 157.338 163.96C156.943 164.184 156.629 164.52 156.394 164.968C156.159 165.405 156.042 165.944 156.042 166.584C156.042 167.533 156.282 168.269 156.762 168.792C157.253 169.304 157.866 169.56 158.602 169.56ZM168.677 163.672H167.045V171H165.205V163.672H164.165V162.184H165.205V161.56C165.205 160.547 165.472 159.811 166.005 159.352C166.549 158.883 167.397 158.648 168.549 158.648V160.168C167.995 160.168 167.605 160.275 167.381 160.488C167.157 160.691 167.045 161.048 167.045 161.56V162.184H168.677V163.672ZM176.578 163.672V168.552C176.578 168.883 176.653 169.123 176.802 169.272C176.962 169.411 177.229 169.48 177.602 169.48H178.722V171H177.282C176.461 171 175.831 170.808 175.394 170.424C174.957 170.04 174.738 169.416 174.738 168.552V163.672H173.698V162.184H174.738V159.992H176.578V162.184H178.722V163.672H176.578ZM184.963 162.04C185.635 162.04 186.232 162.184 186.755 162.472C187.288 162.76 187.704 163.187 188.003 163.752C188.312 164.317 188.467 165 188.467 165.8V171H186.659V166.072C186.659 165.283 186.462 164.68 186.067 164.264C185.672 163.837 185.134 163.624 184.451 163.624C183.768 163.624 183.224 163.837 182.819 164.264C182.424 164.68 182.227 165.283 182.227 166.072V171H180.403V159.16H182.227V163.208C182.536 162.835 182.926 162.547 183.395 162.344C183.875 162.141 184.398 162.04 184.963 162.04ZM198.874 166.376C198.874 166.707 198.852 167.005 198.81 167.272H192.074C192.127 167.976 192.388 168.541 192.858 168.968C193.327 169.395 193.903 169.608 194.586 169.608C195.567 169.608 196.26 169.197 196.666 168.376H198.634C198.367 169.187 197.882 169.853 197.178 170.376C196.484 170.888 195.62 171.144 194.586 171.144C193.743 171.144 192.986 170.957 192.314 170.584C191.652 170.2 191.13 169.667 190.746 168.984C190.372 168.291 190.186 167.491 190.186 166.584C190.186 165.677 190.367 164.883 190.73 164.2C191.103 163.507 191.62 162.973 192.282 162.6C192.954 162.227 193.722 162.04 194.586 162.04C195.418 162.04 196.159 162.221 196.81 162.584C197.46 162.947 197.967 163.459 198.33 164.12C198.692 164.771 198.874 165.523 198.874 166.376ZM196.97 165.8C196.959 165.128 196.719 164.589 196.25 164.184C195.78 163.779 195.199 163.576 194.506 163.576C193.876 163.576 193.338 163.779 192.89 164.184C192.442 164.579 192.175 165.117 192.09 165.8H196.97ZM3.024 189.48C3.33333 189.075 3.75467 188.733 4.288 188.456C4.82133 188.179 5.424 188.04 6.096 188.04C6.864 188.04 7.56267 188.232 8.192 188.616C8.832 188.989 9.33333 189.517 9.696 190.2C10.0587 190.883 10.24 191.667 10.24 192.552C10.24 193.437 10.0587 194.232 9.696 194.936C9.33333 195.629 8.832 196.173 8.192 196.568C7.56267 196.952 6.864 197.144 6.096 197.144C5.424 197.144 4.82667 197.011 4.304 196.744C3.78133 196.467 3.35467 196.125 3.024 195.72V201.192H1.2V188.184H3.024V189.48ZM8.384 192.552C8.384 191.944 8.256 191.421 8 190.984C7.75467 190.536 7.424 190.2 7.008 189.976C6.60267 189.741 6.16533 189.624 5.696 189.624C5.23733 189.624 4.8 189.741 4.384 189.976C3.97867 190.211 3.648 190.552 3.392 191C3.14667 191.448 3.024 191.976 3.024 192.584C3.024 193.192 3.14667 193.725 3.392 194.184C3.648 194.632 3.97867 194.973 4.384 195.208C4.8 195.443 5.23733 195.56 5.696 195.56C6.16533 195.56 6.60267 195.443 7.008 195.208C7.424 194.963 7.75467 194.611 8 194.152C8.256 193.693 8.384 193.16 8.384 192.552ZM20.1238 192.376C20.1238 192.707 20.1024 193.005 20.0598 193.272H13.3238C13.3771 193.976 13.6384 194.541 14.1078 194.968C14.5771 195.395 15.1531 195.608 15.8358 195.608C16.8171 195.608 17.5104 195.197 17.9158 194.376H19.8837C19.6171 195.187 19.1318 195.853 18.4278 196.376C17.7344 196.888 16.8704 197.144 15.8358 197.144C14.9931 197.144 14.2358 196.957 13.5638 196.584C12.9024 196.2 12.3798 195.667 11.9958 194.984C11.6224 194.291 11.4358 193.491 11.4358 192.584C11.4358 191.677 11.6171 190.883 11.9798 190.2C12.3531 189.507 12.8704 188.973 13.5318 188.6C14.2038 188.227 14.9718 188.04 15.8358 188.04C16.6678 188.04 17.4091 188.221 18.0598 188.584C18.7104 188.947 19.2171 189.459 19.5798 190.12C19.9424 190.771 20.1238 191.523 20.1238 192.376ZM18.2198 191.8C18.2091 191.128 17.9691 190.589 17.4998 190.184C17.0304 189.779 16.4491 189.576 15.7558 189.576C15.1264 189.576 14.5878 189.779 14.1398 190.184C13.6918 190.579 13.4251 191.117 13.3398 191.8H18.2198ZM23.7428 189.464C24.0094 189.016 24.3614 188.669 24.7988 188.424C25.2468 188.168 25.7748 188.04 26.3828 188.04V189.928H25.9188C25.2041 189.928 24.6601 190.109 24.2868 190.472C23.9241 190.835 23.7428 191.464 23.7428 192.36V197H21.9188V188.184H23.7428V189.464ZM31.2594 197.144C30.566 197.144 29.942 197.021 29.3874 196.776C28.8434 196.52 28.4114 196.179 28.0914 195.752C27.7714 195.315 27.6007 194.829 27.5794 194.296H29.4674C29.4994 194.669 29.6754 194.984 29.9954 195.24C30.326 195.485 30.7367 195.608 31.2274 195.608C31.7394 195.608 32.134 195.512 32.4114 195.32C32.6994 195.117 32.8434 194.861 32.8434 194.552C32.8434 194.221 32.6834 193.976 32.3634 193.816C32.054 193.656 31.558 193.48 30.8754 193.288C30.214 193.107 29.6754 192.931 29.2594 192.76C28.8434 192.589 28.4807 192.328 28.1714 191.976C27.8727 191.624 27.7234 191.16 27.7234 190.584C27.7234 190.115 27.862 189.688 28.1394 189.304C28.4167 188.909 28.8114 188.6 29.3234 188.376C29.846 188.152 30.4434 188.04 31.1154 188.04C32.118 188.04 32.9234 188.296 33.5314 188.808C34.15 189.309 34.4807 189.997 34.5234 190.872H32.6994C32.6674 190.477 32.5074 190.163 32.2194 189.928C31.9314 189.693 31.542 189.576 31.0514 189.576C30.5714 189.576 30.2034 189.667 29.9474 189.848C29.6914 190.029 29.5634 190.269 29.5634 190.568C29.5634 190.803 29.6487 191 29.8194 191.16C29.99 191.32 30.198 191.448 30.4434 191.544C30.6887 191.629 31.0514 191.741 31.5314 191.88C32.1714 192.051 32.694 192.227 33.0994 192.408C33.5154 192.579 33.8727 192.835 34.1714 193.176C34.47 193.517 34.6247 193.971 34.6354 194.536C34.6354 195.037 34.4967 195.485 34.2194 195.88C33.942 196.275 33.5474 196.584 33.0354 196.808C32.534 197.032 31.942 197.144 31.2594 197.144ZM40.4303 197.144C39.5983 197.144 38.8463 196.957 38.1743 196.584C37.5023 196.2 36.9743 195.667 36.5903 194.984C36.2063 194.291 36.0143 193.491 36.0143 192.584C36.0143 191.688 36.2116 190.893 36.6063 190.2C37.0009 189.507 37.5396 188.973 38.2223 188.6C38.9049 188.227 39.6676 188.04 40.5103 188.04C41.3529 188.04 42.1156 188.227 42.7983 188.6C43.4809 188.973 44.0196 189.507 44.4143 190.2C44.8089 190.893 45.0063 191.688 45.0063 192.584C45.0063 193.48 44.8036 194.275 44.3983 194.968C43.9929 195.661 43.4383 196.2 42.7343 196.584C42.0409 196.957 41.2729 197.144 40.4303 197.144ZM40.4303 195.56C40.8996 195.56 41.3369 195.448 41.7423 195.224C42.1583 195 42.4943 194.664 42.7503 194.216C43.0063 193.768 43.1343 193.224 43.1343 192.584C43.1343 191.944 43.0116 191.405 42.7663 190.968C42.5209 190.52 42.1956 190.184 41.7903 189.96C41.3849 189.736 40.9476 189.624 40.4783 189.624C40.0089 189.624 39.5716 189.736 39.1663 189.96C38.7716 190.184 38.4569 190.52 38.2223 190.968C37.9876 191.405 37.8703 191.944 37.8703 192.584C37.8703 193.533 38.1103 194.269 38.5903 194.792C39.0809 195.304 39.6943 195.56 40.4303 195.56ZM51.2574 188.04C51.9507 188.04 52.5694 188.184 53.1134 188.472C53.668 188.76 54.1 189.187 54.4094 189.752C54.7187 190.317 54.8734 191 54.8734 191.8V197H53.0654V192.072C53.0654 191.283 52.868 190.68 52.4734 190.264C52.0787 189.837 51.54 189.624 50.8574 189.624C50.1747 189.624 49.6307 189.837 49.2254 190.264C48.8307 190.68 48.6334 191.283 48.6334 192.072V197H46.8094V188.184H48.6334V189.192C48.932 188.829 49.3107 188.547 49.7694 188.344C50.2387 188.141 50.7347 188.04 51.2574 188.04ZM57.936 197.112C57.6053 197.112 57.328 197 57.104 196.776C56.88 196.552 56.768 196.275 56.768 195.944C56.768 195.613 56.88 195.336 57.104 195.112C57.328 194.888 57.6053 194.776 57.936 194.776C58.256 194.776 58.528 194.888 58.752 195.112C58.976 195.336 59.088 195.613 59.088 195.944C59.088 196.275 58.976 196.552 58.752 196.776C58.528 197 58.256 197.112 57.936 197.112Z" fill="#544837"/>
<path d="M11 88.644V91.13H4.598V95.068H9.504V97.51H4.598V104H1.518V88.644H11ZM14.746 90.36C14.2033 90.36 13.7487 90.1913 13.382 89.854C13.03 89.502 12.854 89.0693 12.854 88.556C12.854 88.0427 13.03 87.6173 13.382 87.28C13.7487 86.928 14.2033 86.752 14.746 86.752C15.2887 86.752 15.736 86.928 16.088 87.28C16.4547 87.6173 16.638 88.0427 16.638 88.556C16.638 89.0693 16.4547 89.502 16.088 89.854C15.736 90.1913 15.2887 90.36 14.746 90.36ZM16.264 91.812V104H13.184V91.812H16.264ZM24.3891 101.162L27.4691 91.812H30.7471L26.2371 104H22.4971L18.0091 91.812H21.3091L24.3891 101.162ZM43.807 97.642C43.807 98.082 43.7777 98.478 43.719 98.83H34.809C34.8823 99.71 35.1903 100.399 35.733 100.898C36.2757 101.397 36.943 101.646 37.735 101.646C38.879 101.646 39.693 101.155 40.177 100.172H43.499C43.147 101.345 42.4723 102.313 41.475 103.076C40.4777 103.824 39.253 104.198 37.801 104.198C36.6277 104.198 35.5717 103.941 34.633 103.428C33.709 102.9 32.983 102.159 32.455 101.206C31.9417 100.253 31.685 99.1527 31.685 97.906C31.685 96.6447 31.9417 95.5373 32.455 94.584C32.9683 93.6307 33.687 92.8973 34.611 92.384C35.535 91.8707 36.5983 91.614 37.801 91.614C38.9597 91.614 39.9937 91.8633 40.903 92.362C41.827 92.8607 42.5383 93.572 43.037 94.496C43.5503 95.4053 43.807 96.454 43.807 97.642ZM40.617 96.762C40.6023 95.97 40.3163 95.3393 39.759 94.87C39.2017 94.386 38.5197 94.144 37.713 94.144C36.9503 94.144 36.305 94.3787 35.777 94.848C35.2637 95.3027 34.9483 95.9407 34.831 96.762H40.617ZM55.9613 104.198C54.964 104.198 54.0693 104.022 53.2773 103.67C52.4853 103.303 51.8546 102.812 51.3853 102.196C50.9306 101.58 50.6813 100.898 50.6373 100.15H53.7393C53.798 100.619 54.0253 101.008 54.4213 101.316C54.832 101.624 55.338 101.778 55.9393 101.778C56.526 101.778 56.9806 101.661 57.3033 101.426C57.6406 101.191 57.8093 100.891 57.8093 100.524C57.8093 100.128 57.604 99.8347 57.1933 99.644C56.7973 99.4387 56.1593 99.2187 55.2793 98.984C54.37 98.764 53.622 98.5367 53.0353 98.302C52.4633 98.0673 51.9646 97.708 51.5393 97.224C51.1286 96.74 50.9233 96.0873 50.9233 95.266C50.9233 94.5913 51.114 93.9753 51.4953 93.418C51.8913 92.8607 52.4486 92.4207 53.1673 92.098C53.9006 91.7753 54.7586 91.614 55.7413 91.614C57.1933 91.614 58.352 91.9807 59.2173 92.714C60.0826 93.4327 60.5593 94.408 60.6473 95.64H57.6993C57.6553 95.156 57.45 94.7747 57.0833 94.496C56.7313 94.2027 56.2546 94.056 55.6533 94.056C55.096 94.056 54.6633 94.1587 54.3553 94.364C54.062 94.5693 53.9153 94.8553 53.9153 95.222C53.9153 95.6327 54.1206 95.948 54.5313 96.168C54.942 96.3733 55.58 96.586 56.4453 96.806C57.3253 97.026 58.0513 97.2533 58.6233 97.488C59.1953 97.7227 59.6866 98.0893 60.0973 98.588C60.5226 99.072 60.7426 99.7173 60.7573 100.524C60.7573 101.228 60.5593 101.859 60.1633 102.416C59.782 102.973 59.2246 103.413 58.4913 103.736C57.7726 104.044 56.9293 104.198 55.9613 104.198ZM74.6156 97.642C74.6156 98.082 74.5862 98.478 74.5276 98.83H65.6176C65.6909 99.71 65.9989 100.399 66.5416 100.898C67.0842 101.397 67.7516 101.646 68.5436 101.646C69.6876 101.646 70.5016 101.155 70.9856 100.172H74.3076C73.9556 101.345 73.2809 102.313 72.2836 103.076C71.2862 103.824 70.0616 104.198 68.6096 104.198C67.4362 104.198 66.3802 103.941 65.4416 103.428C64.5176 102.9 63.7916 102.159 63.2636 101.206C62.7502 100.253 62.4936 99.1527 62.4936 97.906C62.4936 96.6447 62.7502 95.5373 63.2636 94.584C63.7769 93.6307 64.4956 92.8973 65.4196 92.384C66.3436 91.8707 67.4069 91.614 68.6096 91.614C69.7682 91.614 70.8022 91.8633 71.7116 92.362C72.6356 92.8607 73.3469 93.572 73.8456 94.496C74.3589 95.4053 74.6156 96.454 74.6156 97.642ZM71.4256 96.762C71.4109 95.97 71.1249 95.3393 70.5676 94.87C70.0102 94.386 69.3282 94.144 68.5216 94.144C67.7589 94.144 67.1136 94.3787 66.5856 94.848C66.0722 95.3027 65.7569 95.9407 65.6396 96.762H71.4256ZM76.0717 97.906C76.0717 96.6447 76.3284 95.5447 76.8417 94.606C77.355 93.6527 78.0664 92.9193 78.9757 92.406C79.885 91.878 80.9264 91.614 82.0997 91.614C83.6104 91.614 84.857 91.9953 85.8397 92.758C86.837 93.506 87.5044 94.562 87.8417 95.926H84.5197C84.3437 95.398 84.043 94.9873 83.6177 94.694C83.207 94.386 82.6937 94.232 82.0777 94.232C81.1977 94.232 80.501 94.5547 79.9877 95.2C79.4744 95.8307 79.2177 96.7327 79.2177 97.906C79.2177 99.0647 79.4744 99.9667 79.9877 100.612C80.501 101.243 81.1977 101.558 82.0777 101.558C83.3244 101.558 84.1384 101.001 84.5197 99.886H87.8417C87.5044 101.206 86.837 102.255 85.8397 103.032C84.8424 103.809 83.5957 104.198 82.0997 104.198C80.9264 104.198 79.885 103.941 78.9757 103.428C78.0664 102.9 77.355 102.167 76.8417 101.228C76.3284 100.275 76.0717 99.1673 76.0717 97.906ZM95.5101 104.198C94.3367 104.198 93.2807 103.941 92.3421 103.428C91.4034 102.9 90.6627 102.159 90.1201 101.206C89.5921 100.253 89.3281 99.1527 89.3281 97.906C89.3281 96.6593 89.5994 95.5593 90.1421 94.606C90.6994 93.6527 91.4547 92.9193 92.4081 92.406C93.3614 91.878 94.4247 91.614 95.5981 91.614C96.7714 91.614 97.8347 91.878 98.7881 92.406C99.7414 92.9193 100.489 93.6527 101.032 94.606C101.589 95.5593 101.868 96.6593 101.868 97.906C101.868 99.1527 101.582 100.253 101.01 101.206C100.453 102.159 99.6901 102.9 98.7221 103.428C97.7687 103.941 96.6981 104.198 95.5101 104.198ZM95.5101 101.514C96.0674 101.514 96.5881 101.382 97.0721 101.118C97.5707 100.839 97.9667 100.429 98.2601 99.886C98.5534 99.3433 98.7001 98.6833 98.7001 97.906C98.7001 96.7473 98.3921 95.86 97.7761 95.244C97.1747 94.6133 96.4341 94.298 95.5541 94.298C94.6741 94.298 93.9334 94.6133 93.3321 95.244C92.7454 95.86 92.4521 96.7473 92.4521 97.906C92.4521 99.0647 92.7381 99.9593 93.3101 100.59C93.8967 101.206 94.6301 101.514 95.5101 101.514ZM110.881 91.636C112.333 91.636 113.507 92.098 114.401 93.022C115.296 93.9313 115.743 95.2073 115.743 96.85V104H112.663V97.268C112.663 96.3 112.421 95.5593 111.937 95.046C111.453 94.518 110.793 94.254 109.957 94.254C109.107 94.254 108.432 94.518 107.933 95.046C107.449 95.5593 107.207 96.3 107.207 97.268V104H104.127V91.812H107.207V93.33C107.618 92.802 108.139 92.3913 108.769 92.098C109.415 91.79 110.119 91.636 110.881 91.636ZM117.88 97.862C117.88 96.63 118.122 95.5373 118.606 94.584C119.105 93.6307 119.78 92.8973 120.63 92.384C121.481 91.8707 122.427 91.614 123.468 91.614C124.26 91.614 125.016 91.79 125.734 92.142C126.453 92.4793 127.025 92.934 127.45 93.506V87.72H130.574V104H127.45V102.196C127.069 102.797 126.534 103.281 125.844 103.648C125.155 104.015 124.356 104.198 123.446 104.198C122.42 104.198 121.481 103.934 120.63 103.406C119.78 102.878 119.105 102.137 118.606 101.184C118.122 100.216 117.88 99.1087 117.88 97.862ZM127.472 97.906C127.472 97.158 127.326 96.52 127.032 95.992C126.739 95.4493 126.343 95.0387 125.844 94.76C125.346 94.4667 124.81 94.32 124.238 94.32C123.666 94.32 123.138 94.4593 122.654 94.738C122.17 95.0167 121.774 95.4273 121.466 95.97C121.173 96.498 121.026 97.1287 121.026 97.862C121.026 98.5953 121.173 99.2407 121.466 99.798C121.774 100.341 122.17 100.759 122.654 101.052C123.153 101.345 123.681 101.492 124.238 101.492C124.81 101.492 125.346 101.353 125.844 101.074C126.343 100.781 126.739 100.37 127.032 99.842C127.326 99.2993 127.472 98.654 127.472 97.906ZM142.411 94.342V100.238C142.411 100.649 142.506 100.949 142.697 101.14C142.902 101.316 143.239 101.404 143.709 101.404H145.139V104H143.203C140.607 104 139.309 102.739 139.309 100.216V94.342H137.857V91.812H139.309V88.798H142.411V91.812H145.139V94.342H142.411ZM158.684 97.642C158.684 98.082 158.655 98.478 158.596 98.83H149.686C149.759 99.71 150.067 100.399 150.61 100.898C151.153 101.397 151.82 101.646 152.612 101.646C153.756 101.646 154.57 101.155 155.054 100.172H158.376C158.024 101.345 157.349 102.313 156.352 103.076C155.355 103.824 154.13 104.198 152.678 104.198C151.505 104.198 150.449 103.941 149.51 103.428C148.586 102.9 147.86 102.159 147.332 101.206C146.819 100.253 146.562 99.1527 146.562 97.906C146.562 96.6447 146.819 95.5373 147.332 94.584C147.845 93.6307 148.564 92.8973 149.488 92.384C150.412 91.8707 151.475 91.614 152.678 91.614C153.837 91.614 154.871 91.8633 155.78 92.362C156.704 92.8607 157.415 93.572 157.914 94.496C158.427 95.4053 158.684 96.454 158.684 97.642ZM155.494 96.762C155.479 95.97 155.193 95.3393 154.636 94.87C154.079 94.386 153.397 94.144 152.59 94.144C151.827 94.144 151.182 94.3787 150.654 94.848C150.141 95.3027 149.825 95.9407 149.708 96.762H155.494ZM165.596 104.198C164.599 104.198 163.704 104.022 162.912 103.67C162.12 103.303 161.489 102.812 161.02 102.196C160.565 101.58 160.316 100.898 160.272 100.15H163.374C163.433 100.619 163.66 101.008 164.056 101.316C164.467 101.624 164.973 101.778 165.574 101.778C166.161 101.778 166.615 101.661 166.938 101.426C167.275 101.191 167.444 100.891 167.444 100.524C167.444 100.128 167.239 99.8347 166.828 99.644C166.432 99.4387 165.794 99.2187 164.914 98.984C164.005 98.764 163.257 98.5367 162.67 98.302C162.098 98.0673 161.599 97.708 161.174 97.224C160.763 96.74 160.558 96.0873 160.558 95.266C160.558 94.5913 160.749 93.9753 161.13 93.418C161.526 92.8607 162.083 92.4207 162.802 92.098C163.535 91.7753 164.393 91.614 165.376 91.614C166.828 91.614 167.987 91.9807 168.852 92.714C169.717 93.4327 170.194 94.408 170.282 95.64H167.334C167.29 95.156 167.085 94.7747 166.718 94.496C166.366 94.2027 165.889 94.056 165.288 94.056C164.731 94.056 164.298 94.1587 163.99 94.364C163.697 94.5693 163.55 94.8553 163.55 95.222C163.55 95.6327 163.755 95.948 164.166 96.168C164.577 96.3733 165.215 96.586 166.08 96.806C166.96 97.026 167.686 97.2533 168.258 97.488C168.83 97.7227 169.321 98.0893 169.732 98.588C170.157 99.072 170.377 99.7173 170.392 100.524C170.392 101.228 170.194 101.859 169.798 102.416C169.417 102.973 168.859 103.413 168.126 103.736C167.407 104.044 166.564 104.198 165.596 104.198ZM176.506 94.342V100.238C176.506 100.649 176.602 100.949 176.792 101.14C176.998 101.316 177.335 101.404 177.804 101.404H179.234V104H177.298C174.702 104 173.404 102.739 173.404 100.216V94.342H171.952V91.812H173.404V88.798H176.506V91.812H179.234V94.342H176.506ZM186.114 104.198C185.116 104.198 184.222 104.022 183.43 103.67C182.638 103.303 182.007 102.812 181.538 102.196C181.083 101.58 180.834 100.898 180.79 100.15H183.892C183.95 100.619 184.178 101.008 184.574 101.316C184.984 101.624 185.49 101.778 186.092 101.778C186.678 101.778 187.133 101.661 187.456 101.426C187.793 101.191 187.962 100.891 187.962 100.524C187.962 100.128 187.756 99.8347 187.346 99.644C186.95 99.4387 186.312 99.2187 185.432 98.984C184.522 98.764 183.774 98.5367 183.188 98.302C182.616 98.0673 182.117 97.708 181.692 97.224C181.281 96.74 181.076 96.0873 181.076 95.266C181.076 94.5913 181.266 93.9753 181.648 93.418C182.044 92.8607 182.601 92.4207 183.32 92.098C184.053 91.7753 184.911 91.614 185.894 91.614C187.346 91.614 188.504 91.9807 189.37 92.714C190.235 93.4327 190.712 94.408 190.8 95.64H187.852C187.808 95.156 187.602 94.7747 187.236 94.496C186.884 94.2027 186.407 94.056 185.806 94.056C185.248 94.056 184.816 94.1587 184.508 94.364C184.214 94.5693 184.068 94.8553 184.068 95.222C184.068 95.6327 184.273 95.948 184.684 96.168C185.094 96.3733 185.732 96.586 186.598 96.806C187.478 97.026 188.204 97.2533 188.776 97.488C189.348 97.7227 189.839 98.0893 190.25 98.588C190.675 99.072 190.895 99.7173 190.91 100.524C190.91 101.228 190.712 101.859 190.316 102.416C189.934 102.973 189.377 103.413 188.644 103.736C187.925 104.044 187.082 104.198 186.114 104.198Z" fill="#2F281E"/>
</g>
<defs>
<filter id="filter0_f_0_564" x="-27.1828" y="-2.18282" width="104.366" height="79.3656" filterUnits="userSpaceOnUse" color-interpolation-filters="sRGB">
<feFlood flood-opacity="0" result="BackgroundImageFix"/>
<feBlend mode="normal" in="SourceGraphic" in2="BackgroundImageFix" result="shape"/>
<feGaussianBlur stdDeviation="13.5914" result="effect1_foregroundBlur_0_564"/>
</filter>
<clipPath id="clip0_0_564">
<rect width="50" height="50" fill="white"/>
</clipPath>
<clipPath id="clip1_0_564">
<rect width="240" height="124" fill="white" transform="translate(0 80)"/>
</clipPath>
</defs>
</svg>
