<svg width="240" height="178" viewBox="0 0 240 178" fill="none" xmlns="http://www.w3.org/2000/svg">
<g clip-path="url(#clip0_0_556)">
<g opacity="0.848005" filter="url(#filter0_f_0_556)">
<rect y="25" width="50" height="25" rx="12.5" fill="#F03E3D"/>
</g>
<rect width="50" height="50" rx="19" fill="#F03E3D"/>
<path d="M25 33.1429C25.1429 33.1429 25.2857 33.0893 25.3929 32.9821L30.9554 27.625C31.0357 27.5446 33 25.75 33 23.6071C33 20.9911 31.4018 19.4286 28.7321 19.4286C27.1696 19.4286 25.7054 20.6607 25 21.3571C24.2946 20.6607 22.8304 19.4286 21.2679 19.4286C18.5982 19.4286 17 20.9911 17 23.6071C17 25.75 18.9643 27.5446 19.0357 27.6071L24.6071 32.9821C24.7143 33.0893 24.8571 33.1429 25 33.1429Z" fill="white"/>
</g>
<g clip-path="url(#clip1_0_556)">
<path d="M8.384 133.88V135.368H5.424V145H3.6V135.368H0.624V133.88H8.384ZM14.7913 136.04C15.4633 136.04 16.0606 136.184 16.5833 136.472C17.1166 136.76 17.5326 137.187 17.8313 137.752C18.1406 138.317 18.2953 139 18.2953 139.8V145H16.4873V140.072C16.4873 139.283 16.2899 138.68 15.8953 138.264C15.5006 137.837 14.9619 137.624 14.2793 137.624C13.5966 137.624 13.0526 137.837 12.6473 138.264C12.2526 138.68 12.0553 139.283 12.0553 140.072V145H10.2313V133.16H12.0553V137.208C12.3646 136.835 12.7539 136.547 13.2233 136.344C13.7033 136.141 14.2259 136.04 14.7913 136.04ZM28.7019 140.376C28.7019 140.707 28.6805 141.005 28.6379 141.272H21.9019C21.9552 141.976 22.2165 142.541 22.6859 142.968C23.1552 143.395 23.7312 143.608 24.4139 143.608C25.3952 143.608 26.0885 143.197 26.4939 142.376H28.4619C28.1952 143.187 27.7099 143.853 27.0059 144.376C26.3125 144.888 25.4485 145.144 24.4139 145.144C23.5712 145.144 22.8139 144.957 22.1419 144.584C21.4805 144.2 20.9579 143.667 20.5739 142.984C20.2005 142.291 20.0139 141.491 20.0139 140.584C20.0139 139.677 20.1952 138.883 20.5579 138.2C20.9312 137.507 21.4485 136.973 22.1099 136.6C22.7819 136.227 23.5499 136.04 24.4139 136.04C25.2459 136.04 25.9872 136.221 26.6379 136.584C27.2885 136.947 27.7952 137.459 28.1579 138.12C28.5205 138.771 28.7019 139.523 28.7019 140.376ZM26.7979 139.8C26.7872 139.128 26.5472 138.589 26.0779 138.184C25.6085 137.779 25.0272 137.576 24.3339 137.576C23.7045 137.576 23.1659 137.779 22.7179 138.184C22.2699 138.579 22.0032 139.117 21.9179 139.8H26.7979ZM46.3651 133.88V145H44.5411V137.384L41.1491 145H39.8851L36.4771 137.384V145H34.6531V133.88H36.6211L40.5251 142.6L44.4131 133.88H46.3651ZM56.6985 136.184L51.2905 149.144H49.4025L51.1945 144.856L47.7225 136.184H49.7545L52.2345 142.904L54.8105 136.184H56.6985ZM61.275 145.144C60.5817 145.144 59.9577 145.021 59.403 144.776C58.859 144.52 58.427 144.179 58.107 143.752C57.787 143.315 57.6163 142.829 57.595 142.296H59.483C59.515 142.669 59.691 142.984 60.011 143.24C60.3417 143.485 60.7523 143.608 61.243 143.608C61.755 143.608 62.1497 143.512 62.427 143.32C62.715 143.117 62.859 142.861 62.859 142.552C62.859 142.221 62.699 141.976 62.379 141.816C62.0697 141.656 61.5737 141.48 60.891 141.288C60.2297 141.107 59.691 140.931 59.275 140.76C58.859 140.589 58.4963 140.328 58.187 139.976C57.8883 139.624 57.739 139.16 57.739 138.584C57.739 138.115 57.8777 137.688 58.155 137.304C58.4323 136.909 58.827 136.6 59.339 136.376C59.8617 136.152 60.459 136.04 61.131 136.04C62.1337 136.04 62.939 136.296 63.547 136.808C64.1657 137.309 64.4963 137.997 64.539 138.872H62.715C62.683 138.477 62.523 138.163 62.235 137.928C61.947 137.693 61.5577 137.576 61.067 137.576C60.587 137.576 60.219 137.667 59.963 137.848C59.707 138.029 59.579 138.269 59.579 138.568C59.579 138.803 59.6643 139 59.835 139.16C60.0057 139.32 60.2137 139.448 60.459 139.544C60.7043 139.629 61.067 139.741 61.547 139.88C62.187 140.051 62.7097 140.227 63.115 140.408C63.531 140.579 63.8883 140.835 64.187 141.176C64.4857 141.517 64.6403 141.971 64.651 142.536C64.651 143.037 64.5123 143.485 64.235 143.88C63.9577 144.275 63.563 144.584 63.051 144.808C62.5497 145.032 61.9577 145.144 61.275 145.144ZM68.4459 137.48C68.7552 137.075 69.1765 136.733 69.7099 136.456C70.2432 136.179 70.8459 136.04 71.5179 136.04C72.2859 136.04 72.9845 136.232 73.6139 136.616C74.2539 136.989 74.7552 137.517 75.1179 138.2C75.4805 138.883 75.6619 139.667 75.6619 140.552C75.6619 141.437 75.4805 142.232 75.1179 142.936C74.7552 143.629 74.2539 144.173 73.6139 144.568C72.9845 144.952 72.2859 145.144 71.5179 145.144C70.8459 145.144 70.2485 145.011 69.7259 144.744C69.2032 144.467 68.7765 144.125 68.4459 143.72V149.192H66.6219V136.184H68.4459V137.48ZM73.8059 140.552C73.8059 139.944 73.6779 139.421 73.4219 138.984C73.1765 138.536 72.8459 138.2 72.4299 137.976C72.0245 137.741 71.5872 137.624 71.1179 137.624C70.6592 137.624 70.2219 137.741 69.8059 137.976C69.4005 138.211 69.0699 138.552 68.8139 139C68.5685 139.448 68.4459 139.976 68.4459 140.584C68.4459 141.192 68.5685 141.725 68.8139 142.184C69.0699 142.632 69.4005 142.973 69.8059 143.208C70.2219 143.443 70.6592 143.56 71.1179 143.56C71.5872 143.56 72.0245 143.443 72.4299 143.208C72.8459 142.963 73.1765 142.611 73.4219 142.152C73.6779 141.693 73.8059 141.16 73.8059 140.552ZM76.8576 140.552C76.8576 139.667 77.039 138.883 77.4016 138.2C77.775 137.517 78.2763 136.989 78.9056 136.616C79.5456 136.232 80.2496 136.04 81.0176 136.04C81.711 136.04 82.3136 136.179 82.8256 136.456C83.3483 136.723 83.7643 137.059 84.0736 137.464V136.184H85.9136V145H84.0736V143.688C83.7643 144.104 83.343 144.451 82.8096 144.728C82.2763 145.005 81.6683 145.144 80.9856 145.144C80.2283 145.144 79.535 144.952 78.9056 144.568C78.2763 144.173 77.775 143.629 77.4016 142.936C77.039 142.232 76.8576 141.437 76.8576 140.552ZM84.0736 140.584C84.0736 139.976 83.9456 139.448 83.6896 139C83.4443 138.552 83.119 138.211 82.7136 137.976C82.3083 137.741 81.871 137.624 81.4016 137.624C80.9323 137.624 80.495 137.741 80.0896 137.976C79.6843 138.2 79.3536 138.536 79.0976 138.984C78.8523 139.421 78.7296 139.944 78.7296 140.552C78.7296 141.16 78.8523 141.693 79.0976 142.152C79.3536 142.611 79.6843 142.963 80.0896 143.208C80.5056 143.443 80.943 143.56 81.4016 143.56C81.871 143.56 82.3083 143.443 82.7136 143.208C83.119 142.973 83.4443 142.632 83.6896 142.184C83.9456 141.725 84.0736 141.192 84.0736 140.584ZM87.7014 140.584C87.7014 139.677 87.8827 138.883 88.2454 138.2C88.6187 137.507 89.1307 136.973 89.7814 136.6C90.432 136.227 91.1787 136.04 92.0214 136.04C93.088 136.04 93.968 136.296 94.6614 136.808C95.3654 137.309 95.84 138.029 96.0854 138.968H94.1174C93.9574 138.531 93.7014 138.189 93.3494 137.944C92.9974 137.699 92.5547 137.576 92.0214 137.576C91.2747 137.576 90.6774 137.843 90.2294 138.376C89.792 138.899 89.5734 139.635 89.5734 140.584C89.5734 141.533 89.792 142.275 90.2294 142.808C90.6774 143.341 91.2747 143.608 92.0214 143.608C93.0774 143.608 93.776 143.144 94.1174 142.216H96.0854C95.8294 143.112 95.3494 143.827 94.6454 144.36C93.9414 144.883 93.0667 145.144 92.0214 145.144C91.1787 145.144 90.432 144.957 89.7814 144.584C89.1307 144.2 88.6187 143.667 88.2454 142.984C87.8827 142.291 87.7014 141.491 87.7014 140.584ZM105.983 140.376C105.983 140.707 105.962 141.005 105.919 141.272H99.1831C99.2365 141.976 99.4978 142.541 99.9671 142.968C100.436 143.395 101.012 143.608 101.695 143.608C102.676 143.608 103.37 143.197 103.775 142.376H105.743C105.476 143.187 104.991 143.853 104.287 144.376C103.594 144.888 102.73 145.144 101.695 145.144C100.852 145.144 100.095 144.957 99.4231 144.584C98.7618 144.2 98.2391 143.667 97.8551 142.984C97.4818 142.291 97.2951 141.491 97.2951 140.584C97.2951 139.677 97.4765 138.883 97.8391 138.2C98.2125 137.507 98.7298 136.973 99.3911 136.6C100.063 136.227 100.831 136.04 101.695 136.04C102.527 136.04 103.268 136.221 103.919 136.584C104.57 136.947 105.076 137.459 105.439 138.12C105.802 138.771 105.983 139.523 105.983 140.376ZM104.079 139.8C104.068 139.128 103.828 138.589 103.359 138.184C102.89 137.779 102.308 137.576 101.615 137.576C100.986 137.576 100.447 137.779 99.9991 138.184C99.5511 138.579 99.2845 139.117 99.1991 139.8H104.079ZM113.758 137.48C114.068 137.075 114.489 136.733 115.022 136.456C115.556 136.179 116.158 136.04 116.83 136.04C117.598 136.04 118.297 136.232 118.926 136.616C119.566 136.989 120.068 137.517 120.43 138.2C120.793 138.883 120.974 139.667 120.974 140.552C120.974 141.437 120.793 142.232 120.43 142.936C120.068 143.629 119.566 144.173 118.926 144.568C118.297 144.952 117.598 145.144 116.83 145.144C116.158 145.144 115.561 145.011 115.038 144.744C114.516 144.467 114.089 144.125 113.758 143.72V149.192H111.934V136.184H113.758V137.48ZM119.118 140.552C119.118 139.944 118.99 139.421 118.734 138.984C118.489 138.536 118.158 138.2 117.742 137.976C117.337 137.741 116.9 137.624 116.43 137.624C115.972 137.624 115.534 137.741 115.118 137.976C114.713 138.211 114.382 138.552 114.126 139C113.881 139.448 113.758 139.976 113.758 140.584C113.758 141.192 113.881 141.725 114.126 142.184C114.382 142.632 114.713 142.973 115.118 143.208C115.534 143.443 115.972 143.56 116.43 143.56C116.9 143.56 117.337 143.443 117.742 143.208C118.158 142.963 118.489 142.611 118.734 142.152C118.99 141.693 119.118 141.16 119.118 140.552ZM122.17 140.552C122.17 139.667 122.351 138.883 122.714 138.2C123.087 137.517 123.589 136.989 124.218 136.616C124.858 136.232 125.562 136.04 126.33 136.04C127.023 136.04 127.626 136.179 128.138 136.456C128.661 136.723 129.077 137.059 129.386 137.464V136.184H131.226V145H129.386V143.688C129.077 144.104 128.655 144.451 128.122 144.728C127.589 145.005 126.981 145.144 126.298 145.144C125.541 145.144 124.847 144.952 124.218 144.568C123.589 144.173 123.087 143.629 122.714 142.936C122.351 142.232 122.17 141.437 122.17 140.552ZM129.386 140.584C129.386 139.976 129.258 139.448 129.002 139C128.757 138.552 128.431 138.211 128.026 137.976C127.621 137.741 127.183 137.624 126.714 137.624C126.245 137.624 125.807 137.741 125.402 137.976C124.997 138.2 124.666 138.536 124.41 138.984C124.165 139.421 124.042 139.944 124.042 140.552C124.042 141.16 124.165 141.693 124.41 142.152C124.666 142.611 124.997 142.963 125.402 143.208C125.818 143.443 126.255 143.56 126.714 143.56C127.183 143.56 127.621 143.443 128.026 143.208C128.431 142.973 128.757 142.632 129.002 142.184C129.258 141.725 129.386 141.192 129.386 140.584ZM137.174 136.04C137.857 136.04 138.459 136.179 138.982 136.456C139.515 136.723 139.931 137.059 140.23 137.464V136.184H142.07V145.144C142.07 145.955 141.899 146.675 141.558 147.304C141.217 147.944 140.721 148.445 140.07 148.808C139.43 149.171 138.662 149.352 137.766 149.352C136.571 149.352 135.579 149.069 134.79 148.504C134.001 147.949 133.553 147.192 133.446 146.232H135.254C135.393 146.691 135.686 147.059 136.134 147.336C136.593 147.624 137.137 147.768 137.766 147.768C138.502 147.768 139.094 147.544 139.542 147.096C140.001 146.648 140.23 145.997 140.23 145.144V143.672C139.921 144.088 139.499 144.44 138.966 144.728C138.443 145.005 137.846 145.144 137.174 145.144C136.406 145.144 135.702 144.952 135.062 144.568C134.433 144.173 133.931 143.629 133.558 142.936C133.195 142.232 133.014 141.437 133.014 140.552C133.014 139.667 133.195 138.883 133.558 138.2C133.931 137.517 134.433 136.989 135.062 136.616C135.702 136.232 136.406 136.04 137.174 136.04ZM140.23 140.584C140.23 139.976 140.102 139.448 139.846 139C139.601 138.552 139.275 138.211 138.87 137.976C138.465 137.741 138.027 137.624 137.558 137.624C137.089 137.624 136.651 137.741 136.246 137.976C135.841 138.2 135.51 138.536 135.254 138.984C135.009 139.421 134.886 139.944 134.886 140.552C134.886 141.16 135.009 141.693 135.254 142.152C135.51 142.611 135.841 142.963 136.246 143.208C136.662 143.443 137.099 143.56 137.558 143.56C138.027 143.56 138.465 143.443 138.87 143.208C139.275 142.973 139.601 142.632 139.846 142.184C140.102 141.725 140.23 141.192 140.23 140.584ZM152.546 140.376C152.546 140.707 152.524 141.005 152.482 141.272H145.746C145.799 141.976 146.06 142.541 146.53 142.968C146.999 143.395 147.575 143.608 148.258 143.608C149.239 143.608 149.932 143.197 150.338 142.376H152.306C152.039 143.187 151.554 143.853 150.85 144.376C150.156 144.888 149.292 145.144 148.258 145.144C147.415 145.144 146.658 144.957 145.986 144.584C145.324 144.2 144.802 143.667 144.418 142.984C144.044 142.291 143.858 141.491 143.858 140.584C143.858 139.677 144.039 138.883 144.402 138.2C144.775 137.507 145.292 136.973 145.954 136.6C146.626 136.227 147.394 136.04 148.258 136.04C149.09 136.04 149.831 136.221 150.482 136.584C151.132 136.947 151.639 137.459 152.002 138.12C152.364 138.771 152.546 139.523 152.546 140.376ZM150.642 139.8C150.631 139.128 150.391 138.589 149.922 138.184C149.452 137.779 148.871 137.576 148.178 137.576C147.548 137.576 147.01 137.779 146.562 138.184C146.114 138.579 145.847 139.117 145.762 139.8H150.642ZM157.889 140.552C157.889 139.667 158.07 138.883 158.433 138.2C158.806 137.517 159.308 136.989 159.937 136.616C160.577 136.232 161.286 136.04 162.065 136.04C162.641 136.04 163.206 136.168 163.761 136.424C164.326 136.669 164.774 137 165.105 137.416V133.16H166.945V145H165.105V143.672C164.806 144.099 164.39 144.451 163.857 144.728C163.334 145.005 162.732 145.144 162.049 145.144C161.281 145.144 160.577 144.952 159.937 144.568C159.308 144.173 158.806 143.629 158.433 142.936C158.07 142.232 157.889 141.437 157.889 140.552ZM165.105 140.584C165.105 139.976 164.977 139.448 164.721 139C164.476 138.552 164.15 138.211 163.745 137.976C163.34 137.741 162.902 137.624 162.433 137.624C161.964 137.624 161.526 137.741 161.121 137.976C160.716 138.2 160.385 138.536 160.129 138.984C159.884 139.421 159.761 139.944 159.761 140.552C159.761 141.16 159.884 141.693 160.129 142.152C160.385 142.611 160.716 142.963 161.121 143.208C161.537 143.443 161.974 143.56 162.433 143.56C162.902 143.56 163.34 143.443 163.745 143.208C164.15 142.973 164.476 142.632 164.721 142.184C164.977 141.725 165.105 141.192 165.105 140.584ZM177.421 140.376C177.421 140.707 177.399 141.005 177.357 141.272H170.621C170.674 141.976 170.935 142.541 171.405 142.968C171.874 143.395 172.45 143.608 173.133 143.608C174.114 143.608 174.807 143.197 175.213 142.376H177.181C176.914 143.187 176.429 143.853 175.725 144.376C175.031 144.888 174.167 145.144 173.133 145.144C172.29 145.144 171.533 144.957 170.861 144.584C170.199 144.2 169.677 143.667 169.293 142.984C168.919 142.291 168.733 141.491 168.733 140.584C168.733 139.677 168.914 138.883 169.277 138.2C169.65 137.507 170.167 136.973 170.829 136.6C171.501 136.227 172.269 136.04 173.133 136.04C173.965 136.04 174.706 136.221 175.357 136.584C176.007 136.947 176.514 137.459 176.877 138.12C177.239 138.771 177.421 139.523 177.421 140.376ZM175.517 139.8C175.506 139.128 175.266 138.589 174.797 138.184C174.327 137.779 173.746 137.576 173.053 137.576C172.423 137.576 171.885 137.779 171.437 138.184C170.989 138.579 170.722 139.117 170.637 139.8H175.517ZM182.912 137.672H181.28V145H179.44V137.672H178.4V136.184H179.44V135.56C179.44 134.547 179.706 133.811 180.24 133.352C180.784 132.883 181.632 132.648 182.784 132.648V134.168C182.229 134.168 181.84 134.275 181.616 134.488C181.392 134.691 181.28 135.048 181.28 135.56V136.184H182.912V137.672ZM185.456 135.016C185.125 135.016 184.848 134.904 184.624 134.68C184.4 134.456 184.288 134.179 184.288 133.848C184.288 133.517 184.4 133.24 184.624 133.016C184.848 132.792 185.125 132.68 185.456 132.68C185.776 132.68 186.048 132.792 186.272 133.016C186.496 133.24 186.608 133.517 186.608 133.848C186.608 134.179 186.496 134.456 186.272 134.68C186.048 134.904 185.776 135.016 185.456 135.016ZM186.352 136.184V145H184.528V136.184H186.352ZM193.195 136.04C193.888 136.04 194.507 136.184 195.051 136.472C195.606 136.76 196.038 137.187 196.347 137.752C196.656 138.317 196.811 139 196.811 139.8V145H195.003V140.072C195.003 139.283 194.806 138.68 194.411 138.264C194.016 137.837 193.478 137.624 192.795 137.624C192.112 137.624 191.568 137.837 191.163 138.264C190.768 138.68 190.571 139.283 190.571 140.072V145H188.747V136.184H190.571V137.192C190.87 136.829 191.248 136.547 191.707 136.344C192.176 136.141 192.672 136.04 193.195 136.04ZM207.218 140.376C207.218 140.707 207.196 141.005 207.154 141.272H200.418C200.471 141.976 200.732 142.541 201.202 142.968C201.671 143.395 202.247 143.608 202.93 143.608C203.911 143.608 204.604 143.197 205.01 142.376H206.977C206.711 143.187 206.226 143.853 205.522 144.376C204.828 144.888 203.964 145.144 202.93 145.144C202.087 145.144 201.33 144.957 200.658 144.584C199.996 144.2 199.474 143.667 199.09 142.984C198.716 142.291 198.53 141.491 198.53 140.584C198.53 139.677 198.711 138.883 199.074 138.2C199.447 137.507 199.964 136.973 200.626 136.6C201.298 136.227 202.066 136.04 202.93 136.04C203.762 136.04 204.503 136.221 205.154 136.584C205.804 136.947 206.311 137.459 206.674 138.12C207.036 138.771 207.218 139.523 207.218 140.376ZM205.314 139.8C205.303 139.128 205.063 138.589 204.594 138.184C204.124 137.779 203.543 137.576 202.85 137.576C202.22 137.576 201.682 137.779 201.234 138.184C200.786 138.579 200.519 139.117 200.434 139.8H205.314ZM212.213 145.144C211.519 145.144 210.895 145.021 210.341 144.776C209.797 144.52 209.365 144.179 209.045 143.752C208.725 143.315 208.554 142.829 208.533 142.296H210.421C210.453 142.669 210.629 142.984 210.949 143.24C211.279 143.485 211.69 143.608 212.181 143.608C212.693 143.608 213.087 143.512 213.365 143.32C213.653 143.117 213.797 142.861 213.797 142.552C213.797 142.221 213.637 141.976 213.317 141.816C213.007 141.656 212.511 141.48 211.829 141.288C211.167 141.107 210.629 140.931 210.213 140.76C209.797 140.589 209.434 140.328 209.125 139.976C208.826 139.624 208.677 139.16 208.677 138.584C208.677 138.115 208.815 137.688 209.093 137.304C209.37 136.909 209.765 136.6 210.277 136.376C210.799 136.152 211.397 136.04 212.069 136.04C213.071 136.04 213.877 136.296 214.485 136.808C215.103 137.309 215.434 137.997 215.477 138.872H213.653C213.621 138.477 213.461 138.163 213.173 137.928C212.885 137.693 212.495 137.576 212.005 137.576C211.525 137.576 211.157 137.667 210.901 137.848C210.645 138.029 210.517 138.269 210.517 138.568C210.517 138.803 210.602 139 210.773 139.16C210.943 139.32 211.151 139.448 211.397 139.544C211.642 139.629 212.005 139.741 212.485 139.88C213.125 140.051 213.647 140.227 214.053 140.408C214.469 140.579 214.826 140.835 215.125 141.176C215.423 141.517 215.578 141.971 215.589 142.536C215.589 143.037 215.45 143.485 215.173 143.88C214.895 144.275 214.501 144.584 213.989 144.808C213.487 145.032 212.895 145.144 212.213 145.144ZM3.328 163.672V168.552C3.328 168.883 3.40267 169.123 3.552 169.272C3.712 169.411 3.97867 169.48 4.352 169.48H5.472V171H4.032C3.21067 171 2.58133 170.808 2.144 170.424C1.70667 170.04 1.488 169.416 1.488 168.552V163.672H0.448V162.184H1.488V159.992H3.328V162.184H5.472V163.672H3.328ZM11.7131 162.04C12.3851 162.04 12.9825 162.184 13.5051 162.472C14.0385 162.76 14.4545 163.187 14.7531 163.752C15.0625 164.317 15.2171 165 15.2171 165.8V171H13.4091V166.072C13.4091 165.283 13.2118 164.68 12.8171 164.264C12.4225 163.837 11.8838 163.624 11.2011 163.624C10.5185 163.624 9.97446 163.837 9.56913 164.264C9.17446 164.68 8.97713 165.283 8.97713 166.072V171H7.15313V159.16H8.97713V163.208C9.28646 162.835 9.67579 162.547 10.1451 162.344C10.6251 162.141 11.1478 162.04 11.7131 162.04ZM25.6238 166.376C25.6238 166.707 25.6024 167.005 25.5598 167.272H18.8238C18.8771 167.976 19.1384 168.541 19.6078 168.968C20.0771 169.395 20.6531 169.608 21.3358 169.608C22.3171 169.608 23.0104 169.197 23.4158 168.376H25.3837C25.1171 169.187 24.6318 169.853 23.9278 170.376C23.2344 170.888 22.3704 171.144 21.3358 171.144C20.4931 171.144 19.7358 170.957 19.0638 170.584C18.4024 170.2 17.8798 169.667 17.4958 168.984C17.1224 168.291 16.9358 167.491 16.9358 166.584C16.9358 165.677 17.1171 164.883 17.4798 164.2C17.8531 163.507 18.3704 162.973 19.0318 162.6C19.7038 162.227 20.4718 162.04 21.3358 162.04C22.1678 162.04 22.9091 162.221 23.5598 162.584C24.2104 162.947 24.7171 163.459 25.0798 164.12C25.4424 164.771 25.6238 165.523 25.6238 166.376ZM23.7198 165.8C23.7091 165.128 23.4691 164.589 22.9998 164.184C22.5304 163.779 21.9491 163.576 21.2558 163.576C20.6264 163.576 20.0878 163.779 19.6398 164.184C19.1918 164.579 18.9251 165.117 18.8398 165.8H23.7198ZM32.503 161.016C32.1723 161.016 31.895 160.904 31.671 160.68C31.447 160.456 31.335 160.179 31.335 159.848C31.335 159.517 31.447 159.24 31.671 159.016C31.895 158.792 32.1723 158.68 32.503 158.68C32.823 158.68 33.095 158.792 33.319 159.016C33.543 159.24 33.655 159.517 33.655 159.848C33.655 160.179 33.543 160.456 33.319 160.68C33.095 160.904 32.823 161.016 32.503 161.016ZM33.399 162.184V171H31.575V162.184H33.399ZM40.2418 162.04C40.9351 162.04 41.5538 162.184 42.0978 162.472C42.6524 162.76 43.0844 163.187 43.3938 163.752C43.7031 164.317 43.8578 165 43.8578 165.8V171H42.0498V166.072C42.0498 165.283 41.8524 164.68 41.4578 164.264C41.0631 163.837 40.5244 163.624 39.8418 163.624C39.1591 163.624 38.6151 163.837 38.2098 164.264C37.8151 164.68 37.6178 165.283 37.6178 166.072V171H35.7938V162.184H37.6178V163.192C37.9164 162.829 38.2951 162.547 38.7538 162.344C39.2231 162.141 39.7191 162.04 40.2418 162.04ZM45.5764 166.552C45.5764 165.667 45.7577 164.883 46.1204 164.2C46.4937 163.517 46.995 162.989 47.6244 162.616C48.2644 162.232 48.9737 162.04 49.7524 162.04C50.3284 162.04 50.8937 162.168 51.4484 162.424C52.0137 162.669 52.4617 163 52.7924 163.416V159.16H54.6324V171H52.7924V169.672C52.4937 170.099 52.0777 170.451 51.5444 170.728C51.0217 171.005 50.419 171.144 49.7364 171.144C48.9684 171.144 48.2644 170.952 47.6244 170.568C46.995 170.173 46.4937 169.629 46.1204 168.936C45.7577 168.232 45.5764 167.437 45.5764 166.552ZM52.7924 166.584C52.7924 165.976 52.6644 165.448 52.4084 165C52.163 164.552 51.8377 164.211 51.4324 163.976C51.027 163.741 50.5897 163.624 50.1204 163.624C49.651 163.624 49.2137 163.741 48.8084 163.976C48.403 164.2 48.0724 164.536 47.8164 164.984C47.571 165.421 47.4484 165.944 47.4484 166.552C47.4484 167.16 47.571 167.693 47.8164 168.152C48.0724 168.611 48.403 168.963 48.8084 169.208C49.2244 169.443 49.6617 169.56 50.1204 169.56C50.5897 169.56 51.027 169.443 51.4324 169.208C51.8377 168.973 52.163 168.632 52.4084 168.184C52.6644 167.725 52.7924 167.192 52.7924 166.584ZM57.9561 161.016C57.6255 161.016 57.3481 160.904 57.1241 160.68C56.9001 160.456 56.7881 160.179 56.7881 159.848C56.7881 159.517 56.9001 159.24 57.1241 159.016C57.3481 158.792 57.6255 158.68 57.9561 158.68C58.2761 158.68 58.5481 158.792 58.7721 159.016C58.9961 159.24 59.1081 159.517 59.1081 159.848C59.1081 160.179 58.9961 160.456 58.7721 160.68C58.5481 160.904 58.2761 161.016 57.9561 161.016ZM58.8521 162.184V171H57.0281V162.184H58.8521ZM64.6549 169.368L67.1509 162.184H69.0869L65.7269 171H63.5509L60.2069 162.184H62.1589L64.6549 169.368ZM71.3936 161.016C71.063 161.016 70.7856 160.904 70.5616 160.68C70.3376 160.456 70.2256 160.179 70.2256 159.848C70.2256 159.517 70.3376 159.24 70.5616 159.016C70.7856 158.792 71.063 158.68 71.3936 158.68C71.7136 158.68 71.9856 158.792 72.2096 159.016C72.4336 159.24 72.5456 159.517 72.5456 159.848C72.5456 160.179 72.4336 160.456 72.2096 160.68C71.9856 160.904 71.7136 161.016 71.3936 161.016ZM72.2896 162.184V171H70.4656V162.184H72.2896ZM74.0764 166.552C74.0764 165.667 74.2577 164.883 74.6204 164.2C74.9937 163.517 75.495 162.989 76.1244 162.616C76.7644 162.232 77.4737 162.04 78.2524 162.04C78.8284 162.04 79.3937 162.168 79.9484 162.424C80.5137 162.669 80.9617 163 81.2924 163.416V159.16H83.1324V171H81.2924V169.672C80.9937 170.099 80.5777 170.451 80.0444 170.728C79.5217 171.005 78.919 171.144 78.2364 171.144C77.4684 171.144 76.7644 170.952 76.1244 170.568C75.495 170.173 74.9937 169.629 74.6204 168.936C74.2577 168.232 74.0764 167.437 74.0764 166.552ZM81.2924 166.584C81.2924 165.976 81.1644 165.448 80.9084 165C80.663 164.552 80.3377 164.211 79.9324 163.976C79.527 163.741 79.0897 163.624 78.6204 163.624C78.151 163.624 77.7137 163.741 77.3084 163.976C76.903 164.2 76.5724 164.536 76.3164 164.984C76.071 165.421 75.9484 165.944 75.9484 166.552C75.9484 167.16 76.071 167.693 76.3164 168.152C76.5724 168.611 76.903 168.963 77.3084 169.208C77.7244 169.443 78.1617 169.56 78.6204 169.56C79.0897 169.56 79.527 169.443 79.9324 169.208C80.3377 168.973 80.663 168.632 80.9084 168.184C81.1644 167.725 81.2924 167.192 81.2924 166.584ZM93.5121 162.184V171H91.6881V169.96C91.4001 170.323 91.0215 170.611 90.5521 170.824C90.0935 171.027 89.6028 171.128 89.0801 171.128C88.3868 171.128 87.7628 170.984 87.2081 170.696C86.6641 170.408 86.2321 169.981 85.9121 169.416C85.6028 168.851 85.4481 168.168 85.4481 167.368V162.184H87.2561V167.096C87.2561 167.885 87.4535 168.493 87.8481 168.92C88.2428 169.336 88.7815 169.544 89.4641 169.544C90.1468 169.544 90.6855 169.336 91.0801 168.92C91.4855 168.493 91.6881 167.885 91.6881 167.096V162.184H93.5121ZM95.3108 166.552C95.3108 165.667 95.4921 164.883 95.8548 164.2C96.2281 163.517 96.7294 162.989 97.3588 162.616C97.9988 162.232 98.7028 162.04 99.4708 162.04C100.164 162.04 100.767 162.179 101.279 162.456C101.801 162.723 102.217 163.059 102.527 163.464V162.184H104.367V171H102.527V169.688C102.217 170.104 101.796 170.451 101.263 170.728C100.729 171.005 100.121 171.144 99.4388 171.144C98.6814 171.144 97.9881 170.952 97.3588 170.568C96.7294 170.173 96.2281 169.629 95.8548 168.936C95.4921 168.232 95.3108 167.437 95.3108 166.552ZM102.527 166.584C102.527 165.976 102.399 165.448 102.143 165C101.897 164.552 101.572 164.211 101.167 163.976C100.761 163.741 100.324 163.624 99.8548 163.624C99.3854 163.624 98.9481 163.741 98.5428 163.976C98.1374 164.2 97.8068 164.536 97.5508 164.984C97.3054 165.421 97.1828 165.944 97.1828 166.552C97.1828 167.16 97.3054 167.693 97.5508 168.152C97.8068 168.611 98.1374 168.963 98.5428 169.208C98.9588 169.443 99.3961 169.56 99.8548 169.56C100.324 169.56 100.761 169.443 101.167 169.208C101.572 168.973 101.897 168.632 102.143 168.184C102.399 167.725 102.527 167.192 102.527 166.584ZM108.587 159.16V171H106.763V159.16H108.587ZM111.717 171.112C111.387 171.112 111.109 171 110.885 170.776C110.661 170.552 110.549 170.275 110.549 169.944C110.549 169.613 110.661 169.336 110.885 169.112C111.109 168.888 111.387 168.776 111.717 168.776C112.037 168.776 112.309 168.888 112.533 169.112C112.757 169.336 112.869 169.613 112.869 169.944C112.869 170.275 112.757 170.552 112.533 170.776C112.309 171 112.037 171.112 111.717 171.112Z" fill="#544837"/>
<path d="M12.716 93.396C12.716 94.2173 12.518 94.9873 12.122 95.706C11.7407 96.4247 11.132 97.004 10.296 97.444C9.47467 97.884 8.43333 98.104 7.172 98.104H4.598V104H1.518V88.644H7.172C8.36 88.644 9.372 88.8493 10.208 89.26C11.044 89.6707 11.6673 90.2353 12.078 90.954C12.5033 91.6727 12.716 92.4867 12.716 93.396ZM7.04 95.618C7.89067 95.618 8.52133 95.4273 8.932 95.046C9.34267 94.65 9.548 94.1 9.548 93.396C9.548 91.9 8.712 91.152 7.04 91.152H4.598V95.618H7.04ZM17.9828 93.704C18.3788 93.0587 18.8921 92.5527 19.5228 92.186C20.1681 91.8193 20.9014 91.636 21.7228 91.636V94.87H20.9088C19.9408 94.87 19.2074 95.0973 18.7088 95.552C18.2248 96.0067 17.9828 96.7987 17.9828 97.928V104H14.9028V91.812H17.9828V93.704ZM35.1273 97.642C35.1273 98.082 35.098 98.478 35.0393 98.83H26.1293C26.2026 99.71 26.5106 100.399 27.0533 100.898C27.596 101.397 28.2633 101.646 29.0553 101.646C30.1993 101.646 31.0133 101.155 31.4973 100.172H34.8193C34.4673 101.345 33.7926 102.313 32.7953 103.076C31.798 103.824 30.5733 104.198 29.1213 104.198C27.948 104.198 26.892 103.941 25.9533 103.428C25.0293 102.9 24.3033 102.159 23.7753 101.206C23.262 100.253 23.0053 99.1527 23.0053 97.906C23.0053 96.6447 23.262 95.5373 23.7753 94.584C24.2886 93.6307 25.0073 92.8973 25.9313 92.384C26.8553 91.8707 27.9186 91.614 29.1213 91.614C30.28 91.614 31.314 91.8633 32.2233 92.362C33.1473 92.8607 33.8586 93.572 34.3573 94.496C34.8706 95.4053 35.1273 96.454 35.1273 97.642ZM31.9373 96.762C31.9226 95.97 31.6366 95.3393 31.0793 94.87C30.522 94.386 29.84 94.144 29.0333 94.144C28.2706 94.144 27.6253 94.3787 27.0973 94.848C26.584 95.3027 26.2686 95.9407 26.1513 96.762H31.9373ZM42.9634 94.342H40.8294V104H37.7054V94.342H36.3194V91.812H37.7054V91.196C37.7054 89.7 38.1308 88.6 38.9814 87.896C39.8321 87.192 41.1154 86.862 42.8314 86.906V89.502C42.0834 89.4873 41.5628 89.612 41.2694 89.876C40.9761 90.14 40.8294 90.6167 40.8294 91.306V91.812H42.9634V94.342ZM56.2894 97.642C56.2894 98.082 56.2601 98.478 56.2014 98.83H47.2914C47.3647 99.71 47.6727 100.399 48.2154 100.898C48.7581 101.397 49.4254 101.646 50.2174 101.646C51.3614 101.646 52.1754 101.155 52.6594 100.172H55.9814C55.6294 101.345 54.9547 102.313 53.9574 103.076C52.9601 103.824 51.7354 104.198 50.2834 104.198C49.1101 104.198 48.0541 103.941 47.1154 103.428C46.1914 102.9 45.4654 102.159 44.9374 101.206C44.4241 100.253 44.1674 99.1527 44.1674 97.906C44.1674 96.6447 44.4241 95.5373 44.9374 94.584C45.4507 93.6307 46.1694 92.8973 47.0934 92.384C48.0174 91.8707 49.0807 91.614 50.2834 91.614C51.4421 91.614 52.4761 91.8633 53.3854 92.362C54.3094 92.8607 55.0207 93.572 55.5194 94.496C56.0327 95.4053 56.2894 96.454 56.2894 97.642ZM53.0994 96.762C53.0847 95.97 52.7987 95.3393 52.2414 94.87C51.6841 94.386 51.0021 94.144 50.1954 94.144C49.4327 94.144 48.7874 94.3787 48.2594 94.848C47.7461 95.3027 47.4307 95.9407 47.3134 96.762H53.0994ZM61.6175 93.704C62.0135 93.0587 62.5269 92.5527 63.1575 92.186C63.8029 91.8193 64.5362 91.636 65.3575 91.636V94.87H64.5435C63.5755 94.87 62.8422 95.0973 62.3435 95.552C61.8595 96.0067 61.6175 96.7987 61.6175 97.928V104H58.5375V91.812H61.6175V93.704ZM78.7621 97.642C78.7621 98.082 78.7327 98.478 78.6741 98.83H69.7641C69.8374 99.71 70.1454 100.399 70.6881 100.898C71.2307 101.397 71.8981 101.646 72.6901 101.646C73.8341 101.646 74.6481 101.155 75.1321 100.172H78.4541C78.1021 101.345 77.4274 102.313 76.4301 103.076C75.4327 103.824 74.2081 104.198 72.7561 104.198C71.5827 104.198 70.5267 103.941 69.5881 103.428C68.6641 102.9 67.9381 102.159 67.4101 101.206C66.8967 100.253 66.6401 99.1527 66.6401 97.906C66.6401 96.6447 66.8967 95.5373 67.4101 94.584C67.9234 93.6307 68.6421 92.8973 69.5661 92.384C70.4901 91.8707 71.5534 91.614 72.7561 91.614C73.9147 91.614 74.9487 91.8633 75.8581 92.362C76.7821 92.8607 77.4934 93.572 77.9921 94.496C78.5054 95.4053 78.7621 96.454 78.7621 97.642ZM75.5721 96.762C75.5574 95.97 75.2714 95.3393 74.7141 94.87C74.1567 94.386 73.4747 94.144 72.6681 94.144C71.9054 94.144 71.2601 94.3787 70.7321 94.848C70.2187 95.3027 69.9034 95.9407 69.7861 96.762H75.5721ZM87.7642 91.636C89.2162 91.636 90.3895 92.098 91.2842 93.022C92.1789 93.9313 92.6262 95.2073 92.6262 96.85V104H89.5462V97.268C89.5462 96.3 89.3042 95.5593 88.8202 95.046C88.3362 94.518 87.6762 94.254 86.8402 94.254C85.9895 94.254 85.3149 94.518 84.8162 95.046C84.3322 95.5593 84.0902 96.3 84.0902 97.268V104H81.0102V91.812H84.0902V93.33C84.5009 92.802 85.0215 92.3913 85.6522 92.098C86.2975 91.79 87.0015 91.636 87.7642 91.636ZM94.7631 97.906C94.7631 96.6447 95.0198 95.5447 95.5331 94.606C96.0464 93.6527 96.7578 92.9193 97.6671 92.406C98.5764 91.878 99.6178 91.614 100.791 91.614C102.302 91.614 103.548 91.9953 104.531 92.758C105.528 93.506 106.196 94.562 106.533 95.926H103.211C103.035 95.398 102.734 94.9873 102.309 94.694C101.898 94.386 101.385 94.232 100.769 94.232C99.8891 94.232 99.1924 94.5547 98.6791 95.2C98.1658 95.8307 97.9091 96.7327 97.9091 97.906C97.9091 99.0647 98.1658 99.9667 98.6791 100.612C99.1924 101.243 99.8891 101.558 100.769 101.558C102.016 101.558 102.83 101.001 103.211 99.886H106.533C106.196 101.206 105.528 102.255 104.531 103.032C103.534 103.809 102.287 104.198 100.791 104.198C99.6178 104.198 98.5764 103.941 97.6671 103.428C96.7578 102.9 96.0464 102.167 95.5331 101.228C95.0198 100.275 94.7631 99.1673 94.7631 97.906ZM120.119 97.642C120.119 98.082 120.09 98.478 120.031 98.83H111.121C111.195 99.71 111.503 100.399 112.045 100.898C112.588 101.397 113.255 101.646 114.047 101.646C115.191 101.646 116.005 101.155 116.489 100.172H119.811C119.459 101.345 118.785 102.313 117.787 103.076C116.79 103.824 115.565 104.198 114.113 104.198C112.94 104.198 111.884 103.941 110.945 103.428C110.021 102.9 109.295 102.159 108.767 101.206C108.254 100.253 107.997 99.1527 107.997 97.906C107.997 96.6447 108.254 95.5373 108.767 94.584C109.281 93.6307 109.999 92.8973 110.923 92.384C111.847 91.8707 112.911 91.614 114.113 91.614C115.272 91.614 116.306 91.8633 117.215 92.362C118.139 92.8607 118.851 93.572 119.349 94.496C119.863 95.4053 120.119 96.454 120.119 97.642ZM116.929 96.762C116.915 95.97 116.629 95.3393 116.071 94.87C115.514 94.386 114.832 94.144 114.025 94.144C113.263 94.144 112.617 94.3787 112.089 94.848C111.576 95.3027 111.261 95.9407 111.143 96.762H116.929ZM131.196 94.342V100.238C131.196 100.649 131.291 100.949 131.482 101.14C131.687 101.316 132.024 101.404 132.494 101.404H133.924V104H131.988C129.392 104 128.094 102.739 128.094 100.216V94.342H126.642V91.812H128.094V88.798H131.196V91.812H133.924V94.342H131.196ZM147.469 97.642C147.469 98.082 147.44 98.478 147.381 98.83H138.471C138.544 99.71 138.852 100.399 139.395 100.898C139.938 101.397 140.605 101.646 141.397 101.646C142.541 101.646 143.355 101.155 143.839 100.172H147.161C146.809 101.345 146.134 102.313 145.137 103.076C144.14 103.824 142.915 104.198 141.463 104.198C140.29 104.198 139.234 103.941 138.295 103.428C137.371 102.9 136.645 102.159 136.117 101.206C135.604 100.253 135.347 99.1527 135.347 97.906C135.347 96.6447 135.604 95.5373 136.117 94.584C136.63 93.6307 137.349 92.8973 138.273 92.384C139.197 91.8707 140.26 91.614 141.463 91.614C142.622 91.614 143.656 91.8633 144.565 92.362C145.489 92.8607 146.2 93.572 146.699 94.496C147.212 95.4053 147.469 96.454 147.469 97.642ZM144.279 96.762C144.264 95.97 143.978 95.3393 143.421 94.87C142.864 94.386 142.182 94.144 141.375 94.144C140.612 94.144 139.967 94.3787 139.439 94.848C138.926 95.3027 138.61 95.9407 138.493 96.762H144.279ZM154.381 104.198C153.384 104.198 152.489 104.022 151.697 103.67C150.905 103.303 150.275 102.812 149.805 102.196C149.351 101.58 149.101 100.898 149.057 100.15H152.159C152.218 100.619 152.445 101.008 152.841 101.316C153.252 101.624 153.758 101.778 154.359 101.778C154.946 101.778 155.401 101.661 155.723 101.426C156.061 101.191 156.229 100.891 156.229 100.524C156.229 100.128 156.024 99.8347 155.613 99.644C155.217 99.4387 154.579 99.2187 153.699 98.984C152.79 98.764 152.042 98.5367 151.455 98.302C150.883 98.0673 150.385 97.708 149.959 97.224C149.549 96.74 149.343 96.0873 149.343 95.266C149.343 94.5913 149.534 93.9753 149.915 93.418C150.311 92.8607 150.869 92.4207 151.587 92.098C152.321 91.7753 153.179 91.614 154.161 91.614C155.613 91.614 156.772 91.9807 157.637 92.714C158.503 93.4327 158.979 94.408 159.067 95.64H156.119C156.075 95.156 155.87 94.7747 155.503 94.496C155.151 94.2027 154.675 94.056 154.073 94.056C153.516 94.056 153.083 94.1587 152.775 94.364C152.482 94.5693 152.335 94.8553 152.335 95.222C152.335 95.6327 152.541 95.948 152.951 96.168C153.362 96.3733 154 96.586 154.865 96.806C155.745 97.026 156.471 97.2533 157.043 97.488C157.615 97.7227 158.107 98.0893 158.517 98.588C158.943 99.072 159.163 99.7173 159.177 100.524C159.177 101.228 158.979 101.859 158.583 102.416C158.202 102.973 157.645 103.413 156.911 103.736C156.193 104.044 155.349 104.198 154.381 104.198ZM165.292 94.342V100.238C165.292 100.649 165.387 100.949 165.578 101.14C165.783 101.316 166.12 101.404 166.59 101.404H168.02V104H166.084C163.488 104 162.19 102.739 162.19 100.216V94.342H160.738V91.812H162.19V88.798H165.292V91.812H168.02V94.342H165.292ZM174.899 104.198C173.901 104.198 173.007 104.022 172.215 103.67C171.423 103.303 170.792 102.812 170.323 102.196C169.868 101.58 169.619 100.898 169.575 100.15H172.677C172.735 100.619 172.963 101.008 173.359 101.316C173.769 101.624 174.275 101.778 174.877 101.778C175.463 101.778 175.918 101.661 176.241 101.426C176.578 101.191 176.747 100.891 176.747 100.524C176.747 100.128 176.541 99.8347 176.131 99.644C175.735 99.4387 175.097 99.2187 174.217 98.984C173.307 98.764 172.559 98.5367 171.973 98.302C171.401 98.0673 170.902 97.708 170.477 97.224C170.066 96.74 169.861 96.0873 169.861 95.266C169.861 94.5913 170.051 93.9753 170.433 93.418C170.829 92.8607 171.386 92.4207 172.105 92.098C172.838 91.7753 173.696 91.614 174.679 91.614C176.131 91.614 177.289 91.9807 178.155 92.714C179.02 93.4327 179.497 94.408 179.585 95.64H176.637C176.593 95.156 176.387 94.7747 176.021 94.496C175.669 94.2027 175.192 94.056 174.591 94.056C174.033 94.056 173.601 94.1587 173.293 94.364C172.999 94.5693 172.853 94.8553 172.853 95.222C172.853 95.6327 173.058 95.948 173.469 96.168C173.879 96.3733 174.517 96.586 175.383 96.806C176.263 97.026 176.989 97.2533 177.561 97.488C178.133 97.7227 178.624 98.0893 179.035 98.588C179.46 99.072 179.68 99.7173 179.695 100.524C179.695 101.228 179.497 101.859 179.101 102.416C178.719 102.973 178.162 103.413 177.429 103.736C176.71 104.044 175.867 104.198 174.899 104.198Z" fill="#2F281E"/>
</g>
<defs>
<filter id="filter0_f_0_556" x="-27.1828" y="-2.18282" width="104.366" height="79.3656" filterUnits="userSpaceOnUse" color-interpolation-filters="sRGB">
<feFlood flood-opacity="0" result="BackgroundImageFix"/>
<feBlend mode="normal" in="SourceGraphic" in2="BackgroundImageFix" result="shape"/>
<feGaussianBlur stdDeviation="13.5914" result="effect1_foregroundBlur_0_556"/>
</filter>
<clipPath id="clip0_0_556">
<rect width="50" height="50" fill="white"/>
</clipPath>
<clipPath id="clip1_0_556">
<rect width="240" height="98" fill="white" transform="translate(0 80)"/>
</clipPath>
</defs>
</svg>
