<svg width="240" height="178" viewBox="0 0 240 178" fill="none" xmlns="http://www.w3.org/2000/svg">
<g clip-path="url(#clip0_0_548)">
<g opacity="0.848005" filter="url(#filter0_f_0_548)">
<rect y="25" width="50" height="25" rx="12.5" fill="#FAB005"/>
</g>
<rect width="50" height="50" rx="19" fill="#FAB005"/>
<path d="M25.4821 24.6429L26.6518 25.1875L28.3929 24.6696V23.4554C28.3929 21.3929 26.6518 19.7411 24.5714 19.7411C22.5 19.7411 20.75 21.3839 20.75 23.4286V28.9643C20.75 29.4732 20.3393 29.875 19.8393 29.875C19.3393 29.875 18.9286 29.4732 18.9286 28.9643V26.625H16C16 28.9732 16 29 16 29C16 31.1161 17.7143 32.8304 19.8304 32.8304C21.9286 32.8304 23.6607 31.1429 23.6607 29.0536V23.5893C23.6607 23.0893 24.0714 22.6786 24.5714 22.6786C25.0714 22.6786 25.4821 23.0893 25.4821 23.5893V24.6429ZM30.2143 26.625V29.0804C30.2143 29.5804 29.8036 29.9821 29.3036 29.9821C28.8036 29.9821 28.3929 29.5804 28.3929 29.0804V26.6696L26.6518 27.1875L25.4821 26.6429V29.0357C25.4821 31.1339 27.2054 32.8304 29.3125 32.8304C31.4286 32.8304 33.1429 31.1161 33.1429 29C33.1429 29 33.1429 28.9732 33.1429 26.625H30.2143Z" fill="white"/>
</g>
<g clip-path="url(#clip1_0_548)">
<path d="M4.864 145.112C4.11733 145.112 3.44533 144.984 2.848 144.728C2.25067 144.461 1.78133 144.088 1.44 143.608C1.09867 143.128 0.928 142.568 0.928 141.928H2.88C2.92267 142.408 3.10933 142.803 3.44 143.112C3.78133 143.421 4.256 143.576 4.864 143.576C5.49333 143.576 5.984 143.427 6.336 143.128C6.688 142.819 6.864 142.424 6.864 141.944C6.864 141.571 6.752 141.267 6.528 141.032C6.31467 140.797 6.04267 140.616 5.712 140.488C5.392 140.36 4.944 140.221 4.368 140.072C3.64267 139.88 3.05067 139.688 2.592 139.496C2.144 139.293 1.76 138.984 1.44 138.568C1.12 138.152 0.96 137.597 0.96 136.904C0.96 136.264 1.12 135.704 1.44 135.224C1.76 134.744 2.208 134.376 2.784 134.12C3.36 133.864 4.02667 133.736 4.784 133.736C5.86133 133.736 6.74133 134.008 7.424 134.552C8.11733 135.085 8.50133 135.821 8.576 136.76H6.56C6.528 136.355 6.336 136.008 5.984 135.72C5.632 135.432 5.168 135.288 4.592 135.288C4.06933 135.288 3.64267 135.421 3.312 135.688C2.98133 135.955 2.816 136.339 2.816 136.84C2.816 137.181 2.91733 137.464 3.12 137.688C3.33333 137.901 3.6 138.072 3.92 138.2C4.24 138.328 4.67733 138.467 5.232 138.616C5.968 138.819 6.56533 139.021 7.024 139.224C7.49333 139.427 7.888 139.741 8.208 140.168C8.53867 140.584 8.704 141.144 8.704 141.848C8.704 142.413 8.54933 142.947 8.24 143.448C7.94133 143.949 7.49867 144.355 6.912 144.664C6.336 144.963 5.65333 145.112 4.864 145.112ZM12.6803 137.48C12.9896 137.075 13.4109 136.733 13.9443 136.456C14.4776 136.179 15.0803 136.04 15.7523 136.04C16.5203 136.04 17.2189 136.232 17.8483 136.616C18.4883 136.989 18.9896 137.517 19.3523 138.2C19.7149 138.883 19.8963 139.667 19.8963 140.552C19.8963 141.437 19.7149 142.232 19.3523 142.936C18.9896 143.629 18.4883 144.173 17.8483 144.568C17.2189 144.952 16.5203 145.144 15.7523 145.144C15.0803 145.144 14.4829 145.011 13.9603 144.744C13.4376 144.467 13.0109 144.125 12.6803 143.72V149.192H10.8563V136.184H12.6803V137.48ZM18.0403 140.552C18.0403 139.944 17.9123 139.421 17.6562 138.984C17.4109 138.536 17.0803 138.2 16.6643 137.976C16.2589 137.741 15.8216 137.624 15.3523 137.624C14.8936 137.624 14.4563 137.741 14.0403 137.976C13.6349 138.211 13.3043 138.552 13.0483 139C12.8029 139.448 12.6803 139.976 12.6803 140.584C12.6803 141.192 12.8029 141.725 13.0483 142.184C13.3043 142.632 13.6349 142.973 14.0403 143.208C14.4563 143.443 14.8936 143.56 15.3523 143.56C15.8216 143.56 16.2589 143.443 16.6643 143.208C17.0803 142.963 17.4109 142.611 17.6562 142.152C17.9123 141.693 18.0403 141.16 18.0403 140.552ZM25.524 145.144C24.692 145.144 23.94 144.957 23.268 144.584C22.596 144.2 22.068 143.667 21.684 142.984C21.3 142.291 21.108 141.491 21.108 140.584C21.108 139.688 21.3053 138.893 21.7 138.2C22.0947 137.507 22.6333 136.973 23.316 136.6C23.9987 136.227 24.7613 136.04 25.604 136.04C26.4467 136.04 27.2093 136.227 27.892 136.6C28.5747 136.973 29.1133 137.507 29.508 138.2C29.9027 138.893 30.1 139.688 30.1 140.584C30.1 141.48 29.8973 142.275 29.492 142.968C29.0867 143.661 28.532 144.2 27.828 144.584C27.1347 144.957 26.3667 145.144 25.524 145.144ZM25.524 143.56C25.9933 143.56 26.4307 143.448 26.836 143.224C27.252 143 27.588 142.664 27.844 142.216C28.1 141.768 28.228 141.224 28.228 140.584C28.228 139.944 28.1053 139.405 27.86 138.968C27.6147 138.52 27.2893 138.184 26.884 137.96C26.4787 137.736 26.0413 137.624 25.572 137.624C25.1027 137.624 24.6653 137.736 24.26 137.96C23.8653 138.184 23.5507 138.52 23.316 138.968C23.0813 139.405 22.964 139.944 22.964 140.584C22.964 141.533 23.204 142.269 23.684 142.792C24.1747 143.304 24.788 143.56 25.524 143.56ZM33.7271 137.464C33.9938 137.016 34.3458 136.669 34.7831 136.424C35.2311 136.168 35.7591 136.04 36.3671 136.04V137.928H35.9031C35.1885 137.928 34.6445 138.109 34.2711 138.472C33.9085 138.835 33.7271 139.464 33.7271 140.36V145H31.9031V136.184H33.7271V137.464ZM40.1718 137.672V142.552C40.1718 142.883 40.2464 143.123 40.3958 143.272C40.5558 143.411 40.8224 143.48 41.1958 143.48H42.3158V145H40.8758C40.0544 145 39.4251 144.808 38.9878 144.424C38.5504 144.04 38.3318 143.416 38.3318 142.552V137.672H37.2918V136.184H38.3318V133.992H40.1718V136.184H42.3158V137.672H40.1718ZM47.1969 145.144C46.5035 145.144 45.8795 145.021 45.3249 144.776C44.7809 144.52 44.3489 144.179 44.0289 143.752C43.7089 143.315 43.5382 142.829 43.5169 142.296H45.4049C45.4369 142.669 45.6129 142.984 45.9329 143.24C46.2635 143.485 46.6742 143.608 47.1649 143.608C47.6769 143.608 48.0715 143.512 48.3489 143.32C48.6369 143.117 48.7809 142.861 48.7809 142.552C48.7809 142.221 48.6209 141.976 48.3009 141.816C47.9915 141.656 47.4955 141.48 46.8129 141.288C46.1515 141.107 45.6129 140.931 45.1969 140.76C44.7809 140.589 44.4182 140.328 44.1089 139.976C43.8102 139.624 43.6609 139.16 43.6609 138.584C43.6609 138.115 43.7995 137.688 44.0769 137.304C44.3542 136.909 44.7489 136.6 45.2609 136.376C45.7835 136.152 46.3809 136.04 47.0529 136.04C48.0555 136.04 48.8609 136.296 49.4689 136.808C50.0875 137.309 50.4182 137.997 50.4609 138.872H48.6369C48.6049 138.477 48.4449 138.163 48.1569 137.928C47.8689 137.693 47.4795 137.576 46.9889 137.576C46.5089 137.576 46.1409 137.667 45.8849 137.848C45.6289 138.029 45.5009 138.269 45.5009 138.568C45.5009 138.803 45.5862 139 45.7569 139.16C45.9275 139.32 46.1355 139.448 46.3809 139.544C46.6262 139.629 46.9889 139.741 47.4689 139.88C48.1089 140.051 48.6315 140.227 49.0369 140.408C49.4529 140.579 49.8102 140.835 50.1089 141.176C50.4075 141.517 50.5622 141.971 50.5729 142.536C50.5729 143.037 50.4342 143.485 50.1569 143.88C49.8795 144.275 49.4849 144.584 48.9729 144.808C48.4715 145.032 47.8795 145.144 47.1969 145.144ZM58.524 137.496C58.8333 137.069 59.2547 136.723 59.788 136.456C60.332 136.179 60.9347 136.04 61.596 136.04C62.3747 136.04 63.0787 136.227 63.708 136.6C64.3373 136.973 64.8333 137.507 65.196 138.2C65.5587 138.883 65.74 139.667 65.74 140.552C65.74 141.437 65.5587 142.232 65.196 142.936C64.8333 143.629 64.332 144.173 63.692 144.568C63.0627 144.952 62.364 145.144 61.596 145.144C60.9133 145.144 60.3053 145.011 59.772 144.744C59.2493 144.477 58.8333 144.136 58.524 143.72V145H56.7V133.16H58.524V137.496ZM63.884 140.552C63.884 139.944 63.756 139.421 63.5 138.984C63.2547 138.536 62.924 138.2 62.508 137.976C62.1027 137.741 61.6653 137.624 61.196 137.624C60.7373 137.624 60.3 137.741 59.884 137.976C59.4787 138.211 59.148 138.552 58.892 139C58.6467 139.448 58.524 139.976 58.524 140.584C58.524 141.192 58.6467 141.725 58.892 142.184C59.148 142.632 59.4787 142.973 59.884 143.208C60.3 143.443 60.7373 143.56 61.196 143.56C61.6653 143.56 62.1027 143.443 62.508 143.208C62.924 142.963 63.2547 142.611 63.5 142.152C63.756 141.693 63.884 141.16 63.884 140.552ZM75.6238 140.376C75.6238 140.707 75.6024 141.005 75.5598 141.272H68.8238C68.8771 141.976 69.1384 142.541 69.6078 142.968C70.0771 143.395 70.6531 143.608 71.3358 143.608C72.3171 143.608 73.0104 143.197 73.4158 142.376H75.3837C75.1171 143.187 74.6318 143.853 73.9278 144.376C73.2344 144.888 72.3704 145.144 71.3358 145.144C70.4931 145.144 69.7358 144.957 69.0638 144.584C68.4024 144.2 67.8798 143.667 67.4958 142.984C67.1224 142.291 66.9358 141.491 66.9358 140.584C66.9358 139.677 67.1171 138.883 67.4798 138.2C67.8531 137.507 68.3704 136.973 69.0318 136.6C69.7038 136.227 70.4718 136.04 71.3358 136.04C72.1678 136.04 72.9091 136.221 73.5598 136.584C74.2104 136.947 74.7171 137.459 75.0798 138.12C75.4424 138.771 75.6238 139.523 75.6238 140.376ZM73.7198 139.8C73.7091 139.128 73.4691 138.589 72.9998 138.184C72.5304 137.779 71.9491 137.576 71.2558 137.576C70.6264 137.576 70.0878 137.779 69.6398 138.184C69.1918 138.579 68.9251 139.117 68.8398 139.8H73.7198ZM79.5468 137.672V142.552C79.5468 142.883 79.6214 143.123 79.7708 143.272C79.9308 143.411 80.1974 143.48 80.5708 143.48H81.6908V145H80.2508C79.4294 145 78.8001 144.808 78.3628 144.424C77.9254 144.04 77.7068 143.416 77.7068 142.552V137.672H76.6668V136.184H77.7068V133.992H79.5468V136.184H81.6908V137.672H79.5468ZM85.4999 137.672V142.552C85.4999 142.883 85.5745 143.123 85.7239 143.272C85.8839 143.411 86.1505 143.48 86.5239 143.48H87.6439V145H86.2039C85.3825 145 84.7532 144.808 84.3159 144.424C83.8785 144.04 83.6599 143.416 83.6599 142.552V137.672H82.6199V136.184H83.6599V133.992H85.4999V136.184H87.6439V137.672H85.4999ZM90.253 135.016C89.9223 135.016 89.645 134.904 89.421 134.68C89.197 134.456 89.085 134.179 89.085 133.848C89.085 133.517 89.197 133.24 89.421 133.016C89.645 132.792 89.9223 132.68 90.253 132.68C90.573 132.68 90.845 132.792 91.069 133.016C91.293 133.24 91.405 133.517 91.405 133.848C91.405 134.179 91.293 134.456 91.069 134.68C90.845 134.904 90.573 135.016 90.253 135.016ZM91.149 136.184V145H89.325V136.184H91.149ZM97.9918 136.04C98.6851 136.04 99.3038 136.184 99.8478 136.472C100.402 136.76 100.834 137.187 101.144 137.752C101.453 138.317 101.608 139 101.608 139.8V145H99.7998V140.072C99.7998 139.283 99.6024 138.68 99.2078 138.264C98.8131 137.837 98.2744 137.624 97.5918 137.624C96.9091 137.624 96.3651 137.837 95.9598 138.264C95.5651 138.68 95.3678 139.283 95.3678 140.072V145H93.5438V136.184H95.3678V137.192C95.6664 136.829 96.0451 136.547 96.5038 136.344C96.9731 136.141 97.4691 136.04 97.9918 136.04ZM107.486 136.04C108.169 136.04 108.772 136.179 109.294 136.456C109.828 136.723 110.244 137.059 110.542 137.464V136.184H112.382V145.144C112.382 145.955 112.212 146.675 111.87 147.304C111.529 147.944 111.033 148.445 110.382 148.808C109.742 149.171 108.974 149.352 108.078 149.352C106.884 149.352 105.892 149.069 105.102 148.504C104.313 147.949 103.865 147.192 103.758 146.232H105.566C105.705 146.691 105.998 147.059 106.446 147.336C106.905 147.624 107.449 147.768 108.078 147.768C108.814 147.768 109.406 147.544 109.854 147.096C110.313 146.648 110.542 145.997 110.542 145.144V143.672C110.233 144.088 109.812 144.44 109.278 144.728C108.756 145.005 108.158 145.144 107.486 145.144C106.718 145.144 106.014 144.952 105.374 144.568C104.745 144.173 104.244 143.629 103.87 142.936C103.508 142.232 103.326 141.437 103.326 140.552C103.326 139.667 103.508 138.883 103.87 138.2C104.244 137.517 104.745 136.989 105.374 136.616C106.014 136.232 106.718 136.04 107.486 136.04ZM110.542 140.584C110.542 139.976 110.414 139.448 110.158 139C109.913 138.552 109.588 138.211 109.182 137.976C108.777 137.741 108.34 137.624 107.87 137.624C107.401 137.624 106.964 137.741 106.558 137.976C106.153 138.2 105.822 138.536 105.566 138.984C105.321 139.421 105.198 139.944 105.198 140.552C105.198 141.16 105.321 141.693 105.566 142.152C105.822 142.611 106.153 142.963 106.558 143.208C106.974 143.443 107.412 143.56 107.87 143.56C108.34 143.56 108.777 143.443 109.182 143.208C109.588 142.973 109.913 142.632 110.158 142.184C110.414 141.725 110.542 141.192 110.542 140.584ZM116.778 142.808L114.842 147.224H113.658L114.794 142.808H116.778ZM124.352 133.16V145H122.528V133.16H124.352ZM130.571 145.144C129.739 145.144 128.987 144.957 128.315 144.584C127.643 144.2 127.115 143.667 126.731 142.984C126.347 142.291 126.155 141.491 126.155 140.584C126.155 139.688 126.352 138.893 126.747 138.2C127.142 137.507 127.68 136.973 128.363 136.6C129.046 136.227 129.808 136.04 130.651 136.04C131.494 136.04 132.256 136.227 132.939 136.6C133.622 136.973 134.16 137.507 134.555 138.2C134.95 138.893 135.147 139.688 135.147 140.584C135.147 141.48 134.944 142.275 134.539 142.968C134.134 143.661 133.579 144.2 132.875 144.584C132.182 144.957 131.414 145.144 130.571 145.144ZM130.571 143.56C131.04 143.56 131.478 143.448 131.883 143.224C132.299 143 132.635 142.664 132.891 142.216C133.147 141.768 133.275 141.224 133.275 140.584C133.275 139.944 133.152 139.405 132.907 138.968C132.662 138.52 132.336 138.184 131.931 137.96C131.526 137.736 131.088 137.624 130.619 137.624C130.15 137.624 129.712 137.736 129.307 137.96C128.912 138.184 128.598 138.52 128.363 138.968C128.128 139.405 128.011 139.944 128.011 140.584C128.011 141.533 128.251 142.269 128.731 142.792C129.222 143.304 129.835 143.56 130.571 143.56ZM139.078 137.672V142.552C139.078 142.883 139.153 143.123 139.302 143.272C139.462 143.411 139.729 143.48 140.102 143.48H141.222V145H139.782C138.961 145 138.331 144.808 137.894 144.424C137.457 144.04 137.238 143.416 137.238 142.552V137.672H136.198V136.184H137.238V133.992H139.078V136.184H141.222V137.672H139.078ZM145.031 137.672V142.552C145.031 142.883 145.106 143.123 145.255 143.272C145.415 143.411 145.682 143.48 146.055 143.48H147.175V145H145.735C144.914 145 144.284 144.808 143.847 144.424C143.41 144.04 143.191 143.416 143.191 142.552V137.672H142.151V136.184H143.191V133.992H145.031V136.184H147.175V137.672H145.031ZM156.936 140.376C156.936 140.707 156.915 141.005 156.872 141.272H150.136C150.19 141.976 150.451 142.541 150.92 142.968C151.39 143.395 151.966 143.608 152.648 143.608C153.63 143.608 154.323 143.197 154.728 142.376H156.696C156.43 143.187 155.944 143.853 155.24 144.376C154.547 144.888 153.683 145.144 152.648 145.144C151.806 145.144 151.048 144.957 150.376 144.584C149.715 144.2 149.192 143.667 148.808 142.984C148.435 142.291 148.248 141.491 148.248 140.584C148.248 139.677 148.43 138.883 148.792 138.2C149.166 137.507 149.683 136.973 150.344 136.6C151.016 136.227 151.784 136.04 152.648 136.04C153.48 136.04 154.222 136.221 154.872 136.584C155.523 136.947 156.03 137.459 156.392 138.12C156.755 138.771 156.936 139.523 156.936 140.376ZM155.032 139.8C155.022 139.128 154.782 138.589 154.312 138.184C153.843 137.779 153.262 137.576 152.568 137.576C151.939 137.576 151.4 137.779 150.952 138.184C150.504 138.579 150.238 139.117 150.152 139.8H155.032ZM160.555 137.464C160.822 137.016 161.174 136.669 161.611 136.424C162.059 136.168 162.587 136.04 163.195 136.04V137.928H162.731C162.017 137.928 161.473 138.109 161.099 138.472C160.737 138.835 160.555 139.464 160.555 140.36V145H158.731V136.184H160.555V137.464ZM172.808 136.184L167.4 149.144H165.512L167.304 144.856L163.832 136.184H165.864L168.344 142.904L170.92 136.184H172.808ZM177.733 140.552C177.733 139.667 177.914 138.883 178.277 138.2C178.65 137.517 179.151 136.989 179.781 136.616C180.421 136.232 181.125 136.04 181.893 136.04C182.586 136.04 183.189 136.179 183.701 136.456C184.223 136.723 184.639 137.059 184.949 137.464V136.184H186.789V145H184.949V143.688C184.639 144.104 184.218 144.451 183.685 144.728C183.151 145.005 182.543 145.144 181.861 145.144C181.103 145.144 180.41 144.952 179.781 144.568C179.151 144.173 178.65 143.629 178.277 142.936C177.914 142.232 177.733 141.437 177.733 140.552ZM184.949 140.584C184.949 139.976 184.821 139.448 184.565 139C184.319 138.552 183.994 138.211 183.589 137.976C183.183 137.741 182.746 137.624 182.277 137.624C181.807 137.624 181.37 137.741 180.965 137.976C180.559 138.2 180.229 138.536 179.973 138.984C179.727 139.421 179.605 139.944 179.605 140.552C179.605 141.16 179.727 141.693 179.973 142.152C180.229 142.611 180.559 142.963 180.965 143.208C181.381 143.443 181.818 143.56 182.277 143.56C182.746 143.56 183.183 143.443 183.589 143.208C183.994 142.973 184.319 142.632 184.565 142.184C184.821 141.725 184.949 141.192 184.949 140.584ZM193.632 136.04C194.326 136.04 194.944 136.184 195.488 136.472C196.043 136.76 196.475 137.187 196.784 137.752C197.094 138.317 197.248 139 197.248 139.8V145H195.44V140.072C195.44 139.283 195.243 138.68 194.848 138.264C194.454 137.837 193.915 137.624 193.232 137.624C192.55 137.624 192.006 137.837 191.6 138.264C191.206 138.68 191.008 139.283 191.008 140.072V145H189.184V136.184H191.008V137.192C191.307 136.829 191.686 136.547 192.144 136.344C192.614 136.141 193.11 136.04 193.632 136.04ZM198.967 140.552C198.967 139.667 199.148 138.883 199.511 138.2C199.884 137.517 200.386 136.989 201.015 136.616C201.655 136.232 202.364 136.04 203.143 136.04C203.719 136.04 204.284 136.168 204.839 136.424C205.404 136.669 205.852 137 206.183 137.416V133.16H208.023V145H206.183V143.672C205.884 144.099 205.468 144.451 204.935 144.728C204.412 145.005 203.81 145.144 203.127 145.144C202.359 145.144 201.655 144.952 201.015 144.568C200.386 144.173 199.884 143.629 199.511 142.936C199.148 142.232 198.967 141.437 198.967 140.552ZM206.183 140.584C206.183 139.976 206.055 139.448 205.799 139C205.554 138.552 205.228 138.211 204.823 137.976C204.418 137.741 203.98 137.624 203.511 137.624C203.042 137.624 202.604 137.741 202.199 137.976C201.794 138.2 201.463 138.536 201.207 138.984C200.962 139.421 200.839 139.944 200.839 140.552C200.839 141.16 200.962 141.693 201.207 142.152C201.463 142.611 201.794 142.963 202.199 143.208C202.615 143.443 203.052 143.56 203.511 143.56C203.98 143.56 204.418 143.443 204.823 143.208C205.228 142.973 205.554 142.632 205.799 142.184C206.055 141.725 206.183 141.192 206.183 140.584ZM3.024 163.496C3.33333 163.069 3.75467 162.723 4.288 162.456C4.832 162.179 5.43467 162.04 6.096 162.04C6.87467 162.04 7.57867 162.227 8.208 162.6C8.83733 162.973 9.33333 163.507 9.696 164.2C10.0587 164.883 10.24 165.667 10.24 166.552C10.24 167.437 10.0587 168.232 9.696 168.936C9.33333 169.629 8.832 170.173 8.192 170.568C7.56267 170.952 6.864 171.144 6.096 171.144C5.41333 171.144 4.80533 171.011 4.272 170.744C3.74933 170.477 3.33333 170.136 3.024 169.72V171H1.2V159.16H3.024V163.496ZM8.384 166.552C8.384 165.944 8.256 165.421 8 164.984C7.75467 164.536 7.424 164.2 7.008 163.976C6.60267 163.741 6.16533 163.624 5.696 163.624C5.23733 163.624 4.8 163.741 4.384 163.976C3.97867 164.211 3.648 164.552 3.392 165C3.14667 165.448 3.024 165.976 3.024 166.584C3.024 167.192 3.14667 167.725 3.392 168.184C3.648 168.632 3.97867 168.973 4.384 169.208C4.8 169.443 5.23733 169.56 5.696 169.56C6.16533 169.56 6.60267 169.443 7.008 169.208C7.424 168.963 7.75467 168.611 8 168.152C8.256 167.693 8.384 167.16 8.384 166.552ZM12.9718 161.016C12.6411 161.016 12.3638 160.904 12.1398 160.68C11.9158 160.456 11.8038 160.179 11.8038 159.848C11.8038 159.517 11.9158 159.24 12.1398 159.016C12.3638 158.792 12.6411 158.68 12.9718 158.68C13.2918 158.68 13.5638 158.792 13.7878 159.016C14.0118 159.24 14.1238 159.517 14.1238 159.848C14.1238 160.179 14.0118 160.456 13.7878 160.68C13.5638 160.904 13.2918 161.016 12.9718 161.016ZM13.8678 162.184V171H12.0438V162.184H13.8678ZM20.7105 162.04C21.4038 162.04 22.0225 162.184 22.5665 162.472C23.1212 162.76 23.5532 163.187 23.8625 163.752C24.1718 164.317 24.3265 165 24.3265 165.8V171H22.5185V166.072C22.5185 165.283 22.3212 164.68 21.9265 164.264C21.5318 163.837 20.9932 163.624 20.3105 163.624C19.6278 163.624 19.0838 163.837 18.6785 164.264C18.2838 164.68 18.0865 165.283 18.0865 166.072V171H16.2625V162.184H18.0865V163.192C18.3852 162.829 18.7638 162.547 19.2225 162.344C19.6918 162.141 20.1878 162.04 20.7105 162.04ZM30.2051 162.04C30.8878 162.04 31.4905 162.179 32.0131 162.456C32.5465 162.723 32.9625 163.059 33.2611 163.464V162.184H35.1011V171.144C35.1011 171.955 34.9305 172.675 34.5891 173.304C34.2478 173.944 33.7518 174.445 33.1011 174.808C32.4611 175.171 31.6931 175.352 30.7971 175.352C29.6025 175.352 28.6105 175.069 27.8211 174.504C27.0318 173.949 26.5838 173.192 26.4771 172.232H28.2851C28.4238 172.691 28.7171 173.059 29.1651 173.336C29.6238 173.624 30.1678 173.768 30.7971 173.768C31.5331 173.768 32.1251 173.544 32.5731 173.096C33.0318 172.648 33.2611 171.997 33.2611 171.144V169.672C32.9518 170.088 32.5305 170.44 31.9971 170.728C31.4745 171.005 30.8771 171.144 30.2051 171.144C29.4371 171.144 28.7331 170.952 28.0931 170.568C27.4638 170.173 26.9625 169.629 26.5891 168.936C26.2265 168.232 26.0451 167.437 26.0451 166.552C26.0451 165.667 26.2265 164.883 26.5891 164.2C26.9625 163.517 27.4638 162.989 28.0931 162.616C28.7331 162.232 29.4371 162.04 30.2051 162.04ZM33.2611 166.584C33.2611 165.976 33.1331 165.448 32.8771 165C32.6318 164.552 32.3065 164.211 31.9011 163.976C31.4958 163.741 31.0585 163.624 30.5891 163.624C30.1198 163.624 29.6825 163.741 29.2771 163.976C28.8718 164.2 28.5411 164.536 28.2851 164.984C28.0398 165.421 27.9171 165.944 27.9171 166.552C27.9171 167.16 28.0398 167.693 28.2851 168.152C28.5411 168.611 28.8718 168.963 29.2771 169.208C29.6931 169.443 30.1305 169.56 30.5891 169.56C31.0585 169.56 31.4958 169.443 31.9011 169.208C32.3065 168.973 32.6318 168.632 32.8771 168.184C33.1331 167.725 33.2611 167.192 33.2611 166.584ZM41.3209 171.144C40.4889 171.144 39.7369 170.957 39.0649 170.584C38.3929 170.2 37.8649 169.667 37.4809 168.984C37.0969 168.291 36.9049 167.491 36.9049 166.584C36.9049 165.688 37.1022 164.893 37.4969 164.2C37.8915 163.507 38.4302 162.973 39.1129 162.6C39.7955 162.227 40.5582 162.04 41.4009 162.04C42.2435 162.04 43.0062 162.227 43.6889 162.6C44.3715 162.973 44.9102 163.507 45.3049 164.2C45.6995 164.893 45.8969 165.688 45.8969 166.584C45.8969 167.48 45.6942 168.275 45.2889 168.968C44.8835 169.661 44.3289 170.2 43.6249 170.584C42.9315 170.957 42.1635 171.144 41.3209 171.144ZM41.3209 169.56C41.7902 169.56 42.2275 169.448 42.6329 169.224C43.0489 169 43.3849 168.664 43.6409 168.216C43.8969 167.768 44.0249 167.224 44.0249 166.584C44.0249 165.944 43.9022 165.405 43.6569 164.968C43.4115 164.52 43.0862 164.184 42.6809 163.96C42.2755 163.736 41.8382 163.624 41.3689 163.624C40.8995 163.624 40.4622 163.736 40.0569 163.96C39.6622 164.184 39.3475 164.52 39.1129 164.968C38.8782 165.405 38.7609 165.944 38.7609 166.584C38.7609 167.533 39.0009 168.269 39.4809 168.792C39.9715 169.304 40.5849 169.56 41.3209 169.56ZM53.6803 163.48C53.9896 163.075 54.4109 162.733 54.9443 162.456C55.4776 162.179 56.0803 162.04 56.7523 162.04C57.5203 162.04 58.2189 162.232 58.8483 162.616C59.4883 162.989 59.9896 163.517 60.3523 164.2C60.7149 164.883 60.8963 165.667 60.8963 166.552C60.8963 167.437 60.7149 168.232 60.3523 168.936C59.9896 169.629 59.4883 170.173 58.8483 170.568C58.2189 170.952 57.5203 171.144 56.7523 171.144C56.0803 171.144 55.4829 171.011 54.9603 170.744C54.4376 170.467 54.0109 170.125 53.6803 169.72V175.192H51.8563V162.184H53.6803V163.48ZM59.0403 166.552C59.0403 165.944 58.9123 165.421 58.6562 164.984C58.4109 164.536 58.0803 164.2 57.6643 163.976C57.2589 163.741 56.8216 163.624 56.3523 163.624C55.8936 163.624 55.4563 163.741 55.0403 163.976C54.6349 164.211 54.3043 164.552 54.0483 165C53.8029 165.448 53.6803 165.976 53.6803 166.584C53.6803 167.192 53.8029 167.725 54.0483 168.184C54.3043 168.632 54.6349 168.973 55.0403 169.208C55.4563 169.443 55.8936 169.56 56.3523 169.56C56.8216 169.56 57.2589 169.443 57.6643 169.208C58.0803 168.963 58.4109 168.611 58.6562 168.152C58.9123 167.693 59.0403 167.16 59.0403 166.552ZM64.524 159.16V171H62.7V159.16H64.524ZM66.3108 166.552C66.3108 165.667 66.4921 164.883 66.8548 164.2C67.2281 163.517 67.7294 162.989 68.3588 162.616C68.9988 162.232 69.7028 162.04 70.4708 162.04C71.1641 162.04 71.7668 162.179 72.2788 162.456C72.8014 162.723 73.2174 163.059 73.5268 163.464V162.184H75.3668V171H73.5268V169.688C73.2174 170.104 72.7961 170.451 72.2628 170.728C71.7294 171.005 71.1214 171.144 70.4388 171.144C69.6814 171.144 68.9881 170.952 68.3588 170.568C67.7294 170.173 67.2281 169.629 66.8548 168.936C66.4921 168.232 66.3108 167.437 66.3108 166.552ZM73.5268 166.584C73.5268 165.976 73.3988 165.448 73.1428 165C72.8974 164.552 72.5721 164.211 72.1668 163.976C71.7614 163.741 71.3241 163.624 70.8548 163.624C70.3854 163.624 69.9481 163.741 69.5428 163.976C69.1374 164.2 68.8068 164.536 68.5508 164.984C68.3054 165.421 68.1828 165.944 68.1828 166.552C68.1828 167.16 68.3054 167.693 68.5508 168.152C68.8068 168.611 69.1374 168.963 69.5428 169.208C69.9588 169.443 70.3961 169.56 70.8548 169.56C71.3241 169.56 71.7614 169.443 72.1668 169.208C72.5721 168.973 72.8974 168.632 73.1428 168.184C73.3988 167.725 73.5268 167.192 73.5268 166.584ZM85.6985 162.184L80.2905 175.144H78.4025L80.1945 170.856L76.7225 162.184H78.7545L81.2345 168.904L83.8105 162.184H85.6985ZM88.003 161.016C87.6723 161.016 87.395 160.904 87.171 160.68C86.947 160.456 86.835 160.179 86.835 159.848C86.835 159.517 86.947 159.24 87.171 159.016C87.395 158.792 87.6723 158.68 88.003 158.68C88.323 158.68 88.595 158.792 88.819 159.016C89.043 159.24 89.155 159.517 89.155 159.848C89.155 160.179 89.043 160.456 88.819 160.68C88.595 160.904 88.323 161.016 88.003 161.016ZM88.899 162.184V171H87.075V162.184H88.899ZM95.7418 162.04C96.4351 162.04 97.0538 162.184 97.5978 162.472C98.1524 162.76 98.5844 163.187 98.8938 163.752C99.2031 164.317 99.3578 165 99.3578 165.8V171H97.5498V166.072C97.5498 165.283 97.3524 164.68 96.9578 164.264C96.5631 163.837 96.0244 163.624 95.3418 163.624C94.6591 163.624 94.1151 163.837 93.7098 164.264C93.3151 164.68 93.1178 165.283 93.1178 166.072V171H91.2938V162.184H93.1178V163.192C93.4164 162.829 93.7951 162.547 94.2538 162.344C94.7231 162.141 95.2191 162.04 95.7418 162.04ZM105.236 162.04C105.919 162.04 106.522 162.179 107.044 162.456C107.578 162.723 107.994 163.059 108.292 163.464V162.184H110.132V171.144C110.132 171.955 109.962 172.675 109.62 173.304C109.279 173.944 108.783 174.445 108.132 174.808C107.492 175.171 106.724 175.352 105.828 175.352C104.634 175.352 103.642 175.069 102.852 174.504C102.063 173.949 101.615 173.192 101.508 172.232H103.316C103.455 172.691 103.748 173.059 104.196 173.336C104.655 173.624 105.199 173.768 105.828 173.768C106.564 173.768 107.156 173.544 107.604 173.096C108.063 172.648 108.292 171.997 108.292 171.144V169.672C107.983 170.088 107.562 170.44 107.028 170.728C106.506 171.005 105.908 171.144 105.236 171.144C104.468 171.144 103.764 170.952 103.124 170.568C102.495 170.173 101.994 169.629 101.62 168.936C101.258 168.232 101.076 167.437 101.076 166.552C101.076 165.667 101.258 164.883 101.62 164.2C101.994 163.517 102.495 162.989 103.124 162.616C103.764 162.232 104.468 162.04 105.236 162.04ZM108.292 166.584C108.292 165.976 108.164 165.448 107.908 165C107.663 164.552 107.338 164.211 106.932 163.976C106.527 163.741 106.09 163.624 105.62 163.624C105.151 163.624 104.714 163.741 104.308 163.976C103.903 164.2 103.572 164.536 103.316 164.984C103.071 165.421 102.948 165.944 102.948 166.552C102.948 167.16 103.071 167.693 103.316 168.152C103.572 168.611 103.903 168.963 104.308 169.208C104.724 169.443 105.162 169.56 105.62 169.56C106.09 169.56 106.527 169.443 106.932 169.208C107.338 168.973 107.663 168.632 107.908 168.184C108.164 167.725 108.292 167.192 108.292 166.584ZM120.38 163.672H118.748V171H116.908V163.672H115.868V162.184H116.908V161.56C116.908 160.547 117.175 159.811 117.708 159.352C118.252 158.883 119.1 158.648 120.252 158.648V160.168C119.698 160.168 119.308 160.275 119.084 160.488C118.86 160.691 118.748 161.048 118.748 161.56V162.184H120.38V163.672ZM125.821 171.144C124.989 171.144 124.237 170.957 123.565 170.584C122.893 170.2 122.365 169.667 121.981 168.984C121.597 168.291 121.405 167.491 121.405 166.584C121.405 165.688 121.602 164.893 121.997 164.2C122.392 163.507 122.93 162.973 123.613 162.6C124.296 162.227 125.058 162.04 125.901 162.04C126.744 162.04 127.506 162.227 128.189 162.6C128.872 162.973 129.41 163.507 129.805 164.2C130.2 164.893 130.397 165.688 130.397 166.584C130.397 167.48 130.194 168.275 129.789 168.968C129.384 169.661 128.829 170.2 128.125 170.584C127.432 170.957 126.664 171.144 125.821 171.144ZM125.821 169.56C126.29 169.56 126.728 169.448 127.133 169.224C127.549 169 127.885 168.664 128.141 168.216C128.397 167.768 128.525 167.224 128.525 166.584C128.525 165.944 128.402 165.405 128.157 164.968C127.912 164.52 127.586 164.184 127.181 163.96C126.776 163.736 126.338 163.624 125.869 163.624C125.4 163.624 124.962 163.736 124.557 163.96C124.162 164.184 123.848 164.52 123.613 164.968C123.378 165.405 123.261 165.944 123.261 166.584C123.261 167.533 123.501 168.269 123.981 168.792C124.472 169.304 125.085 169.56 125.821 169.56ZM134.024 163.464C134.291 163.016 134.643 162.669 135.08 162.424C135.528 162.168 136.056 162.04 136.664 162.04V163.928H136.2C135.485 163.928 134.941 164.109 134.568 164.472C134.205 164.835 134.024 165.464 134.024 166.36V171H132.2V162.184H134.024V163.464ZM144.625 163.672V168.552C144.625 168.883 144.7 169.123 144.849 169.272C145.009 169.411 145.276 169.48 145.649 169.48H146.769V171H145.329C144.508 171 143.878 170.808 143.441 170.424C143.004 170.04 142.785 169.416 142.785 168.552V163.672H141.745V162.184H142.785V159.992H144.625V162.184H146.769V163.672H144.625ZM153.01 162.04C153.682 162.04 154.279 162.184 154.802 162.472C155.335 162.76 155.751 163.187 156.05 163.752C156.359 164.317 156.514 165 156.514 165.8V171H154.706V166.072C154.706 165.283 154.509 164.68 154.114 164.264C153.719 163.837 153.181 163.624 152.498 163.624C151.815 163.624 151.271 163.837 150.866 164.264C150.471 164.68 150.274 165.283 150.274 166.072V171H148.45V159.16H150.274V163.208C150.583 162.835 150.973 162.547 151.442 162.344C151.922 162.141 152.445 162.04 153.01 162.04ZM166.921 166.376C166.921 166.707 166.899 167.005 166.857 167.272H160.121C160.174 167.976 160.435 168.541 160.905 168.968C161.374 169.395 161.95 169.608 162.633 169.608C163.614 169.608 164.307 169.197 164.713 168.376H166.681C166.414 169.187 165.929 169.853 165.225 170.376C164.531 170.888 163.667 171.144 162.633 171.144C161.79 171.144 161.033 170.957 160.361 170.584C159.699 170.2 159.177 169.667 158.793 168.984C158.419 168.291 158.233 167.491 158.233 166.584C158.233 165.677 158.414 164.883 158.777 164.2C159.15 163.507 159.667 162.973 160.329 162.6C161.001 162.227 161.769 162.04 162.633 162.04C163.465 162.04 164.206 162.221 164.857 162.584C165.507 162.947 166.014 163.459 166.377 164.12C166.739 164.771 166.921 165.523 166.921 166.376ZM165.017 165.8C165.006 165.128 164.766 164.589 164.297 164.184C163.827 163.779 163.246 163.576 162.553 163.576C161.923 163.576 161.385 163.779 160.937 164.184C160.489 164.579 160.222 165.117 160.137 165.8H165.017ZM176.568 163.672H174.936V171H173.096V163.672H172.056V162.184H173.096V161.56C173.096 160.547 173.363 159.811 173.896 159.352C174.44 158.883 175.288 158.648 176.44 158.648V160.168C175.885 160.168 175.496 160.275 175.272 160.488C175.048 160.691 174.936 161.048 174.936 161.56V162.184H176.568V163.672ZM186.168 162.184V171H184.344V169.96C184.056 170.323 183.678 170.611 183.208 170.824C182.75 171.027 182.259 171.128 181.736 171.128C181.043 171.128 180.419 170.984 179.864 170.696C179.32 170.408 178.888 169.981 178.568 169.416C178.259 168.851 178.104 168.168 178.104 167.368V162.184H179.912V167.096C179.912 167.885 180.11 168.493 180.504 168.92C180.899 169.336 181.438 169.544 182.12 169.544C182.803 169.544 183.342 169.336 183.736 168.92C184.142 168.493 184.344 167.885 184.344 167.096V162.184H186.168ZM193.023 162.04C193.716 162.04 194.335 162.184 194.879 162.472C195.434 162.76 195.866 163.187 196.175 163.752C196.484 164.317 196.639 165 196.639 165.8V171H194.831V166.072C194.831 165.283 194.634 164.68 194.239 164.264C193.844 163.837 193.306 163.624 192.623 163.624C191.94 163.624 191.396 163.837 190.991 164.264C190.596 164.68 190.399 165.283 190.399 166.072V171H188.575V162.184H190.399V163.192C190.698 162.829 191.076 162.547 191.535 162.344C192.004 162.141 192.5 162.04 193.023 162.04Z" fill="#544837"/>
<path d="M6.886 88.644C8.49933 88.644 9.91467 88.9593 11.132 89.59C12.364 90.2207 13.31 91.1227 13.97 92.296C14.6447 93.4547 14.982 94.804 14.982 96.344C14.982 97.884 14.6447 99.2333 13.97 100.392C13.31 101.536 12.364 102.423 11.132 103.054C9.91467 103.685 8.49933 104 6.886 104H1.518V88.644H6.886ZM6.776 101.382C8.38933 101.382 9.636 100.942 10.516 100.062C11.396 99.182 11.836 97.9427 11.836 96.344C11.836 94.7453 11.396 93.4987 10.516 92.604C9.636 91.6947 8.38933 91.24 6.776 91.24H4.598V101.382H6.776ZM28.6175 97.642C28.6175 98.082 28.5882 98.478 28.5295 98.83H19.6195C19.6929 99.71 20.0009 100.399 20.5435 100.898C21.0862 101.397 21.7535 101.646 22.5455 101.646C23.6895 101.646 24.5035 101.155 24.9875 100.172H28.3095C27.9575 101.345 27.2829 102.313 26.2855 103.076C25.2882 103.824 24.0635 104.198 22.6115 104.198C21.4382 104.198 20.3822 103.941 19.4435 103.428C18.5195 102.9 17.7935 102.159 17.2655 101.206C16.7522 100.253 16.4955 99.1527 16.4955 97.906C16.4955 96.6447 16.7522 95.5373 17.2655 94.584C17.7789 93.6307 18.4975 92.8973 19.4215 92.384C20.3455 91.8707 21.4089 91.614 22.6115 91.614C23.7702 91.614 24.8042 91.8633 25.7135 92.362C26.6375 92.8607 27.3489 93.572 27.8475 94.496C28.3609 95.4053 28.6175 96.454 28.6175 97.642ZM25.4275 96.762C25.4129 95.97 25.1269 95.3393 24.5695 94.87C24.0122 94.386 23.3302 94.144 22.5235 94.144C21.7609 94.144 21.1155 94.3787 20.5875 94.848C20.0742 95.3027 19.7589 95.9407 19.6415 96.762H25.4275ZM35.5297 104.198C34.5323 104.198 33.6377 104.022 32.8457 103.67C32.0537 103.303 31.423 102.812 30.9537 102.196C30.499 101.58 30.2497 100.898 30.2057 100.15H33.3077C33.3663 100.619 33.5937 101.008 33.9897 101.316C34.4003 101.624 34.9063 101.778 35.5077 101.778C36.0943 101.778 36.549 101.661 36.8717 101.426C37.209 101.191 37.3777 100.891 37.3777 100.524C37.3777 100.128 37.1723 99.8347 36.7617 99.644C36.3657 99.4387 35.7277 99.2187 34.8477 98.984C33.9383 98.764 33.1903 98.5367 32.6037 98.302C32.0317 98.0673 31.533 97.708 31.1077 97.224C30.697 96.74 30.4917 96.0873 30.4917 95.266C30.4917 94.5913 30.6823 93.9753 31.0637 93.418C31.4597 92.8607 32.017 92.4207 32.7357 92.098C33.469 91.7753 34.327 91.614 35.3097 91.614C36.7617 91.614 37.9203 91.9807 38.7857 92.714C39.651 93.4327 40.1277 94.408 40.2157 95.64H37.2677C37.2237 95.156 37.0183 94.7747 36.6517 94.496C36.2997 94.2027 35.823 94.056 35.2217 94.056C34.6643 94.056 34.2317 94.1587 33.9237 94.364C33.6303 94.5693 33.4837 94.8553 33.4837 95.222C33.4837 95.6327 33.689 95.948 34.0997 96.168C34.5103 96.3733 35.1483 96.586 36.0137 96.806C36.8937 97.026 37.6197 97.2533 38.1917 97.488C38.7637 97.7227 39.255 98.0893 39.6657 98.588C40.091 99.072 40.311 99.7173 40.3257 100.524C40.3257 101.228 40.1277 101.859 39.7317 102.416C39.3503 102.973 38.793 103.413 38.0597 103.736C37.341 104.044 36.4977 104.198 35.5297 104.198ZM44.4159 90.36C43.8733 90.36 43.4186 90.1913 43.0519 89.854C42.6999 89.502 42.5239 89.0693 42.5239 88.556C42.5239 88.0427 42.6999 87.6173 43.0519 87.28C43.4186 86.928 43.8733 86.752 44.4159 86.752C44.9586 86.752 45.4059 86.928 45.7579 87.28C46.1246 87.6173 46.3079 88.0427 46.3079 88.556C46.3079 89.0693 46.1246 89.502 45.7579 89.854C45.4059 90.1913 44.9586 90.36 44.4159 90.36ZM45.9339 91.812V104H42.8539V91.812H45.9339ZM53.751 91.614C54.6603 91.614 55.4597 91.7973 56.149 92.164C56.8383 92.516 57.381 92.978 57.777 93.55V91.812H60.879V104.088C60.879 105.217 60.6517 106.222 60.197 107.102C59.7423 107.997 59.0603 108.701 58.151 109.214C57.2417 109.742 56.1417 110.006 54.851 110.006C53.1203 110.006 51.6977 109.603 50.583 108.796C49.483 107.989 48.8597 106.889 48.713 105.496H51.771C51.9323 106.053 52.277 106.493 52.805 106.816C53.3477 107.153 54.0003 107.322 54.763 107.322C55.6577 107.322 56.3837 107.051 56.941 106.508C57.4983 105.98 57.777 105.173 57.777 104.088V102.196C57.381 102.768 56.831 103.245 56.127 103.626C55.4377 104.007 54.6457 104.198 53.751 104.198C52.7243 104.198 51.7857 103.934 50.935 103.406C50.0843 102.878 49.4097 102.137 48.911 101.184C48.427 100.216 48.185 99.1087 48.185 97.862C48.185 96.63 48.427 95.5373 48.911 94.584C49.4097 93.6307 50.077 92.8973 50.913 92.384C51.7637 91.8707 52.7097 91.614 53.751 91.614ZM57.777 97.906C57.777 97.158 57.6303 96.52 57.337 95.992C57.0437 95.4493 56.6477 95.0387 56.149 94.76C55.6503 94.4667 55.115 94.32 54.543 94.32C53.971 94.32 53.443 94.4593 52.959 94.738C52.475 95.0167 52.079 95.4273 51.771 95.97C51.4777 96.498 51.331 97.1287 51.331 97.862C51.331 98.5953 51.4777 99.2407 51.771 99.798C52.079 100.341 52.475 100.759 52.959 101.052C53.4577 101.345 53.9857 101.492 54.543 101.492C55.115 101.492 55.6503 101.353 56.149 101.074C56.6477 100.781 57.0437 100.37 57.337 99.842C57.6303 99.2993 57.777 98.654 57.777 97.906ZM70.6411 91.636C72.0931 91.636 73.2665 92.098 74.1611 93.022C75.0558 93.9313 75.5031 95.2073 75.5031 96.85V104H72.4231V97.268C72.4231 96.3 72.1811 95.5593 71.6971 95.046C71.2131 94.518 70.5531 94.254 69.7171 94.254C68.8665 94.254 68.1918 94.518 67.6931 95.046C67.2091 95.5593 66.9671 96.3 66.9671 97.268V104H63.8871V91.812H66.9671V93.33C67.3778 92.802 67.8985 92.3913 68.5291 92.098C69.1745 91.79 69.8785 91.636 70.6411 91.636ZM88.3383 104.198C87.3409 104.198 86.4463 104.022 85.6543 103.67C84.8623 103.303 84.2316 102.812 83.7623 102.196C83.3076 101.58 83.0583 100.898 83.0143 100.15H86.1163C86.1749 100.619 86.4023 101.008 86.7983 101.316C87.2089 101.624 87.7149 101.778 88.3163 101.778C88.9029 101.778 89.3576 101.661 89.6803 101.426C90.0176 101.191 90.1863 100.891 90.1863 100.524C90.1863 100.128 89.9809 99.8347 89.5703 99.644C89.1743 99.4387 88.5363 99.2187 87.6562 98.984C86.7469 98.764 85.9989 98.5367 85.4123 98.302C84.8403 98.0673 84.3416 97.708 83.9163 97.224C83.5056 96.74 83.3003 96.0873 83.3003 95.266C83.3003 94.5913 83.4909 93.9753 83.8723 93.418C84.2683 92.8607 84.8256 92.4207 85.5443 92.098C86.2776 91.7753 87.1356 91.614 88.1183 91.614C89.5703 91.614 90.7289 91.9807 91.5943 92.714C92.4596 93.4327 92.9363 94.408 93.0243 95.64H90.0763C90.0323 95.156 89.8269 94.7747 89.4603 94.496C89.1083 94.2027 88.6316 94.056 88.0303 94.056C87.4729 94.056 87.0403 94.1587 86.7323 94.364C86.4389 94.5693 86.2923 94.8553 86.2923 95.222C86.2923 95.6327 86.4976 95.948 86.9083 96.168C87.3189 96.3733 87.9569 96.586 88.8223 96.806C89.7023 97.026 90.4283 97.2533 91.0003 97.488C91.5723 97.7227 92.0636 98.0893 92.4743 98.588C92.8996 99.072 93.1196 99.7173 93.1343 100.524C93.1343 101.228 92.9363 101.859 92.5403 102.416C92.1589 102.973 91.6016 103.413 90.8683 103.736C90.1496 104.044 89.3063 104.198 88.3383 104.198ZM107.169 91.812V104H104.067V102.46C103.671 102.988 103.15 103.406 102.505 103.714C101.874 104.007 101.185 104.154 100.437 104.154C99.4832 104.154 98.6399 103.956 97.9065 103.56C97.1732 103.149 96.5939 102.555 96.1685 101.778C95.7579 100.986 95.5525 100.047 95.5525 98.962V91.812H98.6325V98.522C98.6325 99.49 98.8745 100.238 99.3585 100.766C99.8425 101.279 100.503 101.536 101.339 101.536C102.189 101.536 102.857 101.279 103.341 100.766C103.825 100.238 104.067 99.49 104.067 98.522V91.812H107.169ZM113.287 93.704C113.683 93.0587 114.197 92.5527 114.827 92.186C115.473 91.8193 116.206 91.636 117.027 91.636V94.87H116.213C115.245 94.87 114.512 95.0973 114.013 95.552C113.529 96.0067 113.287 96.7987 113.287 97.928V104H110.207V91.812H113.287V93.704ZM124.184 101.162L127.264 91.812H130.542L126.032 104H122.292L117.804 91.812H121.104L124.184 101.162ZM143.602 97.642C143.602 98.082 143.573 98.478 143.514 98.83H134.604C134.677 99.71 134.985 100.399 135.528 100.898C136.071 101.397 136.738 101.646 137.53 101.646C138.674 101.646 139.488 101.155 139.972 100.172H143.294C142.942 101.345 142.267 102.313 141.27 103.076C140.273 103.824 139.048 104.198 137.596 104.198C136.423 104.198 135.367 103.941 134.428 103.428C133.504 102.9 132.778 102.159 132.25 101.206C131.737 100.253 131.48 99.1527 131.48 97.906C131.48 96.6447 131.737 95.5373 132.25 94.584C132.763 93.6307 133.482 92.8973 134.406 92.384C135.33 91.8707 136.393 91.614 137.596 91.614C138.755 91.614 139.789 91.8633 140.698 92.362C141.622 92.8607 142.333 93.572 142.832 94.496C143.345 95.4053 143.602 96.454 143.602 97.642ZM140.412 96.762C140.397 95.97 140.111 95.3393 139.554 94.87C138.997 94.386 138.315 94.144 137.508 94.144C136.745 94.144 136.1 94.3787 135.572 94.848C135.059 95.3027 134.743 95.9407 134.626 96.762H140.412ZM157.51 91.812L149.964 109.764H146.686L149.326 103.692L144.442 91.812H147.896L151.042 100.326L154.232 91.812H157.51ZM163.834 104.198C162.837 104.198 161.942 104.022 161.15 103.67C160.358 103.303 159.728 102.812 159.258 102.196C158.804 101.58 158.554 100.898 158.51 100.15H161.612C161.671 100.619 161.898 101.008 162.294 101.316C162.705 101.624 163.211 101.778 163.812 101.778C164.399 101.778 164.854 101.661 165.176 101.426C165.514 101.191 165.682 100.891 165.682 100.524C165.682 100.128 165.477 99.8347 165.066 99.644C164.67 99.4387 164.032 99.2187 163.152 98.984C162.243 98.764 161.495 98.5367 160.908 98.302C160.336 98.0673 159.838 97.708 159.412 97.224C159.002 96.74 158.796 96.0873 158.796 95.266C158.796 94.5913 158.987 93.9753 159.368 93.418C159.764 92.8607 160.322 92.4207 161.04 92.098C161.774 91.7753 162.632 91.614 163.614 91.614C165.066 91.614 166.225 91.9807 167.09 92.714C167.956 93.4327 168.432 94.408 168.52 95.64H165.572C165.528 95.156 165.323 94.7747 164.956 94.496C164.604 94.2027 164.128 94.056 163.526 94.056C162.969 94.056 162.536 94.1587 162.228 94.364C161.935 94.5693 161.788 94.8553 161.788 95.222C161.788 95.6327 161.994 95.948 162.404 96.168C162.815 96.3733 163.453 96.586 164.318 96.806C165.198 97.026 165.924 97.2533 166.496 97.488C167.068 97.7227 167.56 98.0893 167.97 98.588C168.396 99.072 168.616 99.7173 168.63 100.524C168.63 101.228 168.432 101.859 168.036 102.416C167.655 102.973 167.098 103.413 166.364 103.736C165.646 104.044 164.802 104.198 163.834 104.198Z" fill="#2F281E"/>
</g>
<defs>
<filter id="filter0_f_0_548" x="-27.1828" y="-2.18282" width="104.366" height="79.3656" filterUnits="userSpaceOnUse" color-interpolation-filters="sRGB">
<feFlood flood-opacity="0" result="BackgroundImageFix"/>
<feBlend mode="normal" in="SourceGraphic" in2="BackgroundImageFix" result="shape"/>
<feGaussianBlur stdDeviation="13.5914" result="effect1_foregroundBlur_0_548"/>
</filter>
<clipPath id="clip0_0_548">
<rect width="50" height="50" fill="white"/>
</clipPath>
<clipPath id="clip1_0_548">
<rect width="240" height="98" fill="white" transform="translate(0 80)"/>
</clipPath>
</defs>
</svg>
