<svg width="240" height="178" viewBox="0 0 240 178" fill="none" xmlns="http://www.w3.org/2000/svg">
<g clip-path="url(#clip0_0_540)">
<g opacity="0.848005" filter="url(#filter0_f_0_540)">
<rect x="0.5" y="25" width="50" height="25" rx="12.5" fill="#7752BE"/>
</g>
<rect width="50" height="50" rx="19" fill="#7752BE"/>
<path d="M29.1161 27.5982L19.9732 18.4554C19.8661 18.3393 19.7232 18.2857 19.5714 18.2857C19.5 18.2857 19.4196 18.3036 19.3571 18.3304C19.1429 18.4196 19 18.625 19 18.8571V32.2857C19 32.5179 19.1429 32.7232 19.3571 32.8125C19.4196 32.8393 19.5 32.8571 19.5714 32.8571C19.7232 32.8571 19.8661 32.7946 19.9732 32.6875L22.7589 29.9018L24.4643 33.9375C24.5893 34.2232 24.9196 34.3661 25.2143 34.2411L26.7946 33.5714C27.0804 33.4464 27.2232 33.1161 27.0982 32.8214L25.3036 28.5714H28.7143C28.9464 28.5714 29.1518 28.4286 29.2411 28.2143C29.3304 28.0089 29.2857 27.7589 29.1161 27.5982Z" fill="white"/>
</g>
<g clip-path="url(#clip1_0_540)">
<path d="M15.68 133.88L12.384 145H10.32L7.984 136.584L5.504 145L3.456 145.016L0.304 133.88H2.24L4.544 142.936L7.04 133.88H9.088L11.408 142.888L13.728 133.88H15.68ZM21.7444 136.04C22.4164 136.04 23.0137 136.184 23.5364 136.472C24.0697 136.76 24.4857 137.187 24.7844 137.752C25.0937 138.317 25.2484 139 25.2484 139.8V145H23.4404V140.072C23.4404 139.283 23.243 138.68 22.8484 138.264C22.4537 137.837 21.915 137.624 21.2324 137.624C20.5497 137.624 20.0057 137.837 19.6004 138.264C19.2057 138.68 19.0084 139.283 19.0084 140.072V145H17.1844V133.16H19.0084V137.208C19.3177 136.835 19.707 136.547 20.1764 136.344C20.6564 136.141 21.179 136.04 21.7444 136.04ZM28.503 135.016C28.1723 135.016 27.895 134.904 27.671 134.68C27.447 134.456 27.335 134.179 27.335 133.848C27.335 133.517 27.447 133.24 27.671 133.016C27.895 132.792 28.1723 132.68 28.503 132.68C28.823 132.68 29.095 132.792 29.319 133.016C29.543 133.24 29.655 133.517 29.655 133.848C29.655 134.179 29.543 134.456 29.319 134.68C29.095 134.904 28.823 135.016 28.503 135.016ZM29.399 136.184V145H27.575V136.184H29.399ZM33.6178 133.16V145H31.7938V133.16H33.6178ZM44.0925 140.376C44.0925 140.707 44.0712 141.005 44.0285 141.272H37.2925C37.3458 141.976 37.6072 142.541 38.0765 142.968C38.5458 143.395 39.1218 143.608 39.8045 143.608C40.7858 143.608 41.4792 143.197 41.8845 142.376H43.8525C43.5858 143.187 43.1005 143.853 42.3965 144.376C41.7032 144.888 40.8392 145.144 39.8045 145.144C38.9618 145.144 38.2045 144.957 37.5325 144.584C36.8712 144.2 36.3485 143.667 35.9645 142.984C35.5912 142.291 35.4045 141.491 35.4045 140.584C35.4045 139.677 35.5858 138.883 35.9485 138.2C36.3218 137.507 36.8392 136.973 37.5005 136.6C38.1725 136.227 38.9405 136.04 39.8045 136.04C40.6365 136.04 41.3778 136.221 42.0285 136.584C42.6792 136.947 43.1858 137.459 43.5485 138.12C43.9112 138.771 44.0925 139.523 44.0925 140.376ZM42.1885 139.8C42.1778 139.128 41.9378 138.589 41.4685 138.184C40.9992 137.779 40.4178 137.576 39.7245 137.576C39.0952 137.576 38.5565 137.779 38.1085 138.184C37.6605 138.579 37.3938 139.117 37.3085 139.8H42.1885ZM60.7158 136.04C61.4091 136.04 62.0278 136.184 62.5718 136.472C63.1264 136.76 63.5584 137.187 63.8678 137.752C64.1878 138.317 64.3478 139 64.3478 139.8V145H62.5398V140.072C62.5398 139.283 62.3424 138.68 61.9478 138.264C61.5531 137.837 61.0144 137.624 60.3318 137.624C59.6491 137.624 59.1051 137.837 58.6998 138.264C58.3051 138.68 58.1078 139.283 58.1078 140.072V145H56.2998V140.072C56.2998 139.283 56.1024 138.68 55.7078 138.264C55.3131 137.837 54.7744 137.624 54.0918 137.624C53.4091 137.624 52.8651 137.837 52.4598 138.264C52.0651 138.68 51.8678 139.283 51.8678 140.072V145H50.0438V136.184H51.8678V137.192C52.1664 136.829 52.5451 136.547 53.0038 136.344C53.4624 136.141 53.9531 136.04 54.4758 136.04C55.1798 136.04 55.8091 136.189 56.3638 136.488C56.9184 136.787 57.3451 137.219 57.6438 137.784C57.9104 137.251 58.3264 136.829 58.8918 136.52C59.4571 136.2 60.0651 136.04 60.7158 136.04ZM70.4928 145.144C69.6608 145.144 68.9088 144.957 68.2368 144.584C67.5648 144.2 67.0368 143.667 66.6528 142.984C66.2688 142.291 66.0768 141.491 66.0768 140.584C66.0768 139.688 66.2741 138.893 66.6688 138.2C67.0634 137.507 67.6021 136.973 68.2848 136.6C68.9674 136.227 69.7301 136.04 70.5728 136.04C71.4154 136.04 72.1781 136.227 72.8608 136.6C73.5434 136.973 74.0821 137.507 74.4768 138.2C74.8714 138.893 75.0688 139.688 75.0688 140.584C75.0688 141.48 74.8661 142.275 74.4608 142.968C74.0554 143.661 73.5008 144.2 72.7968 144.584C72.1034 144.957 71.3354 145.144 70.4928 145.144ZM70.4928 143.56C70.9621 143.56 71.3994 143.448 71.8048 143.224C72.2208 143 72.5568 142.664 72.8128 142.216C73.0688 141.768 73.1968 141.224 73.1968 140.584C73.1968 139.944 73.0741 139.405 72.8288 138.968C72.5834 138.52 72.2581 138.184 71.8528 137.96C71.4474 137.736 71.0101 137.624 70.5408 137.624C70.0714 137.624 69.6341 137.736 69.2288 137.96C68.8341 138.184 68.5194 138.52 68.2848 138.968C68.0501 139.405 67.9328 139.944 67.9328 140.584C67.9328 141.533 68.1728 142.269 68.6528 142.792C69.1434 143.304 69.7568 143.56 70.4928 143.56ZM80.0719 145.144C79.3785 145.144 78.7545 145.021 78.1999 144.776C77.6559 144.52 77.2239 144.179 76.9039 143.752C76.5839 143.315 76.4132 142.829 76.3919 142.296H78.2799C78.3119 142.669 78.4879 142.984 78.8079 143.24C79.1385 143.485 79.5492 143.608 80.0399 143.608C80.5519 143.608 80.9465 143.512 81.2239 143.32C81.5119 143.117 81.6559 142.861 81.6559 142.552C81.6559 142.221 81.4959 141.976 81.1759 141.816C80.8665 141.656 80.3705 141.48 79.6879 141.288C79.0265 141.107 78.4879 140.931 78.0719 140.76C77.6559 140.589 77.2932 140.328 76.9839 139.976C76.6852 139.624 76.5359 139.16 76.5359 138.584C76.5359 138.115 76.6745 137.688 76.9519 137.304C77.2292 136.909 77.6239 136.6 78.1359 136.376C78.6585 136.152 79.2559 136.04 79.9279 136.04C80.9305 136.04 81.7359 136.296 82.3439 136.808C82.9625 137.309 83.2932 137.997 83.3359 138.872H81.5119C81.4799 138.477 81.3199 138.163 81.0319 137.928C80.7439 137.693 80.3545 137.576 79.8639 137.576C79.3839 137.576 79.0159 137.667 78.7599 137.848C78.5039 138.029 78.3759 138.269 78.3759 138.568C78.3759 138.803 78.4612 139 78.6319 139.16C78.8025 139.32 79.0105 139.448 79.2559 139.544C79.5012 139.629 79.8639 139.741 80.3439 139.88C80.9839 140.051 81.5065 140.227 81.9119 140.408C82.3279 140.579 82.6852 140.835 82.9839 141.176C83.2825 141.517 83.4372 141.971 83.4479 142.536C83.4479 143.037 83.3092 143.485 83.0319 143.88C82.7545 144.275 82.3599 144.584 81.8479 144.808C81.3465 145.032 80.7545 145.144 80.0719 145.144ZM87.5468 137.672V142.552C87.5468 142.883 87.6214 143.123 87.7708 143.272C87.9308 143.411 88.1974 143.48 88.5708 143.48H89.6908V145H88.2508C87.4294 145 86.8001 144.808 86.3628 144.424C85.9254 144.04 85.7068 143.416 85.7068 142.552V137.672H84.6668V136.184H85.7068V133.992H87.5468V136.184H89.6908V137.672H87.5468ZM97.3521 137.48C97.6615 137.075 98.0828 136.733 98.6161 136.456C99.1495 136.179 99.7521 136.04 100.424 136.04C101.192 136.04 101.891 136.232 102.52 136.616C103.16 136.989 103.661 137.517 104.024 138.2C104.387 138.883 104.568 139.667 104.568 140.552C104.568 141.437 104.387 142.232 104.024 142.936C103.661 143.629 103.16 144.173 102.52 144.568C101.891 144.952 101.192 145.144 100.424 145.144C99.7521 145.144 99.1548 145.011 98.6321 144.744C98.1095 144.467 97.6828 144.125 97.3521 143.72V149.192H95.5281V136.184H97.3521V137.48ZM102.712 140.552C102.712 139.944 102.584 139.421 102.328 138.984C102.083 138.536 101.752 138.2 101.336 137.976C100.931 137.741 100.493 137.624 100.024 137.624C99.5655 137.624 99.1281 137.741 98.7121 137.976C98.3068 138.211 97.9761 138.552 97.7201 139C97.4748 139.448 97.3521 139.976 97.3521 140.584C97.3521 141.192 97.4748 141.725 97.7201 142.184C97.9761 142.632 98.3068 142.973 98.7121 143.208C99.1281 143.443 99.5655 143.56 100.024 143.56C100.493 143.56 100.931 143.443 101.336 143.208C101.752 142.963 102.083 142.611 102.328 142.152C102.584 141.693 102.712 141.16 102.712 140.552ZM114.452 140.376C114.452 140.707 114.431 141.005 114.388 141.272H107.652C107.705 141.976 107.967 142.541 108.436 142.968C108.905 143.395 109.481 143.608 110.164 143.608C111.145 143.608 111.839 143.197 112.244 142.376H114.212C113.945 143.187 113.46 143.853 112.756 144.376C112.063 144.888 111.199 145.144 110.164 145.144C109.321 145.144 108.564 144.957 107.892 144.584C107.231 144.2 106.708 143.667 106.324 142.984C105.951 142.291 105.764 141.491 105.764 140.584C105.764 139.677 105.945 138.883 106.308 138.2C106.681 137.507 107.199 136.973 107.86 136.6C108.532 136.227 109.3 136.04 110.164 136.04C110.996 136.04 111.737 136.221 112.388 136.584C113.039 136.947 113.545 137.459 113.908 138.12C114.271 138.771 114.452 139.523 114.452 140.376ZM112.548 139.8C112.537 139.128 112.297 138.589 111.828 138.184C111.359 137.779 110.777 137.576 110.084 137.576C109.455 137.576 108.916 137.779 108.468 138.184C108.02 138.579 107.753 139.117 107.668 139.8H112.548ZM120.071 145.144C119.239 145.144 118.487 144.957 117.815 144.584C117.143 144.2 116.615 143.667 116.231 142.984C115.847 142.291 115.655 141.491 115.655 140.584C115.655 139.688 115.852 138.893 116.247 138.2C116.642 137.507 117.18 136.973 117.863 136.6C118.546 136.227 119.308 136.04 120.151 136.04C120.994 136.04 121.756 136.227 122.439 136.6C123.122 136.973 123.66 137.507 124.055 138.2C124.45 138.893 124.647 139.688 124.647 140.584C124.647 141.48 124.444 142.275 124.039 142.968C123.634 143.661 123.079 144.2 122.375 144.584C121.682 144.957 120.914 145.144 120.071 145.144ZM120.071 143.56C120.54 143.56 120.978 143.448 121.383 143.224C121.799 143 122.135 142.664 122.391 142.216C122.647 141.768 122.775 141.224 122.775 140.584C122.775 139.944 122.652 139.405 122.407 138.968C122.162 138.52 121.836 138.184 121.431 137.96C121.026 137.736 120.588 137.624 120.119 137.624C119.65 137.624 119.212 137.736 118.807 137.96C118.412 138.184 118.098 138.52 117.863 138.968C117.628 139.405 117.511 139.944 117.511 140.584C117.511 141.533 117.751 142.269 118.231 142.792C118.722 143.304 119.335 143.56 120.071 143.56ZM128.274 137.48C128.583 137.075 129.005 136.733 129.538 136.456C130.071 136.179 130.674 136.04 131.346 136.04C132.114 136.04 132.813 136.232 133.442 136.616C134.082 136.989 134.583 137.517 134.946 138.2C135.309 138.883 135.49 139.667 135.49 140.552C135.49 141.437 135.309 142.232 134.946 142.936C134.583 143.629 134.082 144.173 133.442 144.568C132.813 144.952 132.114 145.144 131.346 145.144C130.674 145.144 130.077 145.011 129.554 144.744C129.031 144.467 128.605 144.125 128.274 143.72V149.192H126.45V136.184H128.274V137.48ZM133.634 140.552C133.634 139.944 133.506 139.421 133.25 138.984C133.005 138.536 132.674 138.2 132.258 137.976C131.853 137.741 131.415 137.624 130.946 137.624C130.487 137.624 130.05 137.741 129.634 137.976C129.229 138.211 128.898 138.552 128.642 139C128.397 139.448 128.274 139.976 128.274 140.584C128.274 141.192 128.397 141.725 128.642 142.184C128.898 142.632 129.229 142.973 129.634 143.208C130.05 143.443 130.487 143.56 130.946 143.56C131.415 143.56 131.853 143.443 132.258 143.208C132.674 142.963 133.005 142.611 133.25 142.152C133.506 141.693 133.634 141.16 133.634 140.552ZM139.118 133.16V145H137.294V133.16H139.118ZM149.593 140.376C149.593 140.707 149.571 141.005 149.529 141.272H142.793C142.846 141.976 143.107 142.541 143.577 142.968C144.046 143.395 144.622 143.608 145.305 143.608C146.286 143.608 146.979 143.197 147.385 142.376H149.352C149.086 143.187 148.601 143.853 147.897 144.376C147.203 144.888 146.339 145.144 145.305 145.144C144.462 145.144 143.705 144.957 143.033 144.584C142.371 144.2 141.849 143.667 141.465 142.984C141.091 142.291 140.905 141.491 140.905 140.584C140.905 139.677 141.086 138.883 141.449 138.2C141.822 137.507 142.339 136.973 143.001 136.6C143.673 136.227 144.441 136.04 145.305 136.04C146.137 136.04 146.878 136.221 147.529 136.584C148.179 136.947 148.686 137.459 149.049 138.12C149.411 138.771 149.593 139.523 149.593 140.376ZM147.689 139.8C147.678 139.128 147.438 138.589 146.969 138.184C146.499 137.779 145.918 137.576 145.225 137.576C144.595 137.576 144.057 137.779 143.609 138.184C143.161 138.579 142.894 139.117 142.809 139.8H147.689ZM163.624 140.376C163.624 140.707 163.602 141.005 163.56 141.272H156.824C156.877 141.976 157.138 142.541 157.608 142.968C158.077 143.395 158.653 143.608 159.336 143.608C160.317 143.608 161.01 143.197 161.416 142.376H163.384C163.117 143.187 162.632 143.853 161.928 144.376C161.234 144.888 160.37 145.144 159.336 145.144C158.493 145.144 157.736 144.957 157.064 144.584C156.402 144.2 155.88 143.667 155.496 142.984C155.122 142.291 154.936 141.491 154.936 140.584C154.936 139.677 155.117 138.883 155.48 138.2C155.853 137.507 156.37 136.973 157.032 136.6C157.704 136.227 158.472 136.04 159.336 136.04C160.168 136.04 160.909 136.221 161.56 136.584C162.21 136.947 162.717 137.459 163.08 138.12C163.442 138.771 163.624 139.523 163.624 140.376ZM161.72 139.8C161.709 139.128 161.469 138.589 161 138.184C160.53 137.779 159.949 137.576 159.256 137.576C158.626 137.576 158.088 137.779 157.64 138.184C157.192 138.579 156.925 139.117 156.84 139.8H161.72ZM169.867 136.04C170.56 136.04 171.179 136.184 171.723 136.472C172.277 136.76 172.709 137.187 173.019 137.752C173.328 138.317 173.483 139 173.483 139.8V145H171.675V140.072C171.675 139.283 171.477 138.68 171.083 138.264C170.688 137.837 170.149 137.624 169.467 137.624C168.784 137.624 168.24 137.837 167.835 138.264C167.44 138.68 167.243 139.283 167.243 140.072V145H165.419V136.184H167.243V137.192C167.541 136.829 167.92 136.547 168.379 136.344C168.848 136.141 169.344 136.04 169.867 136.04ZM176.737 135.016C176.407 135.016 176.129 134.904 175.905 134.68C175.681 134.456 175.569 134.179 175.569 133.848C175.569 133.517 175.681 133.24 175.905 133.016C176.129 132.792 176.407 132.68 176.737 132.68C177.057 132.68 177.329 132.792 177.553 133.016C177.777 133.24 177.889 133.517 177.889 133.848C177.889 134.179 177.777 134.456 177.553 134.68C177.329 134.904 177.057 135.016 176.737 135.016ZM177.633 146.728C177.633 147.592 177.415 148.216 176.977 148.6C176.551 148.995 175.927 149.192 175.105 149.192H174.161V147.656H174.785C175.159 147.656 175.42 147.581 175.569 147.432C175.729 147.293 175.809 147.059 175.809 146.728V136.184H177.633V146.728ZM183.852 145.144C183.02 145.144 182.268 144.957 181.596 144.584C180.924 144.2 180.396 143.667 180.012 142.984C179.628 142.291 179.436 141.491 179.436 140.584C179.436 139.688 179.633 138.893 180.028 138.2C180.423 137.507 180.961 136.973 181.644 136.6C182.327 136.227 183.089 136.04 183.932 136.04C184.775 136.04 185.537 136.227 186.22 136.6C186.903 136.973 187.441 137.507 187.836 138.2C188.231 138.893 188.428 139.688 188.428 140.584C188.428 141.48 188.225 142.275 187.82 142.968C187.415 143.661 186.86 144.2 186.156 144.584C185.463 144.957 184.695 145.144 183.852 145.144ZM183.852 143.56C184.321 143.56 184.759 143.448 185.164 143.224C185.58 143 185.916 142.664 186.172 142.216C186.428 141.768 186.556 141.224 186.556 140.584C186.556 139.944 186.433 139.405 186.188 138.968C185.943 138.52 185.617 138.184 185.212 137.96C184.807 137.736 184.369 137.624 183.9 137.624C183.431 137.624 182.993 137.736 182.588 137.96C182.193 138.184 181.879 138.52 181.644 138.968C181.409 139.405 181.292 139.944 181.292 140.584C181.292 141.533 181.532 142.269 182.012 142.792C182.503 143.304 183.116 143.56 183.852 143.56ZM198.167 136.184L192.759 149.144H190.871L192.663 144.856L189.191 136.184H191.223L193.703 142.904L196.279 136.184H198.167ZM0.592 166.584C0.592 165.677 0.773333 164.883 1.136 164.2C1.50933 163.507 2.02133 162.973 2.672 162.6C3.32267 162.227 4.06933 162.04 4.912 162.04C5.97867 162.04 6.85867 162.296 7.552 162.808C8.256 163.309 8.73067 164.029 8.976 164.968H7.008C6.848 164.531 6.592 164.189 6.24 163.944C5.888 163.699 5.44533 163.576 4.912 163.576C4.16533 163.576 3.568 163.843 3.12 164.376C2.68267 164.899 2.464 165.635 2.464 166.584C2.464 167.533 2.68267 168.275 3.12 168.808C3.568 169.341 4.16533 169.608 4.912 169.608C5.968 169.608 6.66667 169.144 7.008 168.216H8.976C8.72 169.112 8.24 169.827 7.536 170.36C6.832 170.883 5.95733 171.144 4.912 171.144C4.06933 171.144 3.32267 170.957 2.672 170.584C2.02133 170.2 1.50933 169.667 1.136 168.984C0.773333 168.291 0.592 167.491 0.592 166.584ZM10.1858 166.552C10.1858 165.667 10.3671 164.883 10.7298 164.2C11.1031 163.517 11.6044 162.989 12.2338 162.616C12.8738 162.232 13.5778 162.04 14.3458 162.04C15.0391 162.04 15.6418 162.179 16.1538 162.456C16.6764 162.723 17.0924 163.059 17.4018 163.464V162.184H19.2418V171H17.4018V169.688C17.0924 170.104 16.6711 170.451 16.1378 170.728C15.6044 171.005 14.9964 171.144 14.3138 171.144C13.5564 171.144 12.8631 170.952 12.2338 170.568C11.6044 170.173 11.1031 169.629 10.7298 168.936C10.3671 168.232 10.1858 167.437 10.1858 166.552ZM17.4018 166.584C17.4018 165.976 17.2738 165.448 17.0178 165C16.7724 164.552 16.4471 164.211 16.0418 163.976C15.6364 163.741 15.1991 163.624 14.7298 163.624C14.2604 163.624 13.8231 163.741 13.4178 163.976C13.0124 164.2 12.6818 164.536 12.4258 164.984C12.1804 165.421 12.0578 165.944 12.0578 166.552C12.0578 167.16 12.1804 167.693 12.4258 168.152C12.6818 168.611 13.0124 168.963 13.4178 169.208C13.8338 169.443 14.2711 169.56 14.7298 169.56C15.1991 169.56 15.6364 169.443 16.0418 169.208C16.4471 168.973 16.7724 168.632 17.0178 168.184C17.2738 167.725 17.4018 167.192 17.4018 166.584ZM24.8375 171.144C24.1442 171.144 23.5202 171.021 22.9655 170.776C22.4215 170.52 21.9895 170.179 21.6695 169.752C21.3495 169.315 21.1788 168.829 21.1575 168.296H23.0455C23.0775 168.669 23.2535 168.984 23.5735 169.24C23.9042 169.485 24.3148 169.608 24.8055 169.608C25.3175 169.608 25.7122 169.512 25.9895 169.32C26.2775 169.117 26.4215 168.861 26.4215 168.552C26.4215 168.221 26.2615 167.976 25.9415 167.816C25.6322 167.656 25.1362 167.48 24.4535 167.288C23.7922 167.107 23.2535 166.931 22.8375 166.76C22.4215 166.589 22.0588 166.328 21.7495 165.976C21.4508 165.624 21.3015 165.16 21.3015 164.584C21.3015 164.115 21.4402 163.688 21.7175 163.304C21.9948 162.909 22.3895 162.6 22.9015 162.376C23.4242 162.152 24.0215 162.04 24.6935 162.04C25.6962 162.04 26.5015 162.296 27.1095 162.808C27.7282 163.309 28.0588 163.997 28.1015 164.872H26.2775C26.2455 164.477 26.0855 164.163 25.7975 163.928C25.5095 163.693 25.1202 163.576 24.6295 163.576C24.1495 163.576 23.7815 163.667 23.5255 163.848C23.2695 164.029 23.1415 164.269 23.1415 164.568C23.1415 164.803 23.2268 165 23.3975 165.16C23.5682 165.32 23.7762 165.448 24.0215 165.544C24.2668 165.629 24.6295 165.741 25.1095 165.88C25.7495 166.051 26.2722 166.227 26.6775 166.408C27.0935 166.579 27.4508 166.835 27.7495 167.176C28.0482 167.517 28.2028 167.971 28.2135 168.536C28.2135 169.037 28.0748 169.485 27.7975 169.88C27.5202 170.275 27.1255 170.584 26.6135 170.808C26.1122 171.032 25.5202 171.144 24.8375 171.144ZM31.1124 161.016C30.7817 161.016 30.5044 160.904 30.2804 160.68C30.0564 160.456 29.9444 160.179 29.9444 159.848C29.9444 159.517 30.0564 159.24 30.2804 159.016C30.5044 158.792 30.7817 158.68 31.1124 158.68C31.4324 158.68 31.7044 158.792 31.9284 159.016C32.1524 159.24 32.2644 159.517 32.2644 159.848C32.2644 160.179 32.1524 160.456 31.9284 160.68C31.7044 160.904 31.4324 161.016 31.1124 161.016ZM32.0084 162.184V171H30.1844V162.184H32.0084ZM38.8511 162.04C39.5445 162.04 40.1631 162.184 40.7071 162.472C41.2618 162.76 41.6938 163.187 42.0031 163.752C42.3125 164.317 42.4671 165 42.4671 165.8V171H40.6591V166.072C40.6591 165.283 40.4618 164.68 40.0671 164.264C39.6725 163.837 39.1338 163.624 38.4511 163.624C37.7685 163.624 37.2245 163.837 36.8191 164.264C36.4245 164.68 36.2271 165.283 36.2271 166.072V171H34.4031V162.184H36.2271V163.192C36.5258 162.829 36.9045 162.547 37.3631 162.344C37.8325 162.141 38.3285 162.04 38.8511 162.04ZM48.6178 171.144C47.7858 171.144 47.0338 170.957 46.3618 170.584C45.6898 170.2 45.1618 169.667 44.7778 168.984C44.3938 168.291 44.2018 167.491 44.2018 166.584C44.2018 165.688 44.3991 164.893 44.7938 164.2C45.1884 163.507 45.7271 162.973 46.4098 162.6C47.0924 162.227 47.8551 162.04 48.6978 162.04C49.5404 162.04 50.3031 162.227 50.9858 162.6C51.6684 162.973 52.2071 163.507 52.6018 164.2C52.9964 164.893 53.1938 165.688 53.1938 166.584C53.1938 167.48 52.9911 168.275 52.5858 168.968C52.1804 169.661 51.6258 170.2 50.9218 170.584C50.2284 170.957 49.4604 171.144 48.6178 171.144ZM48.6178 169.56C49.0871 169.56 49.5244 169.448 49.9298 169.224C50.3458 169 50.6818 168.664 50.9378 168.216C51.1938 167.768 51.3218 167.224 51.3218 166.584C51.3218 165.944 51.1991 165.405 50.9538 164.968C50.7084 164.52 50.3831 164.184 49.9778 163.96C49.5724 163.736 49.1351 163.624 48.6658 163.624C48.1964 163.624 47.7591 163.736 47.3538 163.96C46.9591 164.184 46.6444 164.52 46.4098 164.968C46.1751 165.405 46.0578 165.944 46.0578 166.584C46.0578 167.533 46.2978 168.269 46.7778 168.792C47.2684 169.304 47.8818 169.56 48.6178 169.56ZM62.7051 162.04C63.3878 162.04 63.9905 162.179 64.5131 162.456C65.0465 162.723 65.4625 163.059 65.7611 163.464V162.184H67.6011V171.144C67.6011 171.955 67.4305 172.675 67.0891 173.304C66.7478 173.944 66.2518 174.445 65.6011 174.808C64.9611 175.171 64.1931 175.352 63.2971 175.352C62.1025 175.352 61.1105 175.069 60.3211 174.504C59.5318 173.949 59.0838 173.192 58.9771 172.232H60.7851C60.9238 172.691 61.2171 173.059 61.6651 173.336C62.1238 173.624 62.6678 173.768 63.2971 173.768C64.0331 173.768 64.6251 173.544 65.0731 173.096C65.5318 172.648 65.7611 171.997 65.7611 171.144V169.672C65.4518 170.088 65.0305 170.44 64.4971 170.728C63.9745 171.005 63.3771 171.144 62.7051 171.144C61.9371 171.144 61.2331 170.952 60.5931 170.568C59.9638 170.173 59.4625 169.629 59.0891 168.936C58.7265 168.232 58.5451 167.437 58.5451 166.552C58.5451 165.667 58.7265 164.883 59.0891 164.2C59.4625 163.517 59.9638 162.989 60.5931 162.616C61.2331 162.232 61.9371 162.04 62.7051 162.04ZM65.7611 166.584C65.7611 165.976 65.6331 165.448 65.3771 165C65.1318 164.552 64.8065 164.211 64.4011 163.976C63.9958 163.741 63.5585 163.624 63.0891 163.624C62.6198 163.624 62.1825 163.741 61.7771 163.976C61.3718 164.2 61.0411 164.536 60.7851 164.984C60.5398 165.421 60.4171 165.944 60.4171 166.552C60.4171 167.16 60.5398 167.693 60.7851 168.152C61.0411 168.611 61.3718 168.963 61.7771 169.208C62.1931 169.443 62.6305 169.56 63.0891 169.56C63.5585 169.56 63.9958 169.443 64.4011 169.208C64.8065 168.973 65.1318 168.632 65.3771 168.184C65.6331 167.725 65.7611 167.192 65.7611 166.584ZM69.3889 166.552C69.3889 165.667 69.5702 164.883 69.9329 164.2C70.3062 163.517 70.8075 162.989 71.4369 162.616C72.0769 162.232 72.7809 162.04 73.5489 162.04C74.2422 162.04 74.8449 162.179 75.3569 162.456C75.8795 162.723 76.2955 163.059 76.6049 163.464V162.184H78.4449V171H76.6049V169.688C76.2955 170.104 75.8742 170.451 75.3409 170.728C74.8075 171.005 74.1995 171.144 73.5169 171.144C72.7595 171.144 72.0662 170.952 71.4369 170.568C70.8075 170.173 70.3062 169.629 69.9329 168.936C69.5702 168.232 69.3889 167.437 69.3889 166.552ZM76.6049 166.584C76.6049 165.976 76.4769 165.448 76.2209 165C75.9755 164.552 75.6502 164.211 75.2449 163.976C74.8395 163.741 74.4022 163.624 73.9329 163.624C73.4635 163.624 73.0262 163.741 72.6209 163.976C72.2155 164.2 71.8849 164.536 71.6289 164.984C71.3835 165.421 71.2609 165.944 71.2609 166.552C71.2609 167.16 71.3835 167.693 71.6289 168.152C71.8849 168.611 72.2155 168.963 72.6209 169.208C73.0369 169.443 73.4742 169.56 73.9329 169.56C74.4022 169.56 74.8395 169.443 75.2449 169.208C75.6502 168.973 75.9755 168.632 76.2209 168.184C76.4769 167.725 76.6049 167.192 76.6049 166.584ZM91.5126 162.04C92.206 162.04 92.8246 162.184 93.3686 162.472C93.9233 162.76 94.3553 163.187 94.6646 163.752C94.9846 164.317 95.1446 165 95.1446 165.8V171H93.3366V166.072C93.3366 165.283 93.1393 164.68 92.7446 164.264C92.35 163.837 91.8113 163.624 91.1286 163.624C90.446 163.624 89.902 163.837 89.4966 164.264C89.102 164.68 88.9046 165.283 88.9046 166.072V171H87.0966V166.072C87.0966 165.283 86.8993 164.68 86.5046 164.264C86.11 163.837 85.5713 163.624 84.8886 163.624C84.206 163.624 83.662 163.837 83.2566 164.264C82.862 164.68 82.6646 165.283 82.6646 166.072V171H80.8406V162.184H82.6646V163.192C82.9633 162.829 83.342 162.547 83.8006 162.344C84.2593 162.141 84.75 162.04 85.2726 162.04C85.9766 162.04 86.606 162.189 87.1606 162.488C87.7153 162.787 88.142 163.219 88.4406 163.784C88.7073 163.251 89.1233 162.829 89.6886 162.52C90.254 162.2 90.862 162.04 91.5126 162.04ZM99.2896 163.496C99.599 163.069 100.02 162.723 100.554 162.456C101.098 162.179 101.7 162.04 102.362 162.04C103.14 162.04 103.844 162.227 104.474 162.6C105.103 162.973 105.599 163.507 105.962 164.2C106.324 164.883 106.506 165.667 106.506 166.552C106.506 167.437 106.324 168.232 105.962 168.936C105.599 169.629 105.098 170.173 104.458 170.568C103.828 170.952 103.13 171.144 102.362 171.144C101.679 171.144 101.071 171.011 100.538 170.744C100.015 170.477 99.599 170.136 99.2896 169.72V171H97.4656V159.16H99.2896V163.496ZM104.65 166.552C104.65 165.944 104.522 165.421 104.266 164.984C104.02 164.536 103.69 164.2 103.274 163.976C102.868 163.741 102.431 163.624 101.962 163.624C101.503 163.624 101.066 163.741 100.65 163.976C100.244 164.211 99.9136 164.552 99.6576 165C99.4123 165.448 99.2896 165.976 99.2896 166.584C99.2896 167.192 99.4123 167.725 99.6576 168.184C99.9136 168.632 100.244 168.973 100.65 169.208C101.066 169.443 101.503 169.56 101.962 169.56C102.431 169.56 102.868 169.443 103.274 169.208C103.69 168.963 104.02 168.611 104.266 168.152C104.522 167.693 104.65 167.16 104.65 166.552ZM110.133 159.16V171H108.309V159.16H110.133ZM113.456 161.016C113.125 161.016 112.848 160.904 112.624 160.68C112.4 160.456 112.288 160.179 112.288 159.848C112.288 159.517 112.4 159.24 112.624 159.016C112.848 158.792 113.125 158.68 113.456 158.68C113.776 158.68 114.048 158.792 114.272 159.016C114.496 159.24 114.608 159.517 114.608 159.848C114.608 160.179 114.496 160.456 114.272 160.68C114.048 160.904 113.776 161.016 113.456 161.016ZM114.352 162.184V171H112.528V162.184H114.352ZM121.195 162.04C121.888 162.04 122.507 162.184 123.051 162.472C123.606 162.76 124.038 163.187 124.347 163.752C124.656 164.317 124.811 165 124.811 165.8V171H123.003V166.072C123.003 165.283 122.806 164.68 122.411 164.264C122.016 163.837 121.478 163.624 120.795 163.624C120.112 163.624 119.568 163.837 119.163 164.264C118.768 164.68 118.571 165.283 118.571 166.072V171H116.747V162.184H118.571V163.192C118.87 162.829 119.248 162.547 119.707 162.344C120.176 162.141 120.672 162.04 121.195 162.04ZM130.69 162.04C131.372 162.04 131.975 162.179 132.498 162.456C133.031 162.723 133.447 163.059 133.746 163.464V162.184H135.586V171.144C135.586 171.955 135.415 172.675 135.074 173.304C134.732 173.944 134.236 174.445 133.586 174.808C132.946 175.171 132.178 175.352 131.282 175.352C130.087 175.352 129.095 175.069 128.306 174.504C127.516 173.949 127.068 173.192 126.962 172.232H128.77C128.908 172.691 129.202 173.059 129.65 173.336C130.108 173.624 130.652 173.768 131.282 173.768C132.018 173.768 132.61 173.544 133.058 173.096C133.516 172.648 133.746 171.997 133.746 171.144V169.672C133.436 170.088 133.015 170.44 132.482 170.728C131.959 171.005 131.362 171.144 130.69 171.144C129.922 171.144 129.218 170.952 128.578 170.568C127.948 170.173 127.447 169.629 127.074 168.936C126.711 168.232 126.53 167.437 126.53 166.552C126.53 165.667 126.711 164.883 127.074 164.2C127.447 163.517 127.948 162.989 128.578 162.616C129.218 162.232 129.922 162.04 130.69 162.04ZM133.746 166.584C133.746 165.976 133.618 165.448 133.362 165C133.116 164.552 132.791 164.211 132.386 163.976C131.98 163.741 131.543 163.624 131.074 163.624C130.604 163.624 130.167 163.741 129.762 163.976C129.356 164.2 129.026 164.536 128.77 164.984C128.524 165.421 128.402 165.944 128.402 166.552C128.402 167.16 128.524 167.693 128.77 168.152C129.026 168.611 129.356 168.963 129.762 169.208C130.178 169.443 130.615 169.56 131.074 169.56C131.543 169.56 131.98 169.443 132.386 169.208C132.791 168.973 133.116 168.632 133.362 168.184C133.618 167.725 133.746 167.192 133.746 166.584ZM139.981 168.808L138.045 173.224H136.861L137.997 168.808H139.981Z" fill="#544837"/>
<path d="M11 88.644V91.13H4.598V95.068H9.504V97.51H4.598V104H1.518V88.644H11ZM14.746 90.36C14.2033 90.36 13.7487 90.1913 13.382 89.854C13.03 89.502 12.854 89.0693 12.854 88.556C12.854 88.0427 13.03 87.6173 13.382 87.28C13.7487 86.928 14.2033 86.752 14.746 86.752C15.2887 86.752 15.736 86.928 16.088 87.28C16.4547 87.6173 16.638 88.0427 16.638 88.556C16.638 89.0693 16.4547 89.502 16.088 89.854C15.736 90.1913 15.2887 90.36 14.746 90.36ZM16.264 91.812V104H13.184V91.812H16.264ZM22.3871 93.704C22.7831 93.0587 23.2964 92.5527 23.9271 92.186C24.5724 91.8193 25.3057 91.636 26.1271 91.636V94.87H25.3131C24.3451 94.87 23.6117 95.0973 23.1131 95.552C22.6291 96.0067 22.3871 96.7987 22.3871 97.928V104H19.3071V91.812H22.3871V93.704ZM32.8656 104.198C31.8683 104.198 30.9736 104.022 30.1816 103.67C29.3896 103.303 28.7589 102.812 28.2896 102.196C27.8349 101.58 27.5856 100.898 27.5416 100.15H30.6436C30.7023 100.619 30.9296 101.008 31.3256 101.316C31.7363 101.624 32.2423 101.778 32.8436 101.778C33.4303 101.778 33.8849 101.661 34.2076 101.426C34.5449 101.191 34.7136 100.891 34.7136 100.524C34.7136 100.128 34.5083 99.8347 34.0976 99.644C33.7016 99.4387 33.0636 99.2187 32.1836 98.984C31.2743 98.764 30.5263 98.5367 29.9396 98.302C29.3676 98.0673 28.8689 97.708 28.4436 97.224C28.0329 96.74 27.8276 96.0873 27.8276 95.266C27.8276 94.5913 28.0183 93.9753 28.3996 93.418C28.7956 92.8607 29.3529 92.4207 30.0716 92.098C30.8049 91.7753 31.6629 91.614 32.6456 91.614C34.0976 91.614 35.2563 91.9807 36.1216 92.714C36.9869 93.4327 37.4636 94.408 37.5516 95.64H34.6036C34.5596 95.156 34.3543 94.7747 33.9876 94.496C33.6356 94.2027 33.1589 94.056 32.5576 94.056C32.0003 94.056 31.5676 94.1587 31.2596 94.364C30.9663 94.5693 30.8196 94.8553 30.8196 95.222C30.8196 95.6327 31.0249 95.948 31.4356 96.168C31.8463 96.3733 32.4843 96.586 33.3496 96.806C34.2296 97.026 34.9556 97.2533 35.5276 97.488C36.0996 97.7227 36.5909 98.0893 37.0016 98.588C37.4269 99.072 37.6469 99.7173 37.6616 100.524C37.6616 101.228 37.4636 101.859 37.0676 102.416C36.6863 102.973 36.1289 103.413 35.3956 103.736C34.6769 104.044 33.8336 104.198 32.8656 104.198ZM43.7759 94.342V100.238C43.7759 100.649 43.8712 100.949 44.0619 101.14C44.2672 101.316 44.6045 101.404 45.0739 101.404H46.5039V104H44.5679C41.9719 104 40.6739 102.739 40.6739 100.216V94.342H39.2219V91.812H40.6739V88.798H43.7759V91.812H46.5039V94.342H43.7759ZM53.1694 97.906C53.1694 96.6447 53.426 95.5447 53.9394 94.606C54.4527 93.6527 55.164 92.9193 56.0734 92.406C56.9827 91.878 58.024 91.614 59.1974 91.614C60.708 91.614 61.9547 91.9953 62.9374 92.758C63.9347 93.506 64.602 94.562 64.9394 95.926H61.6174C61.4414 95.398 61.1407 94.9873 60.7154 94.694C60.3047 94.386 59.7914 94.232 59.1754 94.232C58.2954 94.232 57.5987 94.5547 57.0854 95.2C56.572 95.8307 56.3154 96.7327 56.3154 97.906C56.3154 99.0647 56.572 99.9667 57.0854 100.612C57.5987 101.243 58.2954 101.558 59.1754 101.558C60.422 101.558 61.236 101.001 61.6174 99.886H64.9394C64.602 101.206 63.9347 102.255 62.9374 103.032C61.94 103.809 60.6934 104.198 59.1974 104.198C58.024 104.198 56.9827 103.941 56.0734 103.428C55.164 102.9 54.4527 102.167 53.9394 101.228C53.426 100.275 53.1694 99.1673 53.1694 97.906ZM70.2757 87.72V104H67.1957V87.72H70.2757ZM74.8808 90.36C74.3381 90.36 73.8834 90.1913 73.5168 89.854C73.1648 89.502 72.9888 89.0693 72.9888 88.556C72.9888 88.0427 73.1648 87.6173 73.5168 87.28C73.8834 86.928 74.3381 86.752 74.8808 86.752C75.4234 86.752 75.8708 86.928 76.2228 87.28C76.5894 87.6173 76.7728 88.0427 76.7728 88.556C76.7728 89.0693 76.5894 89.502 76.2228 89.854C75.8708 90.1913 75.4234 90.36 74.8808 90.36ZM76.3988 91.812V104H73.3188V91.812H76.3988ZM78.6498 97.906C78.6498 96.6447 78.9065 95.5447 79.4198 94.606C79.9332 93.6527 80.6445 92.9193 81.5538 92.406C82.4632 91.878 83.5045 91.614 84.6778 91.614C86.1885 91.614 87.4352 91.9953 88.4178 92.758C89.4152 93.506 90.0825 94.562 90.4198 95.926H87.0978C86.9218 95.398 86.6212 94.9873 86.1958 94.694C85.7852 94.386 85.2718 94.232 84.6558 94.232C83.7758 94.232 83.0792 94.5547 82.5658 95.2C82.0525 95.8307 81.7958 96.7327 81.7958 97.906C81.7958 99.0647 82.0525 99.9667 82.5658 100.612C83.0792 101.243 83.7758 101.558 84.6558 101.558C85.9025 101.558 86.7165 101.001 87.0978 99.886H90.4198C90.0825 101.206 89.4152 102.255 88.4178 103.032C87.4205 103.809 86.1738 104.198 84.6778 104.198C83.5045 104.198 82.4632 103.941 81.5538 103.428C80.6445 102.9 79.9332 102.167 79.4198 101.228C78.9065 100.275 78.6498 99.1673 78.6498 97.906ZM99.8922 104L95.7562 98.808V104H92.6762V87.72H95.7562V96.982L99.8482 91.812H103.852L98.4842 97.928L103.896 104H99.8922ZM114.352 94.342V100.238C114.352 100.649 114.447 100.949 114.638 101.14C114.843 101.316 115.181 101.404 115.65 101.404H117.08V104H115.144C112.548 104 111.25 102.739 111.25 100.216V94.342H109.798V91.812H111.25V88.798H114.352V91.812H117.08V94.342H114.352ZM130.625 97.642C130.625 98.082 130.596 98.478 130.537 98.83H121.627C121.701 99.71 122.009 100.399 122.551 100.898C123.094 101.397 123.761 101.646 124.553 101.646C125.697 101.646 126.511 101.155 126.995 100.172H130.317C129.965 101.345 129.291 102.313 128.293 103.076C127.296 103.824 126.071 104.198 124.619 104.198C123.446 104.198 122.39 103.941 121.451 103.428C120.527 102.9 119.801 102.159 119.273 101.206C118.76 100.253 118.503 99.1527 118.503 97.906C118.503 96.6447 118.76 95.5373 119.273 94.584C119.787 93.6307 120.505 92.8973 121.429 92.384C122.353 91.8707 123.417 91.614 124.619 91.614C125.778 91.614 126.812 91.8633 127.721 92.362C128.645 92.8607 129.357 93.572 129.855 94.496C130.369 95.4053 130.625 96.454 130.625 97.642ZM127.435 96.762C127.421 95.97 127.135 95.3393 126.577 94.87C126.02 94.386 125.338 94.144 124.531 94.144C123.769 94.144 123.123 94.3787 122.595 94.848C122.082 95.3027 121.767 95.9407 121.649 96.762H127.435ZM137.537 104.198C136.54 104.198 135.645 104.022 134.853 103.67C134.061 103.303 133.431 102.812 132.961 102.196C132.507 101.58 132.257 100.898 132.213 100.15H135.315C135.374 100.619 135.601 101.008 135.997 101.316C136.408 101.624 136.914 101.778 137.515 101.778C138.102 101.778 138.557 101.661 138.879 101.426C139.217 101.191 139.385 100.891 139.385 100.524C139.385 100.128 139.18 99.8347 138.769 99.644C138.373 99.4387 137.735 99.2187 136.855 98.984C135.946 98.764 135.198 98.5367 134.611 98.302C134.039 98.0673 133.541 97.708 133.115 97.224C132.705 96.74 132.499 96.0873 132.499 95.266C132.499 94.5913 132.69 93.9753 133.071 93.418C133.467 92.8607 134.025 92.4207 134.743 92.098C135.477 91.7753 136.335 91.614 137.317 91.614C138.769 91.614 139.928 91.9807 140.793 92.714C141.659 93.4327 142.135 94.408 142.223 95.64H139.275C139.231 95.156 139.026 94.7747 138.659 94.496C138.307 94.2027 137.831 94.056 137.229 94.056C136.672 94.056 136.239 94.1587 135.931 94.364C135.638 94.5693 135.491 94.8553 135.491 95.222C135.491 95.6327 135.697 95.948 136.107 96.168C136.518 96.3733 137.156 96.586 138.021 96.806C138.901 97.026 139.627 97.2533 140.199 97.488C140.771 97.7227 141.263 98.0893 141.673 98.588C142.099 99.072 142.319 99.7173 142.333 100.524C142.333 101.228 142.135 101.859 141.739 102.416C141.358 102.973 140.801 103.413 140.067 103.736C139.349 104.044 138.505 104.198 137.537 104.198ZM148.448 94.342V100.238C148.448 100.649 148.543 100.949 148.734 101.14C148.939 101.316 149.276 101.404 149.746 101.404H151.176V104H149.24C146.644 104 145.346 102.739 145.346 100.216V94.342H143.894V91.812H145.346V88.798H148.448V91.812H151.176V94.342H148.448ZM158.055 104.198C157.058 104.198 156.163 104.022 155.371 103.67C154.579 103.303 153.948 102.812 153.479 102.196C153.024 101.58 152.775 100.898 152.731 100.15H155.833C155.892 100.619 156.119 101.008 156.515 101.316C156.926 101.624 157.432 101.778 158.033 101.778C158.62 101.778 159.074 101.661 159.397 101.426C159.734 101.191 159.903 100.891 159.903 100.524C159.903 100.128 159.698 99.8347 159.287 99.644C158.891 99.4387 158.253 99.2187 157.373 98.984C156.464 98.764 155.716 98.5367 155.129 98.302C154.557 98.0673 154.058 97.708 153.633 97.224C153.222 96.74 153.017 96.0873 153.017 95.266C153.017 94.5913 153.208 93.9753 153.589 93.418C153.985 92.8607 154.542 92.4207 155.261 92.098C155.994 91.7753 156.852 91.614 157.835 91.614C159.287 91.614 160.446 91.9807 161.311 92.714C162.176 93.4327 162.653 94.408 162.741 95.64H159.793C159.749 95.156 159.544 94.7747 159.177 94.496C158.825 94.2027 158.348 94.056 157.747 94.056C157.19 94.056 156.757 94.1587 156.449 94.364C156.156 94.5693 156.009 94.8553 156.009 95.222C156.009 95.6327 156.214 95.948 156.625 96.168C157.036 96.3733 157.674 96.586 158.539 96.806C159.419 97.026 160.145 97.2533 160.717 97.488C161.289 97.7227 161.78 98.0893 162.191 98.588C162.616 99.072 162.836 99.7173 162.851 100.524C162.851 101.228 162.653 101.859 162.257 102.416C161.876 102.973 161.318 103.413 160.585 103.736C159.866 104.044 159.023 104.198 158.055 104.198Z" fill="#2F281E"/>
</g>
<defs>
<filter id="filter0_f_0_540" x="-26.6828" y="-2.18282" width="104.366" height="79.3656" filterUnits="userSpaceOnUse" color-interpolation-filters="sRGB">
<feFlood flood-opacity="0" result="BackgroundImageFix"/>
<feBlend mode="normal" in="SourceGraphic" in2="BackgroundImageFix" result="shape"/>
<feGaussianBlur stdDeviation="13.5914" result="effect1_foregroundBlur_0_540"/>
</filter>
<clipPath id="clip0_0_540">
<rect width="51" height="50" fill="white"/>
</clipPath>
<clipPath id="clip1_0_540">
<rect width="240" height="98" fill="white" transform="translate(0 80)"/>
</clipPath>
</defs>
</svg>
