<svg width="102" height="46" viewBox="0 0 102 46" fill="none" xmlns="http://www.w3.org/2000/svg">
<g clip-path="url(#clip0_0_693)">
<rect x="0.5" y="0.5" width="101" height="45" rx="3.5" stroke="#BCD0E5"/>
<path d="M30.2076 29.112C29.4289 29.112 28.7249 28.9787 28.0956 28.712C27.4769 28.4453 26.9862 28.0613 26.6236 27.56C26.2609 27.0587 26.0742 26.4667 26.0636 25.784H28.4636C28.4956 26.2427 28.6556 26.6053 28.9436 26.872C29.2422 27.1387 29.6476 27.272 30.1596 27.272C30.6822 27.272 31.0929 27.1493 31.3916 26.904C31.6902 26.648 31.8396 26.3173 31.8396 25.912C31.8396 25.5813 31.7382 25.3093 31.5356 25.096C31.3329 24.8827 31.0769 24.7173 30.7676 24.6C30.4689 24.472 30.0529 24.3333 29.5196 24.184C28.7942 23.9707 28.2022 23.7627 27.7436 23.56C27.2956 23.3467 26.9062 23.032 26.5756 22.616C26.2556 22.1893 26.0956 21.624 26.0956 20.92C26.0956 20.2587 26.2609 19.6827 26.5916 19.192C26.9222 18.7013 27.3862 18.328 27.9836 18.072C28.5809 17.8053 29.2636 17.672 30.0316 17.672C31.1836 17.672 32.1169 17.9547 32.8316 18.52C33.5569 19.0747 33.9569 19.8533 34.0316 20.856H31.5676C31.5462 20.472 31.3809 20.1573 31.0716 19.912C30.7729 19.656 30.3729 19.528 29.8716 19.528C29.4342 19.528 29.0822 19.64 28.8156 19.864C28.5596 20.088 28.4316 20.4133 28.4316 20.84C28.4316 21.1387 28.5276 21.3893 28.7196 21.592C28.9222 21.784 29.1676 21.944 29.4556 22.072C29.7542 22.1893 30.1702 22.328 30.7036 22.488C31.4289 22.7013 32.0209 22.9147 32.4796 23.128C32.9382 23.3413 33.3329 23.6613 33.6636 24.088C33.9942 24.5147 34.1596 25.0747 34.1596 25.768C34.1596 26.3653 34.0049 26.92 33.6956 27.432C33.3862 27.944 32.9329 28.3547 32.3356 28.664C31.7382 28.9627 31.0289 29.112 30.2076 29.112ZM37.2376 19.08C36.8429 19.08 36.5122 18.9573 36.2456 18.712C35.9896 18.456 35.8616 18.1413 35.8616 17.768C35.8616 17.3947 35.9896 17.0853 36.2456 16.84C36.5122 16.584 36.8429 16.456 37.2376 16.456C37.6322 16.456 37.9576 16.584 38.2136 16.84C38.4802 17.0853 38.6136 17.3947 38.6136 17.768C38.6136 18.1413 38.4802 18.456 38.2136 18.712C37.9576 18.9573 37.6322 19.08 37.2376 19.08ZM38.3416 20.136V29H36.1016V20.136H38.3416ZM44.0267 19.992C44.688 19.992 45.2694 20.1253 45.7707 20.392C46.272 20.648 46.6667 20.984 46.9547 21.4V20.136H49.2107V29.064C49.2107 29.8853 49.0454 30.616 48.7147 31.256C48.384 31.9067 47.888 32.4187 47.2267 32.792C46.5654 33.176 45.7654 33.368 44.8267 33.368C43.568 33.368 42.5334 33.0747 41.7227 32.488C40.9227 31.9013 40.4694 31.1013 40.3627 30.088H42.5867C42.704 30.4933 42.9547 30.8133 43.3387 31.048C43.7334 31.2933 44.208 31.416 44.7627 31.416C45.4134 31.416 45.9414 31.2187 46.3467 30.824C46.752 30.44 46.9547 29.8533 46.9547 29.064V27.688C46.6667 28.104 46.2667 28.4507 45.7547 28.728C45.2534 29.0053 44.6774 29.144 44.0267 29.144C43.28 29.144 42.5974 28.952 41.9787 28.568C41.36 28.184 40.8694 27.6453 40.5067 26.952C40.1547 26.248 39.9787 25.4427 39.9787 24.536C39.9787 23.64 40.1547 22.8453 40.5067 22.152C40.8694 21.4587 41.3547 20.9253 41.9627 20.552C42.5814 20.1787 43.2694 19.992 44.0267 19.992ZM46.9547 24.568C46.9547 24.024 46.848 23.56 46.6347 23.176C46.4214 22.7813 46.1334 22.4827 45.7707 22.28C45.408 22.0667 45.0187 21.96 44.6027 21.96C44.1867 21.96 43.8027 22.0613 43.4507 22.264C43.0987 22.4667 42.8107 22.7653 42.5867 23.16C42.3734 23.544 42.2667 24.0027 42.2667 24.536C42.2667 25.0693 42.3734 25.5387 42.5867 25.944C42.8107 26.3387 43.0987 26.6427 43.4507 26.856C43.8134 27.0693 44.1974 27.176 44.6027 27.176C45.0187 27.176 45.408 27.0747 45.7707 26.872C46.1334 26.6587 46.4214 26.36 46.6347 25.976C46.848 25.5813 46.9547 25.112 46.9547 24.568ZM56.3104 20.008C57.3664 20.008 58.2198 20.344 58.8704 21.016C59.5211 21.6773 59.8464 22.6053 59.8464 23.8V29H57.6064V24.104C57.6064 23.4 57.4304 22.8613 57.0784 22.488C56.7264 22.104 56.2464 21.912 55.6384 21.912C55.0198 21.912 54.5291 22.104 54.1664 22.488C53.8144 22.8613 53.6384 23.4 53.6384 24.104V29H51.3984V20.136H53.6384V21.24C53.9371 20.856 54.3158 20.5573 54.7744 20.344C55.2438 20.12 55.7558 20.008 56.3104 20.008ZM68.0291 17.832V29H65.7891V17.832H68.0291ZM75.1542 20.008C76.2102 20.008 77.0635 20.344 77.7142 21.016C78.3649 21.6773 78.6902 22.6053 78.6902 23.8V29H76.4502V24.104C76.4502 23.4 76.2742 22.8613 75.9222 22.488C75.5702 22.104 75.0902 21.912 74.4822 21.912C73.8635 21.912 73.3729 22.104 73.0102 22.488C72.6582 22.8613 72.4822 23.4 72.4822 24.104V29H70.2422V20.136H72.4822V21.24C72.7809 20.856 73.1595 20.5573 73.6182 20.344C74.0875 20.12 74.5995 20.008 75.1542 20.008Z" fill="#173A56"/>
</g>
<defs>
<clipPath id="clip0_0_693">
<rect width="102" height="46" fill="white"/>
</clipPath>
</defs>
</svg>
