<svg width="110" height="46" viewBox="0 0 110 46" fill="none" xmlns="http://www.w3.org/2000/svg">
<g clip-path="url(#clip0_0_696)">
<rect width="110" height="46" rx="4" fill="#FF9900"/>
<path d="M29.96 29.112C29.1813 29.112 28.4773 28.9787 27.848 28.712C27.2293 28.4453 26.7387 28.0613 26.376 27.56C26.0133 27.0587 25.8267 26.4667 25.816 25.784H28.216C28.248 26.2427 28.408 26.6053 28.696 26.872C28.9947 27.1387 29.4 27.272 29.912 27.272C30.4347 27.272 30.8453 27.1493 31.144 26.904C31.4427 26.648 31.592 26.3173 31.592 25.912C31.592 25.5813 31.4907 25.3093 31.288 25.096C31.0853 24.8827 30.8293 24.7173 30.52 24.6C30.2213 24.472 29.8053 24.3333 29.272 24.184C28.5467 23.9707 27.9547 23.7627 27.496 23.56C27.048 23.3467 26.6587 23.032 26.328 22.616C26.008 22.1893 25.848 21.624 25.848 20.92C25.848 20.2587 26.0133 19.6827 26.344 19.192C26.6747 18.7013 27.1387 18.328 27.736 18.072C28.3333 17.8053 29.016 17.672 29.784 17.672C30.936 17.672 31.8693 17.9547 32.584 18.52C33.3093 19.0747 33.7093 19.8533 33.784 20.856H31.32C31.2987 20.472 31.1333 20.1573 30.824 19.912C30.5253 19.656 30.1253 19.528 29.624 19.528C29.1867 19.528 28.8347 19.64 28.568 19.864C28.312 20.088 28.184 20.4133 28.184 20.84C28.184 21.1387 28.28 21.3893 28.472 21.592C28.6747 21.784 28.92 21.944 29.208 22.072C29.5067 22.1893 29.9227 22.328 30.456 22.488C31.1813 22.7013 31.7733 22.9147 32.232 23.128C32.6907 23.3413 33.0853 23.6613 33.416 24.088C33.7467 24.5147 33.912 25.0747 33.912 25.768C33.912 26.3653 33.7573 26.92 33.448 27.432C33.1387 27.944 32.6853 28.3547 32.088 28.664C31.4907 28.9627 30.7813 29.112 29.96 29.112ZM36.99 19.08C36.5953 19.08 36.2647 18.9573 35.998 18.712C35.742 18.456 35.614 18.1413 35.614 17.768C35.614 17.3947 35.742 17.0853 35.998 16.84C36.2647 16.584 36.5953 16.456 36.99 16.456C37.3847 16.456 37.71 16.584 37.966 16.84C38.2327 17.0853 38.366 17.3947 38.366 17.768C38.366 18.1413 38.2327 18.456 37.966 18.712C37.71 18.9573 37.3847 19.08 36.99 19.08ZM38.094 20.136V29H35.854V20.136H38.094ZM43.7791 19.992C44.4405 19.992 45.0218 20.1253 45.5231 20.392C46.0245 20.648 46.4191 20.984 46.7071 21.4V20.136H48.9631V29.064C48.9631 29.8853 48.7978 30.616 48.4671 31.256C48.1365 31.9067 47.6405 32.4187 46.9791 32.792C46.3178 33.176 45.5178 33.368 44.5791 33.368C43.3205 33.368 42.2858 33.0747 41.4751 32.488C40.6751 31.9013 40.2218 31.1013 40.1151 30.088H42.3391C42.4565 30.4933 42.7071 30.8133 43.0911 31.048C43.4858 31.2933 43.9605 31.416 44.5151 31.416C45.1658 31.416 45.6938 31.2187 46.0991 30.824C46.5045 30.44 46.7071 29.8533 46.7071 29.064V27.688C46.4191 28.104 46.0191 28.4507 45.5071 28.728C45.0058 29.0053 44.4298 29.144 43.7791 29.144C43.0325 29.144 42.3498 28.952 41.7311 28.568C41.1125 28.184 40.6218 27.6453 40.2591 26.952C39.9071 26.248 39.7311 25.4427 39.7311 24.536C39.7311 23.64 39.9071 22.8453 40.2591 22.152C40.6218 21.4587 41.1071 20.9253 41.7151 20.552C42.3338 20.1787 43.0218 19.992 43.7791 19.992ZM46.7071 24.568C46.7071 24.024 46.6005 23.56 46.3871 23.176C46.1738 22.7813 45.8858 22.4827 45.5231 22.28C45.1605 22.0667 44.7711 21.96 44.3551 21.96C43.9391 21.96 43.5551 22.0613 43.2031 22.264C42.8511 22.4667 42.5631 22.7653 42.3391 23.16C42.1258 23.544 42.0191 24.0027 42.0191 24.536C42.0191 25.0693 42.1258 25.5387 42.3391 25.944C42.5631 26.3387 42.8511 26.6427 43.2031 26.856C43.5658 27.0693 43.9498 27.176 44.3551 27.176C44.7711 27.176 45.1605 27.0747 45.5231 26.872C45.8858 26.6587 46.1738 26.36 46.3871 25.976C46.6005 25.5813 46.7071 25.112 46.7071 24.568ZM56.0629 20.008C57.1189 20.008 57.9722 20.344 58.6229 21.016C59.2735 21.6773 59.5989 22.6053 59.5989 23.8V29H57.3589V24.104C57.3589 23.4 57.1829 22.8613 56.8309 22.488C56.4789 22.104 55.9989 21.912 55.3909 21.912C54.7722 21.912 54.2815 22.104 53.9189 22.488C53.5669 22.8613 53.3909 23.4 53.3909 24.104V29H51.1509V20.136H53.3909V21.24C53.6895 20.856 54.0682 20.5573 54.5269 20.344C54.9962 20.12 55.5082 20.008 56.0629 20.008ZM67.7495 17.832V24.744C67.7495 25.5013 67.9468 26.0827 68.3415 26.488C68.7362 26.8827 69.2908 27.08 70.0055 27.08C70.7308 27.08 71.2908 26.8827 71.6855 26.488C72.0802 26.0827 72.2775 25.5013 72.2775 24.744V17.832H74.5335V24.728C74.5335 25.6773 74.3255 26.4827 73.9095 27.144C73.5042 27.7947 72.9548 28.2853 72.2615 28.616C71.5788 28.9467 70.8162 29.112 69.9735 29.112C69.1415 29.112 68.3842 28.9467 67.7015 28.616C67.0295 28.2853 66.4962 27.7947 66.1015 27.144C65.7068 26.4827 65.5095 25.6773 65.5095 24.728V17.832H67.7495ZM78.9378 21.416C79.2258 21.0107 79.6204 20.6747 80.1218 20.408C80.6338 20.1307 81.2151 19.992 81.8658 19.992C82.6231 19.992 83.3058 20.1787 83.9138 20.552C84.5324 20.9253 85.0178 21.4587 85.3698 22.152C85.7324 22.8347 85.9138 23.6293 85.9138 24.536C85.9138 25.4427 85.7324 26.248 85.3698 26.952C85.0178 27.6453 84.5324 28.184 83.9138 28.568C83.3058 28.952 82.6231 29.144 81.8658 29.144C81.2151 29.144 80.6391 29.0107 80.1378 28.744C79.6471 28.4773 79.2471 28.1413 78.9378 27.736V33.224H76.6978V20.136H78.9378V21.416ZM83.6258 24.536C83.6258 24.0027 83.5138 23.544 83.2898 23.16C83.0764 22.7653 82.7884 22.4667 82.4258 22.264C82.0738 22.0613 81.6898 21.96 81.2738 21.96C80.8684 21.96 80.4844 22.0667 80.1218 22.28C79.7698 22.4827 79.4818 22.7813 79.2578 23.176C79.0444 23.5707 78.9378 24.0347 78.9378 24.568C78.9378 25.1013 79.0444 25.5653 79.2578 25.96C79.4818 26.3547 79.7698 26.6587 80.1218 26.872C80.4844 27.0747 80.8684 27.176 81.2738 27.176C81.6898 27.176 82.0738 27.0693 82.4258 26.856C82.7884 26.6427 83.0764 26.3387 83.2898 25.944C83.5138 25.5493 83.6258 25.08 83.6258 24.536Z" fill="white"/>
</g>
<defs>
<clipPath id="clip0_0_696">
<rect width="110" height="46" fill="white"/>
</clipPath>
</defs>
</svg>
